<svg xmlns="http://www.w3.org/2000/svg" xmlns:xlink="http://www.w3.org/1999/xlink" version="1.1" class="marks" width="450" height="1099" viewBox="0 0 450 1099"><rect width="450" height="1099" fill="white"/><g fill="none" stroke-miterlimit="10" transform="translate(44,22)"><g class="mark-group role-frame root" role="graphics-object" aria-roledescription="group mark container"><g transform="translate(0,0)"><path class="background" aria-hidden="true" d="M0.5,0.5h400v1040h-400Z" stroke="#ddd"/><g><g class="mark-group role-axis" aria-hidden="true"><g transform="translate(0.5,1040.5)"><path class="background" aria-hidden="true" d="M0,0h0v0h0Z" pointer-events="none"/><g><g class="mark-rule role-axis-grid" pointer-events="none"><line transform="translate(0,0)" x2="0" y2="-1040" stroke="#ddd" stroke-width="1" opacity="1"/><line transform="translate(44,0)" x2="0" y2="-1040" stroke="#ddd" stroke-width="1" opacity="1"/><line transform="translate(89,0)" x2="0" y2="-1040" stroke="#ddd" stroke-width="1" opacity="1"/><line transform="translate(133,0)" x2="0" y2="-1040" stroke="#ddd" stroke-width="1" opacity="1"/><line transform="translate(178,0)" x2="0" y2="-1040" stroke="#ddd" stroke-width="1" opacity="1"/><line transform="translate(222,0)" x2="0" y2="-1040" stroke="#ddd" stroke-width="1" opacity="1"/><line transform="translate(267,0)" x2="0" y2="-1040" stroke="#ddd" stroke-width="1" opacity="1"/><line transform="translate(311,0)" x2="0" y2="-1040" stroke="#ddd" stroke-width="1" opacity="1"/><line transform="translate(356,0)" x2="0" y2="-1040" stroke="#ddd" stroke-width="1" opacity="1"/><line transform="translate(400,0)" x2="0" y2="-1040" stroke="#ddd" stroke-width="1" opacity="1"/></g></g><path class="foreground" aria-hidden="true" d="" pointer-events="none" display="none"/></g></g><g class="mark-group role-axis" role="graphics-symbol" aria-roledescription="axis" aria-label="X-axis titled 'Count of Records' for a linear scale with values from 0 to 900,000"><g transform="translate(0.5,1040.5)"><path class="background" aria-hidden="true" d="M0,0h0v0h0Z" pointer-events="none"/><g><g class="mark-rule role-axis-tick" pointer-events="none"><line transform="translate(0,0)" x2="0" y2="5" stroke="#888" stroke-width="1" opacity="1"/><line transform="translate(44,0)" x2="0" y2="5" stroke="#888" stroke-width="1" opacity="1"/><line transform="translate(89,0)" x2="0" y2="5" stroke="#888" stroke-width="1" opacity="1"/><line transform="translate(133,0)" x2="0" y2="5" stroke="#888" stroke-width="1" opacity="1"/><line transform="translate(178,0)" x2="0" y2="5" stroke="#888" stroke-width="1" opacity="1"/><line transform="translate(222,0)" x2="0" y2="5" stroke="#888" stroke-width="1" opacity="1"/><line transform="translate(267,0)" x2="0" y2="5" stroke="#888" stroke-width="1" opacity="1"/><line transform="translate(311,0)" x2="0" y2="5" stroke="#888" stroke-width="1" opacity="1"/><line transform="translate(356,0)" x2="0" y2="5" stroke="#888" stroke-width="1" opacity="1"/><line transform="translate(400,0)" x2="0" y2="5" stroke="#888" stroke-width="1" opacity="1"/></g><g class="mark-text role-axis-label" pointer-events="none"><text text-anchor="start" transform="translate(0,15)" font-family="sans-serif" font-size="10px" fill="#000" opacity="1">0</text><text text-anchor="middle" transform="translate(44.44444444444444,15)" font-family="sans-serif" font-size="10px" fill="#000" opacity="0">100,000</text><text text-anchor="middle" transform="translate(88.88888888888889,15)" font-family="sans-serif" font-size="10px" fill="#000" opacity="1">200,000</text><text text-anchor="middle" transform="translate(133.33333333333331,15)" font-family="sans-serif" font-size="10px" fill="#000" opacity="0">300,000</text><text text-anchor="middle" transform="translate(177.77777777777777,15)" font-family="sans-serif" font-size="10px" fill="#000" opacity="1">400,000</text><text text-anchor="middle" transform="translate(222.22222222222223,15)" font-family="sans-serif" font-size="10px" fill="#000" opacity="0">500,000</text><text text-anchor="middle" transform="translate(266.66666666666663,15)" font-family="sans-serif" font-size="10px" fill="#000" opacity="1">600,000</text><text text-anchor="middle" transform="translate(311.11111111111114,15)" font-family="sans-serif" font-size="10px" fill="#000" opacity="0">700,000</text><text text-anchor="middle" transform="translate(355.55555555555554,15)" font-family="sans-serif" font-size="10px" fill="#000" opacity="1">800,000</text><text text-anchor="end" transform="translate(400,15)" font-family="sans-serif" font-size="10px" fill="#000" opacity="0">900,000</text></g><g class="mark-rule role-axis-domain" pointer-events="none"><line transform="translate(0,0)" x2="400" y2="0" stroke="#888" stroke-width="1" opacity="1"/></g><g class="mark-text role-axis-title" pointer-events="none"><text text-anchor="middle" transform="translate(200,30)" font-family="sans-serif" font-size="11px" font-weight="bold" fill="#000" opacity="1">Count of Records</text></g></g><path class="foreground" aria-hidden="true" d="" pointer-events="none" display="none"/></g></g><g class="mark-group role-axis" role="graphics-symbol" aria-roledescription="axis" aria-label="Y-axis titled 'origin_state' for a discrete scale with 52 values: CA, TX, FL, IL, GA, ending with VI"><g transform="translate(0.5,0.5)"><path class="background" aria-hidden="true" d="M0,0h0v0h0Z" pointer-events="none"/><g><g class="mark-rule role-axis-tick" pointer-events="none"><line transform="translate(0,10)" x2="-5" y2="0" stroke="#888" stroke-width="1" opacity="1"/><line transform="translate(0,30)" x2="-5" y2="0" stroke="#888" stroke-width="1" opacity="1"/><line transform="translate(0,50)" x2="-5" y2="0" stroke="#888" stroke-width="1" opacity="1"/><line transform="translate(0,70)" x2="-5" y2="0" stroke="#888" stroke-width="1" opacity="1"/><line transform="translate(0,90)" x2="-5" y2="0" stroke="#888" stroke-width="1" opacity="1"/><line transform="translate(0,110)" x2="-5" y2="0" stroke="#888" stroke-width="1" opacity="1"/><line transform="translate(0,130)" x2="-5" y2="0" stroke="#888" stroke-width="1" opacity="1"/><line transform="translate(0,150)" x2="-5" y2="0" stroke="#888" stroke-width="1" opacity="1"/><line transform="translate(0,170)" x2="-5" y2="0" stroke="#888" stroke-width="1" opacity="1"/><line transform="translate(0,190)" x2="-5" y2="0" stroke="#888" stroke-width="1" opacity="1"/><line transform="translate(0,210)" x2="-5" y2="0" stroke="#888" stroke-width="1" opacity="1"/><line transform="translate(0,230)" x2="-5" y2="0" stroke="#888" stroke-width="1" opacity="1"/><line transform="translate(0,250)" x2="-5" y2="0" stroke="#888" stroke-width="1" opacity="1"/><line transform="translate(0,270)" x2="-5" y2="0" stroke="#888" stroke-width="1" opacity="1"/><line transform="translate(0,290)" x2="-5" y2="0" stroke="#888" stroke-width="1" opacity="1"/><line transform="translate(0,310)" x2="-5" y2="0" stroke="#888" stroke-width="1" opacity="1"/><line transform="translate(0,330)" x2="-5" y2="0" stroke="#888" stroke-width="1" opacity="1"/><line transform="translate(0,350)" x2="-5" y2="0" stroke="#888" stroke-width="1" opacity="1"/><line transform="translate(0,370)" x2="-5" y2="0" stroke="#888" stroke-width="1" opacity="1"/><line transform="translate(0,390)" x2="-5" y2="0" stroke="#888" stroke-width="1" opacity="1"/><line transform="translate(0,410)" x2="-5" y2="0" stroke="#888" stroke-width="1" opacity="1"/><line transform="translate(0,430)" x2="-5" y2="0" stroke="#888" stroke-width="1" opacity="1"/><line transform="translate(0,450)" x2="-5" y2="0" stroke="#888" stroke-width="1" opacity="1"/><line transform="translate(0,470)" x2="-5" y2="0" stroke="#888" stroke-width="1" opacity="1"/><line transform="translate(0,490)" x2="-5" y2="0" stroke="#888" stroke-width="1" opacity="1"/><line transform="translate(0,510)" x2="-5" y2="0" stroke="#888" stroke-width="1" opacity="1"/><line transform="translate(0,530)" x2="-5" y2="0" stroke="#888" stroke-width="1" opacity="1"/><line transform="translate(0,550)" x2="-5" y2="0" stroke="#888" stroke-width="1" opacity="1"/><line transform="translate(0,570)" x2="-5" y2="0" stroke="#888" stroke-width="1" opacity="1"/><line transform="translate(0,590)" x2="-5" y2="0" stroke="#888" stroke-width="1" opacity="1"/><line transform="translate(0,610)" x2="-5" y2="0" stroke="#888" stroke-width="1" opacity="1"/><line transform="translate(0,630)" x2="-5" y2="0" stroke="#888" stroke-width="1" opacity="1"/><line transform="translate(0,650)" x2="-5" y2="0" stroke="#888" stroke-width="1" opacity="1"/><line transform="translate(0,670)" x2="-5" y2="0" stroke="#888" stroke-width="1" opacity="1"/><line transform="translate(0,690)" x2="-5" y2="0" stroke="#888" stroke-width="1" opacity="1"/><line transform="translate(0,710)" x2="-5" y2="0" stroke="#888" stroke-width="1" opacity="1"/><line transform="translate(0,730)" x2="-5" y2="0" stroke="#888" stroke-width="1" opacity="1"/><line transform="translate(0,750)" x2="-5" y2="0" stroke="#888" stroke-width="1" opacity="1"/><line transform="translate(0,770)" x2="-5" y2="0" stroke="#888" stroke-width="1" opacity="1"/><line transform="translate(0,790)" x2="-5" y2="0" stroke="#888" stroke-width="1" opacity="1"/><line transform="translate(0,810)" x2="-5" y2="0" stroke="#888" stroke-width="1" opacity="1"/><line transform="translate(0,830)" x2="-5" y2="0" stroke="#888" stroke-width="1" opacity="1"/><line transform="translate(0,850)" x2="-5" y2="0" stroke="#888" stroke-width="1" opacity="1"/><line transform="translate(0,870)" x2="-5" y2="0" stroke="#888" stroke-width="1" opacity="1"/><line transform="translate(0,890)" x2="-5" y2="0" stroke="#888" stroke-width="1" opacity="1"/><line transform="translate(0,910)" x2="-5" y2="0" stroke="#888" stroke-width="1" opacity="1"/><line transform="translate(0,930)" x2="-5" y2="0" stroke="#888" stroke-width="1" opacity="1"/><line transform="translate(0,950)" x2="-5" y2="0" stroke="#888" stroke-width="1" opacity="1"/><line transform="translate(0,970)" x2="-5" y2="0" stroke="#888" stroke-width="1" opacity="1"/><line transform="translate(0,990)" x2="-5" y2="0" stroke="#888" stroke-width="1" opacity="1"/><line transform="translate(0,1010)" x2="-5" y2="0" stroke="#888" stroke-width="1" opacity="1"/><line transform="translate(0,1030)" x2="-5" y2="0" stroke="#888" stroke-width="1" opacity="1"/></g><g class="mark-text role-axis-label" pointer-events="none"><text text-anchor="end" transform="translate(-7,12.5)" font-family="sans-serif" font-size="10px" fill="#000" opacity="1">CA</text><text text-anchor="end" transform="translate(-7,32.5)" font-family="sans-serif" font-size="10px" fill="#000" opacity="1">TX</text><text text-anchor="end" transform="translate(-7,52.5)" font-family="sans-serif" font-size="10px" fill="#000" opacity="1">FL</text><text text-anchor="end" transform="translate(-7,72.5)" font-family="sans-serif" font-size="10px" fill="#000" opacity="1">IL</text><text text-anchor="end" transform="translate(-7,92.5)" font-family="sans-serif" font-size="10px" fill="#000" opacity="1">GA</text><text text-anchor="end" transform="translate(-7,112.5)" font-family="sans-serif" font-size="10px" fill="#000" opacity="1">NY</text><text text-anchor="end" transform="translate(-7,132.5)" font-family="sans-serif" font-size="10px" fill="#000" opacity="1">CO</text><text text-anchor="end" transform="translate(-7,152.5)" font-family="sans-serif" font-size="10px" fill="#000" opacity="1">AZ</text><text text-anchor="end" transform="translate(-7,172.5)" font-family="sans-serif" font-size="10px" fill="#000" opacity="1">NC</text><text text-anchor="end" transform="translate(-7,192.5)" font-family="sans-serif" font-size="10px" fill="#000" opacity="1">VA</text><text text-anchor="end" transform="translate(-7,212.5)" font-family="sans-serif" font-size="10px" fill="#000" opacity="1">MI</text><text text-anchor="end" transform="translate(-7,232.5)" font-family="sans-serif" font-size="10px" fill="#000" opacity="1">NV</text><text text-anchor="end" transform="translate(-7,252.5)" font-family="sans-serif" font-size="10px" fill="#000" opacity="1">TN</text><text text-anchor="end" transform="translate(-7,272.5)" font-family="sans-serif" font-size="10px" fill="#000" opacity="1">PA</text><text text-anchor="end" transform="translate(-7,292.5)" font-family="sans-serif" font-size="10px" fill="#000" opacity="1">UT</text><text text-anchor="end" transform="translate(-7,312.5)" font-family="sans-serif" font-size="10px" fill="#000" opacity="1">NJ</text><text text-anchor="end" transform="translate(-7,332.5)" font-family="sans-serif" font-size="10px" fill="#000" opacity="1">MN</text><text text-anchor="end" transform="translate(-7,352.5)" font-family="sans-serif" font-size="10px" fill="#000" opacity="1">MO</text><text text-anchor="end" transform="translate(-7,372.5)" font-family="sans-serif" font-size="10px" fill="#000" opacity="1">WA</text><text text-anchor="end" transform="translate(-7,392.5)" font-family="sans-serif" font-size="10px" fill="#000" opacity="1">OH</text><text text-anchor="end" transform="translate(-7,412.5)" font-family="sans-serif" font-size="10px" fill="#000" opacity="1">KY</text><text text-anchor="end" transform="translate(-7,432.5)" font-family="sans-serif" font-size="10px" fill="#000" opacity="1">MA</text><text text-anchor="end" transform="translate(-7,452.5)" font-family="sans-serif" font-size="10px" fill="#000" opacity="1">HI</text><text text-anchor="end" transform="translate(-7,472.5)" font-family="sans-serif" font-size="10px" fill="#000" opacity="1">MD</text><text text-anchor="end" transform="translate(-7,492.5)" font-family="sans-serif" font-size="10px" fill="#000" opacity="1">WI</text><text text-anchor="end" transform="translate(-7,512.5)" font-family="sans-serif" font-size="10px" fill="#000" opacity="1">OR</text><text text-anchor="end" transform="translate(-7,532.5)" font-family="sans-serif" font-size="10px" fill="#000" opacity="1">LA</text><text text-anchor="end" transform="translate(-7,552.5)" font-family="sans-serif" font-size="10px" fill="#000" opacity="1">IN</text><text text-anchor="end" transform="translate(-7,572.5)" font-family="sans-serif" font-size="10px" fill="#000" opacity="1">OK</text><text text-anchor="end" transform="translate(-7,592.5)" font-family="sans-serif" font-size="10px" fill="#000" opacity="1">AL</text><text text-anchor="end" transform="translate(-7,612.5)" font-family="sans-serif" font-size="10px" fill="#000" opacity="1">SC</text><text text-anchor="end" transform="translate(-7,632.5)" font-family="sans-serif" font-size="10px" fill="#000" opacity="1">NM</text><text text-anchor="end" transform="translate(-7,652.5)" font-family="sans-serif" font-size="10px" fill="#000" opacity="1">AK</text><text text-anchor="end" transform="translate(-7,672.5)" font-family="sans-serif" font-size="10px" fill="#000" opacity="1">AR</text><text text-anchor="end" transform="translate(-7,692.5)" font-family="sans-serif" font-size="10px" fill="#000" opacity="1">NE</text><text text-anchor="end" transform="translate(-7,712.5)" font-family="sans-serif" font-size="10px" fill="#000" opacity="1">CT</text><text text-anchor="end" transform="translate(-7,732.5)" font-family="sans-serif" font-size="10px" fill="#000" opacity="1">IA</text><text text-anchor="end" transform="translate(-7,752.5)" font-family="sans-serif" font-size="10px" fill="#000" opacity="1">ID</text><text text-anchor="end" transform="translate(-7,772.5)" font-family="sans-serif" font-size="10px" fill="#000" opacity="1">PR</text><text text-anchor="end" transform="translate(-7,792.5)" font-family="sans-serif" font-size="10px" fill="#000" opacity="1">MS</text><text text-anchor="end" transform="translate(-7,812.5)" font-family="sans-serif" font-size="10px" fill="#000" opacity="1">RI</text><text text-anchor="end" transform="translate(-7,832.5)" font-family="sans-serif" font-size="10px" fill="#000" opacity="1">MT</text><text text-anchor="end" transform="translate(-7,852.5)" font-family="sans-serif" font-size="10px" fill="#000" opacity="1">NH</text><text text-anchor="end" transform="translate(-7,872.5)" font-family="sans-serif" font-size="10px" fill="#000" opacity="1">KS</text><text text-anchor="end" transform="translate(-7,892.5)" font-family="sans-serif" font-size="10px" fill="#000" opacity="1">SD</text><text text-anchor="end" transform="translate(-7,912.5)" font-family="sans-serif" font-size="10px" fill="#000" opacity="1">ME</text><text text-anchor="end" transform="translate(-7,932.5)" font-family="sans-serif" font-size="10px" fill="#000" opacity="1">WY</text><text text-anchor="end" transform="translate(-7,952.5)" font-family="sans-serif" font-size="10px" fill="#000" opacity="1">ND</text><text text-anchor="end" transform="translate(-7,972.5)" font-family="sans-serif" font-size="10px" fill="#000" opacity="1">VT</text><text text-anchor="end" transform="translate(-7,992.5)" font-family="sans-serif" font-size="10px" fill="#000" opacity="1">NA</text><text text-anchor="end" transform="translate(-7,1012.5)" font-family="sans-serif" font-size="10px" fill="#000" opacity="1">WV</text><text text-anchor="end" transform="translate(-7,1032.5)" font-family="sans-serif" font-size="10px" fill="#000" opacity="1">VI</text></g><g class="mark-rule role-axis-domain" pointer-events="none"><line transform="translate(0,0)" x2="0" y2="1040" stroke="#888" stroke-width="1" opacity="1"/></g><g class="mark-text role-axis-title" pointer-events="none"><text text-anchor="middle" transform="translate(-27.1083984375,520) rotate(-90) translate(0,-2)" font-family="sans-serif" font-size="11px" font-weight="bold" fill="#000" opacity="1">origin_state</text></g></g><path class="foreground" aria-hidden="true" d="" pointer-events="none" display="none"/></g></g><g class="mark-rect role-mark marks" role="graphics-object" aria-roledescription="rect mark container"><path aria-label="Count of Records: 747650; origin_state: TX" role="graphics-symbol" aria-roledescription="bar" d="M0,21h332.2888888888889v18h-332.2888888888889Z" fill="steelblue"/><path aria-label="Count of Records: 210702; origin_state: VA" role="graphics-symbol" aria-roledescription="bar" d="M0,181h93.64533333333334v18h-93.64533333333334Z" fill="steelblue"/><path aria-label="Count of Records: 60057; origin_state: IN" role="graphics-symbol" aria-roledescription="bar" d="M0,541h26.692v18h-26.692Z" fill="steelblue"/><path aria-label="Count of Records: 331333; origin_state: NY" role="graphics-symbol" aria-roledescription="bar" d="M0,101h147.2591111111111v18h-147.2591111111111Z" fill="steelblue"/><path aria-label="Count of Records: 22798; origin_state: MS" role="graphics-symbol" aria-roledescription="bar" d="M0,781h10.132444444444443v18h-10.132444444444443Z" fill="steelblue"/><path aria-label="Count of Records: 466998; origin_state: FL" role="graphics-symbol" aria-roledescription="bar" d="M0,41h207.5546666666667v18h-207.5546666666667Z" fill="steelblue"/><path aria-label="Count of Records: 198742; origin_state: NV" role="graphics-symbol" aria-roledescription="bar" d="M0,221h88.32977777777778v18h-88.32977777777778Z" fill="steelblue"/><path aria-label="Count of Records: 824597; origin_state: CA" role="graphics-symbol" aria-roledescription="bar" d="M0,1h366.48755555555556v18h-366.48755555555556Z" fill="steelblue"/><path aria-label="Count of Records: 33668; origin_state: AR" role="graphics-symbol" aria-roledescription="bar" d="M0,661h14.963555555555555v18h-14.963555555555555Z" fill="steelblue"/><path aria-label="Count of Records: 132190; origin_state: MO" role="graphics-symbol" aria-roledescription="bar" d="M0,341h58.75111111111111v18h-58.75111111111111Z" fill="steelblue"/><path aria-label="Count of Records: 461237; origin_state: IL" role="graphics-symbol" aria-roledescription="bar" d="M0,61h204.99422222222222v18h-204.99422222222222Z" fill="steelblue"/><path aria-label="Count of Records: 18588; origin_state: NH" role="graphics-symbol" aria-roledescription="bar" d="M0,841h8.261333333333333v18h-8.261333333333333Z" fill="steelblue"/><path aria-label="Count of Records: 67181; origin_state: LA" role="graphics-symbol" aria-roledescription="bar" d="M0,521h29.858222222222224v18h-29.858222222222224Z" fill="steelblue"/><path aria-label="Count of Records: 50980; origin_state: OK" role="graphics-symbol" aria-roledescription="bar" d="M0,561h22.657777777777778v18h-22.657777777777778Z" fill="steelblue"/><path aria-label="Count of Records: 30044; origin_state: NE" role="graphics-symbol" aria-roledescription="bar" d="M0,681h13.35288888888889v18h-13.35288888888889Z" fill="steelblue"/><path aria-label="Count of Records: 74207; origin_state: OR" role="graphics-symbol" aria-roledescription="bar" d="M0,501h32.980888888888884v18h-32.980888888888884Z" fill="steelblue"/><path aria-label="Count of Records: 158485; origin_state: PA" role="graphics-symbol" aria-roledescription="bar" d="M0,261h70.43777777777778v18h-70.43777777777778Z" fill="steelblue"/><path aria-label="Count of Records: 231811; origin_state: AZ" role="graphics-symbol" aria-roledescription="bar" d="M0,141h103.02711111111111v18h-103.02711111111111Z" fill="steelblue"/><path aria-label="Count of Records: 22509; origin_state: RI" role="graphics-symbol" aria-roledescription="bar" d="M0,801h10.004v18h-10.004Z" fill="steelblue"/><path aria-label="Count of Records: 211820; origin_state: NC" role="graphics-symbol" aria-roledescription="bar" d="M0,161h94.14222222222223v18h-94.14222222222223Z" fill="steelblue"/><path aria-label="Count of Records: 124067; origin_state: KY" role="graphics-symbol" aria-roledescription="bar" d="M0,401h55.14088888888888v18h-55.14088888888888Z" fill="steelblue"/><path aria-label="Count of Records: 127630; origin_state: WA" role="graphics-symbol" aria-roledescription="bar" d="M0,361h56.724444444444444v18h-56.724444444444444Z" fill="steelblue"/><path aria-label="Count of Records: 143075; origin_state: UT" role="graphics-symbol" aria-roledescription="bar" d="M0,281h63.58888888888888v18h-63.58888888888888Z" fill="steelblue"/><path aria-label="Count of Records: 42107; origin_state: NM" role="graphics-symbol" aria-roledescription="bar" d="M0,621h18.714222222222222v18h-18.714222222222222Z" fill="steelblue"/><path aria-label="Count of Records: 29449; origin_state: CT" role="graphics-symbol" aria-roledescription="bar" d="M0,701h13.088444444444445v18h-13.088444444444445Z" fill="steelblue"/><path aria-label="Count of Records: 46066; origin_state: AL" role="graphics-symbol" aria-roledescription="bar" d="M0,581h20.473777777777777v18h-20.473777777777777Z" fill="steelblue"/><path aria-label="Count of Records: 159197; origin_state: TN" role="graphics-symbol" aria-roledescription="bar" d="M0,241h70.75422222222223v18h-70.75422222222223Z" fill="steelblue"/><path aria-label="Count of Records: 27122; origin_state: ID" role="graphics-symbol" aria-roledescription="bar" d="M0,741h12.054222222222222v18h-12.054222222222222Z" fill="steelblue"/><path aria-label="Count of Records: 104074; origin_state: MD" role="graphics-symbol" aria-roledescription="bar" d="M0,461h46.25511111111111v18h-46.25511111111111Z" fill="steelblue"/><path aria-label="Count of Records: 126215; origin_state: OH" role="graphics-symbol" aria-roledescription="bar" d="M0,381h56.095555555555556v18h-56.095555555555556Z" fill="steelblue"/><path aria-label="Count of Records: 280855; origin_state: CO" role="graphics-symbol" aria-roledescription="bar" d="M0,121h124.82444444444445v18h-124.82444444444445Z" fill="steelblue"/><path aria-label="Count of Records: 203129; origin_state: MI" role="graphics-symbol" aria-roledescription="bar" d="M0,201h90.27955555555556v18h-90.27955555555556Z" fill="steelblue"/><path aria-label="Count of Records: 138622; origin_state: NJ" role="graphics-symbol" aria-roledescription="bar" d="M0,301h61.60977777777777v18h-61.60977777777777Z" fill="steelblue"/><path aria-label="Count of Records: 75253; origin_state: WI" role="graphics-symbol" aria-roledescription="bar" d="M0,481h33.44577777777778v18h-33.44577777777778Z" fill="steelblue"/><path aria-label="Count of Records: 42537; origin_state: SC" role="graphics-symbol" aria-roledescription="bar" d="M0,601h18.90533333333333v18h-18.90533333333333Z" fill="steelblue"/><path aria-label="Count of Records: 3757; origin_state: WV" role="graphics-symbol" aria-roledescription="bar" d="M0,1001h1.6697777777777776v18h-1.6697777777777776Z" fill="steelblue"/><path aria-label="Count of Records: 14050; origin_state: KS" role="graphics-symbol" aria-roledescription="bar" d="M0,861h6.2444444444444445v18h-6.2444444444444445Z" fill="steelblue"/><path aria-label="Count of Records: 7005; origin_state: VT" role="graphics-symbol" aria-roledescription="bar" d="M0,961h3.1133333333333333v18h-3.1133333333333333Z" fill="steelblue"/><path aria-label="Count of Records: 27814; origin_state: IA" role="graphics-symbol" aria-roledescription="bar" d="M0,721h12.361777777777776v18h-12.361777777777776Z" fill="steelblue"/><path aria-label="Count of Records: 9776; origin_state: ME" role="graphics-symbol" aria-roledescription="bar" d="M0,901h4.344888888888889v18h-4.344888888888889Z" fill="steelblue"/><path aria-label="Count of Records: 135801; origin_state: MN" role="graphics-symbol" aria-roledescription="bar" d="M0,321h60.356v18h-60.356Z" fill="steelblue"/><path aria-label="Count of Records: 435781; origin_state: GA" role="graphics-symbol" aria-roledescription="bar" d="M0,81h193.68044444444445v18h-193.68044444444445Z" fill="steelblue"/><path aria-label="Count of Records: 118372; origin_state: MA" role="graphics-symbol" aria-roledescription="bar" d="M0,421h52.60977777777778v18h-52.60977777777778Z" fill="steelblue"/><path aria-label="Count of Records: 4775; origin_state: NA" role="graphics-symbol" aria-roledescription="bar" d="M0,981h2.1222222222222222v18h-2.1222222222222222Z" fill="steelblue"/><path aria-label="Count of Records: 9663; origin_state: WY" role="graphics-symbol" aria-roledescription="bar" d="M0,921h4.294666666666667v18h-4.294666666666667Z" fill="steelblue"/><path aria-label="Count of Records: 9994; origin_state: SD" role="graphics-symbol" aria-roledescription="bar" d="M0,881h4.441777777777778v18h-4.441777777777778Z" fill="steelblue"/><path aria-label="Count of Records: 110161; origin_state: HI" role="graphics-symbol" aria-roledescription="bar" d="M0,441h48.96044444444445v18h-48.96044444444445Z" fill="steelblue"/><path aria-label="Count of Records: 20280; origin_state: MT" role="graphics-symbol" aria-roledescription="bar" d="M0,821h9.013333333333334v18h-9.013333333333334Z" fill="steelblue"/><path aria-label="Count of Records: 9180; origin_state: ND" role="graphics-symbol" aria-roledescription="bar" d="M0,941h4.08v18h-4.08Z" fill="steelblue"/><path aria-label="Count of Records: 23950; origin_state: PR" role="graphics-symbol" aria-roledescription="bar" d="M0,761h10.644444444444444v18h-10.644444444444444Z" fill="steelblue"/><path aria-label="Count of Records: 3408; origin_state: VI" role="graphics-symbol" aria-roledescription="bar" d="M0,1021h1.5146666666666666v18h-1.5146666666666666Z" fill="steelblue"/><path aria-label="Count of Records: 40966; origin_state: AK" role="graphics-symbol" aria-roledescription="bar" d="M0,641h18.20711111111111v18h-18.20711111111111Z" fill="steelblue"/></g><g class="mark-group role-title"><g transform="translate(200,-17)"><path class="background" aria-hidden="true" d="M0,0h0v0h0Z" pointer-events="none"/><g><g class="mark-text role-title-text" role="graphics-symbol" aria-roledescription="title" aria-label="Title text 'Total Number of Flights by State'" pointer-events="none"><text text-anchor="middle" transform="translate(0,10)" font-family="sans-serif" font-size="13px" font-weight="bold" fill="#000" opacity="1">Total Number of Flights by State</text></g></g><path class="foreground" aria-hidden="true" d="" pointer-events="none" display="none"/></g></g></g><path class="foreground" aria-hidden="true" d="" display="none"/></g></g></g></svg>