<svg xmlns="http://www.w3.org/2000/svg" xmlns:xlink="http://www.w3.org/1999/xlink" version="1.1" class="marks" width="425" height="342" viewBox="0 0 425 342"><rect width="425" height="342" fill="white"/><g fill="none" stroke-miterlimit="10" transform="translate(20,22)"><g class="mark-group role-frame root" role="graphics-object" aria-roledescription="group mark container"><g transform="translate(0,0)"><path class="background" aria-hidden="true" d="M0.5,0.5h400v300h-400Z" stroke="#ddd"/><g><g class="mark-group role-axis" aria-hidden="true"><g transform="translate(0.5,300.5)"><path class="background" aria-hidden="true" d="M0,0h0v0h0Z" pointer-events="none"/><g><g class="mark-rule role-axis-grid" pointer-events="none"><line transform="translate(0,-300)" x2="0" y2="300" stroke="#ddd" stroke-width="1" opacity="1"/><line transform="translate(44,-300)" x2="0" y2="300" stroke="#ddd" stroke-width="1" opacity="1"/><line transform="translate(89,-300)" x2="0" y2="300" stroke="#ddd" stroke-width="1" opacity="1"/><line transform="translate(133,-300)" x2="0" y2="300" stroke="#ddd" stroke-width="1" opacity="1"/><line transform="translate(178,-300)" x2="0" y2="300" stroke="#ddd" stroke-width="1" opacity="1"/><line transform="translate(222,-300)" x2="0" y2="300" stroke="#ddd" stroke-width="1" opacity="1"/><line transform="translate(267,-300)" x2="0" y2="300" stroke="#ddd" stroke-width="1" opacity="1"/><line transform="translate(311,-300)" x2="0" y2="300" stroke="#ddd" stroke-width="1" opacity="1"/><line transform="translate(356,-300)" x2="0" y2="300" stroke="#ddd" stroke-width="1" opacity="1"/><line transform="translate(400,-300)" x2="0" y2="300" stroke="#ddd" stroke-width="1" opacity="1"/></g></g><path class="foreground" aria-hidden="true" d="" pointer-events="none" display="none"/></g></g><g class="mark-group role-axis" aria-hidden="true"><g transform="translate(0.5,0.5)"><path class="background" aria-hidden="true" d="M0,0h0v0h0Z" pointer-events="none"/><g><g class="mark-rule role-axis-grid" pointer-events="none"><line transform="translate(0,300)" x2="400" y2="0" stroke="#ddd" stroke-width="1" opacity="1"/><line transform="translate(0,267)" x2="400" y2="0" stroke="#ddd" stroke-width="1" opacity="1"/><line transform="translate(0,233)" x2="400" y2="0" stroke="#ddd" stroke-width="1" opacity="1"/><line transform="translate(0,200)" x2="400" y2="0" stroke="#ddd" stroke-width="1" opacity="1"/><line transform="translate(0,167)" x2="400" y2="0" stroke="#ddd" stroke-width="1" opacity="1"/><line transform="translate(0,133)" x2="400" y2="0" stroke="#ddd" stroke-width="1" opacity="1"/><line transform="translate(0,100)" x2="400" y2="0" stroke="#ddd" stroke-width="1" opacity="1"/><line transform="translate(0,67)" x2="400" y2="0" stroke="#ddd" stroke-width="1" opacity="1"/><line transform="translate(0,33)" x2="400" y2="0" stroke="#ddd" stroke-width="1" opacity="1"/><line transform="translate(0,0)" x2="400" y2="0" stroke="#ddd" stroke-width="1" opacity="1"/></g></g><path class="foreground" aria-hidden="true" d="" pointer-events="none" display="none"/></g></g><g class="mark-group role-axis" role="graphics-symbol" aria-roledescription="axis" aria-label="X-axis titled 'depdelay' for a linear scale with values from −2 to 16"><g transform="translate(0.5,300.5)"><path class="background" aria-hidden="true" d="M0,0h0v0h0Z" pointer-events="none"/><g><g class="mark-rule role-axis-tick" pointer-events="none"><line transform="translate(0,0)" x2="0" y2="5" stroke="#888" stroke-width="1" opacity="1"/><line transform="translate(44,0)" x2="0" y2="5" stroke="#888" stroke-width="1" opacity="1"/><line transform="translate(89,0)" x2="0" y2="5" stroke="#888" stroke-width="1" opacity="1"/><line transform="translate(133,0)" x2="0" y2="5" stroke="#888" stroke-width="1" opacity="1"/><line transform="translate(178,0)" x2="0" y2="5" stroke="#888" stroke-width="1" opacity="1"/><line transform="translate(222,0)" x2="0" y2="5" stroke="#888" stroke-width="1" opacity="1"/><line transform="translate(267,0)" x2="0" y2="5" stroke="#888" stroke-width="1" opacity="1"/><line transform="translate(311,0)" x2="0" y2="5" stroke="#888" stroke-width="1" opacity="1"/><line transform="translate(356,0)" x2="0" y2="5" stroke="#888" stroke-width="1" opacity="1"/><line transform="translate(400,0)" x2="0" y2="5" stroke="#888" stroke-width="1" opacity="1"/></g><g class="mark-text role-axis-label" pointer-events="none"><text text-anchor="start" transform="translate(0,15)" font-family="sans-serif" font-size="10px" fill="#000" opacity="1">−2</text><text text-anchor="middle" transform="translate(44.44444444444444,15)" font-family="sans-serif" font-size="10px" fill="#000" opacity="1">0</text><text text-anchor="middle" transform="translate(88.88888888888889,15)" font-family="sans-serif" font-size="10px" fill="#000" opacity="1">2</text><text text-anchor="middle" transform="translate(133.33333333333331,15)" font-family="sans-serif" font-size="10px" fill="#000" opacity="1">4</text><text text-anchor="middle" transform="translate(177.77777777777777,15)" font-family="sans-serif" font-size="10px" fill="#000" opacity="1">6</text><text text-anchor="middle" transform="translate(222.22222222222223,15)" font-family="sans-serif" font-size="10px" fill="#000" opacity="1">8</text><text text-anchor="middle" transform="translate(266.66666666666663,15)" font-family="sans-serif" font-size="10px" fill="#000" opacity="1">10</text><text text-anchor="middle" transform="translate(311.11111111111114,15)" font-family="sans-serif" font-size="10px" fill="#000" opacity="1">12</text><text text-anchor="middle" transform="translate(355.55555555555554,15)" font-family="sans-serif" font-size="10px" fill="#000" opacity="1">14</text><text text-anchor="end" transform="translate(400,15)" font-family="sans-serif" font-size="10px" fill="#000" opacity="1">16</text></g><g class="mark-rule role-axis-domain" pointer-events="none"><line transform="translate(0,0)" x2="400" y2="0" stroke="#888" stroke-width="1" opacity="1"/></g><g class="mark-text role-axis-title" pointer-events="none"><text text-anchor="middle" transform="translate(200,30)" font-family="sans-serif" font-size="11px" font-weight="bold" fill="#000" opacity="1">depdelay</text></g></g><path class="foreground" aria-hidden="true" d="" pointer-events="none" display="none"/></g></g><g class="mark-group role-axis" role="graphics-symbol" aria-roledescription="axis" aria-label="Y-axis titled 'arrdelay' for a linear scale with values from −4 to 14"><g transform="translate(0.5,0.5)"><path class="background" aria-hidden="true" d="M0,0h0v0h0Z" pointer-events="none"/><g><g class="mark-rule role-axis-tick" pointer-events="none"><line transform="translate(0,300)" x2="-5" y2="0" stroke="#888" stroke-width="1" opacity="1"/><line transform="translate(0,267)" x2="-5" y2="0" stroke="#888" stroke-width="1" opacity="1"/><line transform="translate(0,233)" x2="-5" y2="0" stroke="#888" stroke-width="1" opacity="1"/><line transform="translate(0,200)" x2="-5" y2="0" stroke="#888" stroke-width="1" opacity="1"/><line transform="translate(0,167)" x2="-5" y2="0" stroke="#888" stroke-width="1" opacity="1"/><line transform="translate(0,133)" x2="-5" y2="0" stroke="#888" stroke-width="1" opacity="1"/><line transform="translate(0,100)" x2="-5" y2="0" stroke="#888" stroke-width="1" opacity="1"/><line transform="translate(0,67)" x2="-5" y2="0" stroke="#888" stroke-width="1" opacity="1"/><line transform="translate(0,33)" x2="-5" y2="0" stroke="#888" stroke-width="1" opacity="1"/><line transform="translate(0,0)" x2="-5" y2="0" stroke="#888" stroke-width="1" opacity="1"/></g><g class="mark-text role-axis-label" pointer-events="none"><text text-anchor="end" transform="translate(-7,303)" font-family="sans-serif" font-size="10px" fill="#000" opacity="1">−4</text><text text-anchor="end" transform="translate(-7,269.66666666666663)" font-family="sans-serif" font-size="10px" fill="#000" opacity="1">−2</text><text text-anchor="end" transform="translate(-7,236.33333333333334)" font-family="sans-serif" font-size="10px" fill="#000" opacity="1">0</text><text text-anchor="end" transform="translate(-7,203.00000000000003)" font-family="sans-serif" font-size="10px" fill="#000" opacity="1">2</text><text text-anchor="end" transform="translate(-7,169.66666666666669)" font-family="sans-serif" font-size="10px" fill="#000" opacity="1">4</text><text text-anchor="end" transform="translate(-7,136.33333333333331)" font-family="sans-serif" font-size="10px" fill="#000" opacity="1">6</text><text text-anchor="end" transform="translate(-7,103.00000000000001)" font-family="sans-serif" font-size="10px" fill="#000" opacity="1">8</text><text text-anchor="end" transform="translate(-7,69.66666666666666)" font-family="sans-serif" font-size="10px" fill="#000" opacity="1">10</text><text text-anchor="end" transform="translate(-7,36.33333333333335)" font-family="sans-serif" font-size="10px" fill="#000" opacity="1">12</text><text text-anchor="end" transform="translate(-7,3)" font-family="sans-serif" font-size="10px" fill="#000" opacity="1">14</text></g><g class="mark-rule role-axis-domain" pointer-events="none"><line transform="translate(0,300)" x2="0" y2="-300" stroke="#888" stroke-width="1" opacity="1"/></g><g class="mark-text role-axis-title" pointer-events="none"><text text-anchor="middle" transform="translate(-22.4013671875,150) rotate(-90) translate(0,-2)" font-family="sans-serif" font-size="11px" font-weight="bold" fill="#000" opacity="1">arrdelay</text></g></g><path class="foreground" aria-hidden="true" d="" pointer-events="none" display="none"/></g></g><g class="mark-symbol role-mark layer_0_marks" role="graphics-object" aria-roledescription="symbol mark container"><path aria-label="carrier_name: Southwest Airlines; depdelay: 10.3230806691; arrdelay: 5.17967817301" role="graphics-symbol" aria-roledescription="point" transform="translate(273.84623709032195,147.00536378324352)" d="M7.0710678118654755,0A7.0710678118654755,7.0710678118654755,0,1,1,-7.0710678118654755,0A7.0710678118654755,7.0710678118654755,0,1,1,7.0710678118654755,0" fill="steelblue" stroke-width="2" opacity="0.7"/><path aria-label="carrier_name: Expressjet Airlines; depdelay: 11.3288701041; arrdelay: 10.6354048" role="graphics-symbol" aria-roledescription="point" transform="translate(296.1971134237475,56.07658666607964)" d="M7.0710678118654755,0A7.0710678118654755,7.0710678118654755,0,1,1,-7.0710678118654755,0A7.0710678118654755,7.0710678118654755,0,1,1,7.0710678118654755,0" fill="steelblue" stroke-width="2" opacity="0.7"/><path aria-label="carrier_name: Mesa Airlines; depdelay: 11.952743635; arrdelay: 11.7751814336" role="graphics-symbol" aria-roledescription="point" transform="translate(310.06096966746577,37.080309439986515)" d="M7.0710678118654755,0A7.0710678118654755,7.0710678118654755,0,1,1,-7.0710678118654755,0A7.0710678118654755,7.0710678118654755,0,1,1,7.0710678118654755,0" fill="steelblue" stroke-width="2" opacity="0.7"/><path aria-label="carrier_name: Comair; depdelay: 11.5101497155; arrdelay: 11.817467684" role="graphics-symbol" aria-roledescription="point" transform="translate(300.2255492336511,36.375538600033195)" d="M7.0710678118654755,0A7.0710678118654755,7.0710678118654755,0,1,1,-7.0710678118654755,0A7.0710678118654755,7.0710678118654755,0,1,1,7.0710678118654755,0" fill="steelblue" stroke-width="2" opacity="0.7"/><path aria-label="carrier_name: Skywest Airlines; depdelay: 7.406290431; arrdelay: 6.59888473687" role="graphics-symbol" aria-roledescription="point" transform="translate(209.02867624442146,123.35192105218779)" d="M7.0710678118654755,0A7.0710678118654755,7.0710678118654755,0,1,1,-7.0710678118654755,0A7.0710678118654755,7.0710678118654755,0,1,1,7.0710678118654755,0" fill="steelblue" stroke-width="2" opacity="0.7"/><path aria-label="carrier_name: United Air Lines; depdelay: 14.0642793376; arrdelay: 11.2913221867" role="graphics-symbol" aria-roledescription="point" transform="translate(356.98398527986245,45.14463022199694)" d="M7.0710678118654755,0A7.0710678118654755,7.0710678118654755,0,1,1,-7.0710678118654755,0A7.0710678118654755,7.0710678118654755,0,1,1,7.0710678118654755,0" fill="steelblue" stroke-width="2" opacity="0.7"/><path aria-label="carrier_name: US Airways; depdelay: 5.68722847164; arrdelay: 2.84811000569" role="graphics-symbol" aria-roledescription="point" transform="translate(170.8272993697777,185.86483323843385)" d="M7.0710678118654755,0A7.0710678118654755,7.0710678118654755,0,1,1,-7.0710678118654755,0A7.0710678118654755,7.0710678118654755,0,1,1,7.0710678118654755,0" fill="steelblue" stroke-width="2" opacity="0.7"/><path aria-label="carrier_name: Delta Air Lines; depdelay: 7.9754738317; arrdelay: 7.85516315488" role="graphics-symbol" aria-roledescription="point" transform="translate(221.6771962599045,102.41394741861026)" d="M7.0710678118654755,0A7.0710678118654755,7.0710678118654755,0,1,1,-7.0710678118654755,0A7.0710678118654755,7.0710678118654755,0,1,1,7.0710678118654755,0" fill="steelblue" stroke-width="2" opacity="0.7"/><path aria-label="carrier_name: Atlantic Southeast Airlines; depdelay: 11.922875427; arrdelay: 10.2080024157" role="graphics-symbol" aria-roledescription="point" transform="translate(309.39723171166014,63.199959738103615)" d="M7.0710678118654755,0A7.0710678118654755,7.0710678118654755,0,1,1,-7.0710678118654755,0A7.0710678118654755,7.0710678118654755,0,1,1,7.0710678118654755,0" fill="steelblue" stroke-width="2" opacity="0.7"/><path aria-label="carrier_name: Frontier Airlines; depdelay: 5.9031074394; arrdelay: 6.10824666611" role="graphics-symbol" aria-roledescription="point" transform="translate(175.62460976450743,131.5292222315413)" d="M7.0710678118654755,0A7.0710678118654755,7.0710678118654755,0,1,1,-7.0710678118654755,0A7.0710678118654755,7.0710678118654755,0,1,1,7.0710678118654755,0" fill="steelblue" stroke-width="2" opacity="0.7"/><path aria-label="carrier_name: AirTran Airways Corporation; depdelay: 9.22981837016; arrdelay: 9.09137538508" role="graphics-symbol" aria-roledescription="point" transform="translate(249.55151933695726,81.81041024867967)" d="M7.0710678118654755,0A7.0710678118654755,7.0710678118654755,0,1,1,-7.0710678118654755,0A7.0710678118654755,7.0710678118654755,0,1,1,7.0710678118654755,0" fill="steelblue" stroke-width="2" opacity="0.7"/><path aria-label="carrier_name: Hawaiian Airlines; depdelay: 0.439211265765; arrdelay: 1.26440893942" role="graphics-symbol" aria-roledescription="point" transform="translate(54.20469479477518,212.259851009606)" d="M7.0710678118654755,0A7.0710678118654755,7.0710678118654755,0,1,1,-7.0710678118654755,0A7.0710678118654755,7.0710678118654755,0,1,1,7.0710678118654755,0" fill="steelblue" stroke-width="2" opacity="0.7"/><path aria-label="carrier_name: American Eagle Airlines; depdelay: 10.6288996755; arrdelay: 9.89066794578" role="graphics-symbol" aria-roledescription="point" transform="translate(280.6422150107217,68.4888675703917)" d="M7.0710678118654755,0A7.0710678118654755,7.0710678118654755,0,1,1,-7.0710678118654755,0A7.0710678118654755,7.0710678118654755,0,1,1,7.0710678118654755,0" fill="steelblue" stroke-width="2" opacity="0.7"/><path aria-label="carrier_name: Northwest Airlines; depdelay: 6.43826683328; arrdelay: 7.36853912993" role="graphics-symbol" aria-roledescription="point" transform="translate(187.51704073955682,110.52434783451027)" d="M7.0710678118654755,0A7.0710678118654755,7.0710678118654755,0,1,1,-7.0710678118654755,0A7.0710678118654755,7.0710678118654755,0,1,1,7.0710678118654755,0" fill="steelblue" stroke-width="2" opacity="0.7"/><path aria-label="carrier_name: Pinnacle Airlines; depdelay: 6.73386101084; arrdelay: 4.11113470325" role="graphics-symbol" aria-roledescription="point" transform="translate(194.08580024098936,164.8144216124965)" d="M7.0710678118654755,0A7.0710678118654755,7.0710678118654755,0,1,1,-7.0710678118654755,0A7.0710678118654755,7.0710678118654755,0,1,1,7.0710678118654755,0" fill="steelblue" stroke-width="2" opacity="0.7"/><path aria-label="carrier_name: JetBlue Airways; depdelay: 12.5728265509; arrdelay: 11.0841843905" role="graphics-symbol" aria-roledescription="point" transform="translate(323.84059002004597,48.59692682469784)" d="M7.0710678118654755,0A7.0710678118654755,7.0710678118654755,0,1,1,-7.0710678118654755,0A7.0710678118654755,7.0710678118654755,0,1,1,7.0710678118654755,0" fill="steelblue" stroke-width="2" opacity="0.7"/><path aria-label="carrier_name: Continental Air Lines; depdelay: 13.1357812527; arrdelay: 10.9790372803" role="graphics-symbol" aria-roledescription="point" transform="translate(336.35069450352495,50.349378661811684)" d="M7.0710678118654755,0A7.0710678118654755,7.0710678118654755,0,1,1,-7.0710678118654755,0A7.0710678118654755,7.0710678118654755,0,1,1,7.0710678118654755,0" fill="steelblue" stroke-width="2" opacity="0.7"/><path aria-label="carrier_name: American Airlines; depdelay: 13.228519945; arrdelay: 12.6071940357" role="graphics-symbol" aria-roledescription="point" transform="translate(338.4115543333969,23.213432738100316)" d="M7.0710678118654755,0A7.0710678118654755,7.0710678118654755,0,1,1,-7.0710678118654755,0A7.0710678118654755,7.0710678118654755,0,1,1,7.0710678118654755,0" fill="steelblue" stroke-width="2" opacity="0.7"/><path aria-label="carrier_name: Aloha Airlines; depdelay: −1.48245614035; arrdelay: −2.88867389061" role="graphics-symbol" aria-roledescription="point" transform="translate(11.500974658869396,281.47789817681456)" d="M7.0710678118654755,0A7.0710678118654755,7.0710678118654755,0,1,1,-7.0710678118654755,0A7.0710678118654755,7.0710678118654755,0,1,1,7.0710678118654755,0" fill="steelblue" stroke-width="2" opacity="0.7"/><path aria-label="carrier_name: Alaska Airlines; depdelay: 6.71743932333; arrdelay: 4.80434636209" role="graphics-symbol" aria-roledescription="point" transform="translate(193.72087385178997,153.260893965107)" d="M7.0710678118654755,0A7.0710678118654755,7.0710678118654755,0,1,1,-7.0710678118654755,0A7.0710678118654755,7.0710678118654755,0,1,1,7.0710678118654755,0" fill="steelblue" stroke-width="2" opacity="0.7"/></g><g class="mark-text role-mark layer_1_marks" role="graphics-object" aria-roledescription="text mark container" pointer-events="none"><text aria-label="carrier_name: Southwest Airlines; depdelay: 10.3230806691; arrdelay: 5.17967817301" role="graphics-symbol" aria-roledescription="text mark" text-anchor="middle" transform="translate(273.84623709032195,150.00536378324352)" font-family="sans-serif" font-size="11px" fill="black">Southwest Airlines</text><text aria-label="carrier_name: Expressjet Airlines; depdelay: 11.3288701041; arrdelay: 10.6354048" role="graphics-symbol" aria-roledescription="text mark" text-anchor="middle" transform="translate(296.1971134237475,59.07658666607964)" font-family="sans-serif" font-size="11px" fill="black">Expressjet Airlines</text><text aria-label="carrier_name: Mesa Airlines; depdelay: 11.952743635; arrdelay: 11.7751814336" role="graphics-symbol" aria-roledescription="text mark" text-anchor="middle" transform="translate(310.06096966746577,40.080309439986515)" font-family="sans-serif" font-size="11px" fill="black">Mesa Airlines</text><text aria-label="carrier_name: Comair; depdelay: 11.5101497155; arrdelay: 11.817467684" role="graphics-symbol" aria-roledescription="text mark" text-anchor="middle" transform="translate(300.2255492336511,39.375538600033195)" font-family="sans-serif" font-size="11px" fill="black">Comair</text><text aria-label="carrier_name: Skywest Airlines; depdelay: 7.406290431; arrdelay: 6.59888473687" role="graphics-symbol" aria-roledescription="text mark" text-anchor="middle" transform="translate(209.02867624442146,126.35192105218779)" font-family="sans-serif" font-size="11px" fill="black">Skywest Airlines</text><text aria-label="carrier_name: United Air Lines; depdelay: 14.0642793376; arrdelay: 11.2913221867" role="graphics-symbol" aria-roledescription="text mark" text-anchor="middle" transform="translate(356.98398527986245,48.14463022199694)" font-family="sans-serif" font-size="11px" fill="black">United Air Lines</text><text aria-label="carrier_name: US Airways; depdelay: 5.68722847164; arrdelay: 2.84811000569" role="graphics-symbol" aria-roledescription="text mark" text-anchor="middle" transform="translate(170.8272993697777,188.86483323843385)" font-family="sans-serif" font-size="11px" fill="black">US Airways</text><text aria-label="carrier_name: Delta Air Lines; depdelay: 7.9754738317; arrdelay: 7.85516315488" role="graphics-symbol" aria-roledescription="text mark" text-anchor="middle" transform="translate(221.6771962599045,105.41394741861026)" font-family="sans-serif" font-size="11px" fill="black">Delta Air Lines</text><text aria-label="carrier_name: Atlantic Southeast Airlines; depdelay: 11.922875427; arrdelay: 10.2080024157" role="graphics-symbol" aria-roledescription="text mark" text-anchor="middle" transform="translate(309.39723171166014,66.19995973810362)" font-family="sans-serif" font-size="11px" fill="black">Atlantic Southeast Airlines</text><text aria-label="carrier_name: Frontier Airlines; depdelay: 5.9031074394; arrdelay: 6.10824666611" role="graphics-symbol" aria-roledescription="text mark" text-anchor="middle" transform="translate(175.62460976450743,134.5292222315413)" font-family="sans-serif" font-size="11px" fill="black">Frontier Airlines</text><text aria-label="carrier_name: AirTran Airways Corporation; depdelay: 9.22981837016; arrdelay: 9.09137538508" role="graphics-symbol" aria-roledescription="text mark" text-anchor="middle" transform="translate(249.55151933695726,84.81041024867967)" font-family="sans-serif" font-size="11px" fill="black">AirTran Airways Corporation</text><text aria-label="carrier_name: Hawaiian Airlines; depdelay: 0.439211265765; arrdelay: 1.26440893942" role="graphics-symbol" aria-roledescription="text mark" text-anchor="middle" transform="translate(54.20469479477518,215.259851009606)" font-family="sans-serif" font-size="11px" fill="black">Hawaiian Airlines</text><text aria-label="carrier_name: American Eagle Airlines; depdelay: 10.6288996755; arrdelay: 9.89066794578" role="graphics-symbol" aria-roledescription="text mark" text-anchor="middle" transform="translate(280.6422150107217,71.4888675703917)" font-family="sans-serif" font-size="11px" fill="black">American Eagle Airlines</text><text aria-label="carrier_name: Northwest Airlines; depdelay: 6.43826683328; arrdelay: 7.36853912993" role="graphics-symbol" aria-roledescription="text mark" text-anchor="middle" transform="translate(187.51704073955682,113.52434783451027)" font-family="sans-serif" font-size="11px" fill="black">Northwest Airlines</text><text aria-label="carrier_name: Pinnacle Airlines; depdelay: 6.73386101084; arrdelay: 4.11113470325" role="graphics-symbol" aria-roledescription="text mark" text-anchor="middle" transform="translate(194.08580024098936,167.8144216124965)" font-family="sans-serif" font-size="11px" fill="black">Pinnacle Airlines</text><text aria-label="carrier_name: JetBlue Airways; depdelay: 12.5728265509; arrdelay: 11.0841843905" role="graphics-symbol" aria-roledescription="text mark" text-anchor="middle" transform="translate(323.84059002004597,51.59692682469784)" font-family="sans-serif" font-size="11px" fill="black">JetBlue Airways</text><text aria-label="carrier_name: Continental Air Lines; depdelay: 13.1357812527; arrdelay: 10.9790372803" role="graphics-symbol" aria-roledescription="text mark" text-anchor="middle" transform="translate(336.35069450352495,53.349378661811684)" font-family="sans-serif" font-size="11px" fill="black">Continental Air Lines</text><text aria-label="carrier_name: American Airlines; depdelay: 13.228519945; arrdelay: 12.6071940357" role="graphics-symbol" aria-roledescription="text mark" text-anchor="middle" transform="translate(338.4115543333969,26.213432738100316)" font-family="sans-serif" font-size="11px" fill="black">American Airlines</text><text aria-label="carrier_name: Aloha Airlines; depdelay: −1.48245614035; arrdelay: −2.88867389061" role="graphics-symbol" aria-roledescription="text mark" text-anchor="middle" transform="translate(11.500974658869396,284.47789817681456)" font-family="sans-serif" font-size="11px" fill="black">Aloha Airlines</text><text aria-label="carrier_name: Alaska Airlines; depdelay: 6.71743932333; arrdelay: 4.80434636209" role="graphics-symbol" aria-roledescription="text mark" text-anchor="middle" transform="translate(193.72087385178997,156.260893965107)" font-family="sans-serif" font-size="11px" fill="black">Alaska Airlines</text></g><g class="mark-group role-title"><g transform="translate(200,-22)"><path class="background" aria-hidden="true" d="M0,0h0v0h0Z" pointer-events="none"/><g><g class="mark-text role-title-text" role="graphics-symbol" aria-roledescription="title" aria-label="Title text 'Carrier Departure Delay by Arrival Delay (Minutes)'" pointer-events="none"><text text-anchor="middle" transform="translate(0,10)" font-family="sans-serif" font-size="13px" font-weight="bold" fill="#000" opacity="1">Carrier Departure Delay by Arrival Delay (Minutes)</text></g></g><path class="foreground" aria-hidden="true" d="" pointer-events="none" display="none"/></g></g></g><path class="foreground" aria-hidden="true" d="" display="none"/></g></g></g></svg>