<svg xmlns="http://www.w3.org/2000/svg" xmlns:xlink="http://www.w3.org/1999/xlink" version="1.1" class="marks" width="425" height="342" viewBox="0 0 425 342"><rect width="425" height="342" fill="white"/><g fill="none" stroke-miterlimit="10" transform="translate(20,22)"><g class="mark-group role-frame root" role="graphics-object" aria-roledescription="group mark container"><g transform="translate(0,0)"><path class="background" aria-hidden="true" d="M0.5,0.5h400v300h-400Z" stroke="#ddd"/><g><g class="mark-group role-axis" aria-hidden="true"><g transform="translate(0.5,300.5)"><path class="background" aria-hidden="true" d="M0,0h0v0h0Z" pointer-events="none"/><g><g class="mark-rule role-axis-grid" pointer-events="none"><line transform="translate(0,-300)" x2="0" y2="300" stroke="#ddd" stroke-width="1" opacity="1"/><line transform="translate(34,-300)" x2="0" y2="300" stroke="#ddd" stroke-width="1" opacity="1"/><line transform="translate(66,-300)" x2="0" y2="300" stroke="#ddd" stroke-width="1" opacity="1"/><line transform="translate(100,-300)" x2="0" y2="300" stroke="#ddd" stroke-width="1" opacity="1"/><line transform="translate(133,-300)" x2="0" y2="300" stroke="#ddd" stroke-width="1" opacity="1"/><line transform="translate(167,-300)" x2="0" y2="300" stroke="#ddd" stroke-width="1" opacity="1"/><line transform="translate(199,-300)" x2="0" y2="300" stroke="#ddd" stroke-width="1" opacity="1"/><line transform="translate(233,-300)" x2="0" y2="300" stroke="#ddd" stroke-width="1" opacity="1"/><line transform="translate(267,-300)" x2="0" y2="300" stroke="#ddd" stroke-width="1" opacity="1"/><line transform="translate(300,-300)" x2="0" y2="300" stroke="#ddd" stroke-width="1" opacity="1"/><line transform="translate(334,-300)" x2="0" y2="300" stroke="#ddd" stroke-width="1" opacity="1"/><line transform="translate(367,-300)" x2="0" y2="300" stroke="#ddd" stroke-width="1" opacity="1"/></g></g><path class="foreground" aria-hidden="true" d="" pointer-events="none" display="none"/></g></g><g class="mark-group role-axis" aria-hidden="true"><g transform="translate(0.5,0.5)"><path class="background" aria-hidden="true" d="M0,0h0v0h0Z" pointer-events="none"/><g><g class="mark-rule role-axis-grid" pointer-events="none"><line transform="translate(0,300)" x2="400" y2="0" stroke="#ddd" stroke-width="1" opacity="1"/><line transform="translate(0,270)" x2="400" y2="0" stroke="#ddd" stroke-width="1" opacity="1"/><line transform="translate(0,240)" x2="400" y2="0" stroke="#ddd" stroke-width="1" opacity="1"/><line transform="translate(0,210)" x2="400" y2="0" stroke="#ddd" stroke-width="1" opacity="1"/><line transform="translate(0,180)" x2="400" y2="0" stroke="#ddd" stroke-width="1" opacity="1"/><line transform="translate(0,150)" x2="400" y2="0" stroke="#ddd" stroke-width="1" opacity="1"/><line transform="translate(0,120)" x2="400" y2="0" stroke="#ddd" stroke-width="1" opacity="1"/><line transform="translate(0,90)" x2="400" y2="0" stroke="#ddd" stroke-width="1" opacity="1"/><line transform="translate(0,60)" x2="400" y2="0" stroke="#ddd" stroke-width="1" opacity="1"/><line transform="translate(0,30)" x2="400" y2="0" stroke="#ddd" stroke-width="1" opacity="1"/><line transform="translate(0,0)" x2="400" y2="0" stroke="#ddd" stroke-width="1" opacity="1"/></g></g><path class="foreground" aria-hidden="true" d="" pointer-events="none" display="none"/></g></g><g class="mark-group role-axis" role="graphics-symbol" aria-roledescription="axis" aria-label="X-axis titled 'dep_timestamp (year-month-date)' for a time scale with values from Tuesday, 01 January 2008, 12:00:00 AM to Wednesday, 31 December 2008, 12:00:00 AM"><g transform="translate(0.5,300.5)"><path class="background" aria-hidden="true" d="M0,0h0v0h0Z" pointer-events="none"/><g><g class="mark-rule role-axis-tick" pointer-events="none"><line transform="translate(0,0)" x2="0" y2="5" stroke="#888" stroke-width="1" opacity="1"/><line transform="translate(34,0)" x2="0" y2="5" stroke="#888" stroke-width="1" opacity="1"/><line transform="translate(66,0)" x2="0" y2="5" stroke="#888" stroke-width="1" opacity="1"/><line transform="translate(100,0)" x2="0" y2="5" stroke="#888" stroke-width="1" opacity="1"/><line transform="translate(133,0)" x2="0" y2="5" stroke="#888" stroke-width="1" opacity="1"/><line transform="translate(167,0)" x2="0" y2="5" stroke="#888" stroke-width="1" opacity="1"/><line transform="translate(199,0)" x2="0" y2="5" stroke="#888" stroke-width="1" opacity="1"/><line transform="translate(233,0)" x2="0" y2="5" stroke="#888" stroke-width="1" opacity="1"/><line transform="translate(267,0)" x2="0" y2="5" stroke="#888" stroke-width="1" opacity="1"/><line transform="translate(300,0)" x2="0" y2="5" stroke="#888" stroke-width="1" opacity="1"/><line transform="translate(334,0)" x2="0" y2="5" stroke="#888" stroke-width="1" opacity="1"/><line transform="translate(367,0)" x2="0" y2="5" stroke="#888" stroke-width="1" opacity="1"/></g><g class="mark-text role-axis-label" pointer-events="none"><text text-anchor="start" transform="translate(0,15)" font-family="sans-serif" font-size="10px" fill="#000" opacity="1">2008</text><text text-anchor="middle" transform="translate(33.97260273972603,15)" font-family="sans-serif" font-size="10px" fill="#000" opacity="0">February</text><text text-anchor="middle" transform="translate(65.75342465753424,15)" font-family="sans-serif" font-size="10px" fill="#000" opacity="1">March</text><text text-anchor="middle" transform="translate(99.72602739726028,15)" font-family="sans-serif" font-size="10px" fill="#000" opacity="0">April</text><text text-anchor="middle" transform="translate(132.6027397260274,15)" font-family="sans-serif" font-size="10px" fill="#000" opacity="1">May</text><text text-anchor="middle" transform="translate(166.57534246575344,15)" font-family="sans-serif" font-size="10px" fill="#000" opacity="0">June</text><text text-anchor="middle" transform="translate(199.45205479452056,15)" font-family="sans-serif" font-size="10px" fill="#000" opacity="1">July</text><text text-anchor="middle" transform="translate(233.4246575342466,15)" font-family="sans-serif" font-size="10px" fill="#000" opacity="0">August</text><text text-anchor="middle" transform="translate(267.3972602739726,15)" font-family="sans-serif" font-size="10px" fill="#000" opacity="1">September</text><text text-anchor="middle" transform="translate(300.2739726027397,15)" font-family="sans-serif" font-size="10px" fill="#000" opacity="0">October</text><text text-anchor="middle" transform="translate(334.24657534246575,15)" font-family="sans-serif" font-size="10px" fill="#000" opacity="1">November</text><text text-anchor="middle" transform="translate(367.1232876712329,15)" font-family="sans-serif" font-size="10px" fill="#000" opacity="0">December</text></g><g class="mark-rule role-axis-domain" pointer-events="none"><line transform="translate(0,0)" x2="400" y2="0" stroke="#888" stroke-width="1" opacity="1"/></g><g class="mark-text role-axis-title" pointer-events="none"><text text-anchor="middle" transform="translate(200,30)" font-family="sans-serif" font-size="11px" font-weight="bold" fill="#000" opacity="1">dep_timestamp (year-month-date)</text></g></g><path class="foreground" aria-hidden="true" d="" pointer-events="none" display="none"/></g></g><g class="mark-group role-axis" role="graphics-symbol" aria-roledescription="axis" aria-label="Y-axis titled 'Count of Records' for a linear scale with values from 11,000 to 21,000"><g transform="translate(0.5,0.5)"><path class="background" aria-hidden="true" d="M0,0h0v0h0Z" pointer-events="none"/><g><g class="mark-rule role-axis-tick" pointer-events="none"><line transform="translate(0,300)" x2="-5" y2="0" stroke="#888" stroke-width="1" opacity="1"/><line transform="translate(0,270)" x2="-5" y2="0" stroke="#888" stroke-width="1" opacity="1"/><line transform="translate(0,240)" x2="-5" y2="0" stroke="#888" stroke-width="1" opacity="1"/><line transform="translate(0,210)" x2="-5" y2="0" stroke="#888" stroke-width="1" opacity="1"/><line transform="translate(0,180)" x2="-5" y2="0" stroke="#888" stroke-width="1" opacity="1"/><line transform="translate(0,150)" x2="-5" y2="0" stroke="#888" stroke-width="1" opacity="1"/><line transform="translate(0,120)" x2="-5" y2="0" stroke="#888" stroke-width="1" opacity="1"/><line transform="translate(0,90)" x2="-5" y2="0" stroke="#888" stroke-width="1" opacity="1"/><line transform="translate(0,60)" x2="-5" y2="0" stroke="#888" stroke-width="1" opacity="1"/><line transform="translate(0,30)" x2="-5" y2="0" stroke="#888" stroke-width="1" opacity="1"/><line transform="translate(0,0)" x2="-5" y2="0" stroke="#888" stroke-width="1" opacity="1"/></g><g class="mark-text role-axis-label" pointer-events="none"><text text-anchor="end" transform="translate(-7,303)" font-family="sans-serif" font-size="10px" fill="#000" opacity="1">11,000</text><text text-anchor="end" transform="translate(-7,273)" font-family="sans-serif" font-size="10px" fill="#000" opacity="1">12,000</text><text text-anchor="end" transform="translate(-7,243)" font-family="sans-serif" font-size="10px" fill="#000" opacity="1">13,000</text><text text-anchor="end" transform="translate(-7,213)" font-family="sans-serif" font-size="10px" fill="#000" opacity="1">14,000</text><text text-anchor="end" transform="translate(-7,183)" font-family="sans-serif" font-size="10px" fill="#000" opacity="1">15,000</text><text text-anchor="end" transform="translate(-7,153)" font-family="sans-serif" font-size="10px" fill="#000" opacity="1">16,000</text><text text-anchor="end" transform="translate(-7,123)" font-family="sans-serif" font-size="10px" fill="#000" opacity="1">17,000</text><text text-anchor="end" transform="translate(-7,93.00000000000001)" font-family="sans-serif" font-size="10px" fill="#000" opacity="1">18,000</text><text text-anchor="end" transform="translate(-7,62.999999999999986)" font-family="sans-serif" font-size="10px" fill="#000" opacity="1">19,000</text><text text-anchor="end" transform="translate(-7,32.99999999999999)" font-family="sans-serif" font-size="10px" fill="#000" opacity="1">20,000</text><text text-anchor="end" transform="translate(-7,3)" font-family="sans-serif" font-size="10px" fill="#000" opacity="1">21,000</text></g><g class="mark-rule role-axis-domain" pointer-events="none"><line transform="translate(0,300)" x2="0" y2="-300" stroke="#888" stroke-width="1" opacity="1"/></g><g class="mark-text role-axis-title" pointer-events="none"><text text-anchor="middle" transform="translate(-41.5859375,150) rotate(-90) translate(0,-2)" font-family="sans-serif" font-size="11px" font-weight="bold" fill="#000" opacity="1">Count of Records</text></g></g><path class="foreground" aria-hidden="true" d="" pointer-events="none" display="none"/></g></g><g class="mark-rect role-mark selector003_brush_bg" clip-path="url(#clip1)" role="graphics-symbol" aria-roledescription="rect mark container"><path d="M0,0h0v0h0Z" fill="#333" fill-opacity="0.125"/></g><g class="mark-line role-mark marks" role="graphics-object" aria-roledescription="line mark container"><path aria-label="dep_timestamp (year-month-date): Jan 01, 2008; Count of Records: 18632" role="graphics-symbol" aria-roledescription="line mark" d="M0,71.04L1.095890410958904,16.739999999999988L2.191780821917808,16.139999999999986L3.287671232876712,25.19999999999999L4.383561643835616,101.61L5.47945205479452,53.57999999999999L6.575342465753424,36.959999999999994L7.671232876712329,55.76999999999999L8.767123287671232,46.64999999999999L9.863013698630137,31.08000000000001L10.95890410958904,35.31000000000001L12.054794520547945,139.59L13.150684931506849,72.38999999999999L14.246575342465754,51.87000000000002L15.342465753424658,53.879999999999995L16.43835616438356,52.92L17.534246575342465,47.94000000000002L18.63013698630137,26.459999999999983L19.726027397260275,168.78L20.82191780821918,77.94000000000001L21.91780821917808,40.2L23.013698630136986,68.39999999999999L24.10958904109589,52.76999999999998L25.205479452054796,31.980000000000008L26.301369863013697,36.33L27.397260273972602,154.14000000000001L28.493150684931507,81.54L29.589041095890412,45.14999999999999L30.684931506849317,71.64L31.780821917808222,57.809999999999995L32.87671232876712,54.53999999999999L33.97260273972603,59.16000000000001L35.06849315068493,152.48999999999998L36.16438356164384,85.70999999999998L37.26027397260274,75.84L38.35616438356164,77.16L39.45205479452055,100.22999999999999L40.54794520547945,34.08000000000001L41.64383561643836,31.169999999999998L42.73972602739726,151.53L43.83561643835616,75.69L44.93150684931507,43.800000000000004L46.02739726027397,94.74L47.12328767123288,68.75999999999999L48.21917808219178,19.409999999999993L49.31506849315068,12.570000000000014L50.41095890410959,129.78L51.50684931506849,91.50000000000001L52.602739726027394,28.890000000000015L53.6986301369863,25.92000000000001L54.794520547945204,18.66000000000001L55.89041095890411,31.799999999999994L56.986301369863014,71.55000000000001L58.082191780821915,129.00000000000003L59.178082191780824,53.55L60.273972602739725,26.790000000000013L61.369863013698634,44.37000000000001L62.465753424657535,26.91L63.561643835616444,23.939999999999994L64.65753424657534,25.79999999999999L65.75342465753424,126.47999999999999L66.84931506849315,55.80000000000002L67.94520547945206,32.15999999999999L69.04109589041096,49.07999999999999L70.13698630136986,28.080000000000005L71.23287671232876,37.41000000000001L72.32876712328768,40.77L73.42465753424658,155.43L74.52054794520548,62.01L75.61643835616438,22.950000000000003L76.71232876712328,31.620000000000015L77.8082191780822,21.539999999999992L78.9041095890411,12.479999999999992L80,11.009999999999987L81.0958904109589,115.94999999999999L82.1917808219178,48.00000000000001L83.28767123287672,18.600000000000016L84.38356164383562,77.46L85.47945205479452,32.010000000000005L86.57534246575342,16.92L87.67123287671232,47.609999999999985L88.76712328767124,115.61999999999999L89.86301369863014,50.160000000000004L90.95890410958904,14.700000000000014L92.05479452054794,30.240000000000002L93.15068493150685,29.12999999999999L94.24657534246576,29.280000000000005L95.34246575342465,13.290000000000003L96.43835616438356,114.36L97.53424657534246,52.47000000000001L98.63013698630137,40.17000000000001L99.72602739726028,35.31000000000001L100.82191780821918,19.679999999999996L101.91780821917808,15.960000000000008L103.01369863013699,28.559999999999985L104.10958904109589,120.50999999999999L105.20547945205479,47.43000000000001L106.3013698630137,17.93999999999999L107.3972602739726,47.70000000000001L108.4931506849315,54.50999999999999L109.58904109589041,50.90999999999999L110.68493150684931,35.18999999999999L111.78082191780823,126.93L112.87671232876713,46.64999999999999L113.97260273972603,16.139999999999986L115.06849315068493,31.350000000000012L116.16438356164383,19.43999999999999L117.26027397260275,12.630000000000008L118.35616438356165,12.419999999999998L119.45205479452055,122.55L120.54794520547945,46.80000000000001L121.64383561643837,15.120000000000001L122.73972602739727,30.180000000000007L123.83561643835617,18.509999999999994L124.93150684931507,13.830000000000009L126.02739726027397,27.62999999999999L127.12328767123289,127.43999999999998L128.21917808219177,47.27999999999999L129.31506849315068,27.390000000000015L130.41095890410958,30.599999999999994L131.50684931506848,20.25L132.6027397260274,18.83999999999999L133.6986301369863,33.540000000000006L134.7945205479452,128.43L135.8904109589041,52.53000000000001L136.986301369863,21.330000000000016L138.08219178082192,39.300000000000004L139.17808219178082,30.15000000000001L140.27397260273972,18.899999999999984L141.36986301369862,23.31L142.46575342465752,125.49L143.56164383561645,57.720000000000006L144.65753424657535,28.410000000000004L145.75342465753425,42.11999999999999L146.84931506849315,29.42999999999999L147.94520547945206,19.679999999999996L149.04109589041096,18.930000000000014L150.13698630136986,123.42L151.23287671232876,51.42L152.32876712328766,21.120000000000005L153.42465753424656,38.51999999999999L154.5205479452055,24.78L155.6164383561644,17.03999999999999L156.7123287671233,14.039999999999985L157.8082191780822,129.9L158.9041095890411,137.7L160,51.47999999999999L161.0958904109589,41.459999999999994L162.1917808219178,24.569999999999993L163.2876712328767,17.909999999999993L164.3835616438356,22.829999999999984L165.47945205479454,123.80999999999999L166.57534246575344,47.640000000000015L167.67123287671234,15.42L168.76712328767124,37.28999999999999L169.86301369863014,31.77L170.95890410958904,17.669999999999987L172.05479452054794,18.390000000000008L173.15068493150685,100.86000000000001L174.24657534246575,57.53999999999999L175.34246575342465,20.730000000000015L176.43835616438358,29.490000000000016L177.53424657534248,15.72L178.63013698630138,8.400000000000007L179.72602739726028,14.100000000000012L180.82191780821915,96.12L181.91780821917808,42.44999999999999L183.013698630137,24.329999999999984L184.1095890410959,19.979999999999997L185.2054794520548,12.509999999999987L186.3013698630137,12.839999999999986L187.39726027397262,3.9899999999999936L188.49315068493152,88.38L189.58904109589042,42.57000000000001L190.6849315068493,13.919999999999998L191.7808219178082,15.239999999999988L192.87671232876713,10.919999999999996L193.97260273972603,12.630000000000008L195.06849315068493,10.140000000000015L196.16438356164383,93.83999999999999L197.26027397260273,43.97999999999998L198.35616438356166,9.060000000000002L199.45205479452056,11.460000000000004L200.54794520547946,11.130000000000006L201.64383561643837,8.700000000000008L202.73972602739727,152.19L203.83561643835617,104.67L204.93150684931507,34.440000000000005L206.02739726027397,7.2899999999999965L207.12328767123287,27.62999999999999L208.21917808219177,53.069999999999986L209.31506849315068,13.709999999999988L210.41095890410958,6.419999999999993L211.5068493150685,89.10000000000001L212.6027397260274,51.90000000000001L213.6986301369863,8.279999999999987L214.7945205479452,12.239999999999984L215.8904109589041,7.0199999999999925L216.986301369863,3.300000000000003L218.08219178082192,2.310000000000012L219.17808219178082,88.35L220.27397260273972,36.3L221.36986301369862,9.689999999999998L222.46575342465755,18.15L223.56164383561645,39.749999999999986L224.65753424657535,19.379999999999995L225.75342465753425,5.459999999999998L226.84931506849315,88.35L227.94520547945206,53.30999999999999L229.04109589041096,10.770000000000014L230.13698630136986,14.670000000000016L231.23287671232876,8.84999999999999L232.32876712328766,12.270000000000014L233.4246575342466,7.7400000000000135L234.5205479452055,102.27L235.6164383561644,38.370000000000005L236.7123287671233,28.410000000000004L237.8082191780822,32.99999999999999L238.9041095890411,12.839999999999986L240,11.970000000000013L241.0958904109589,10.619999999999996L242.1917808219178,89.67000000000002L243.28767123287673,52.500000000000014L244.38356164383563,26.61L245.47945205479454,16.769999999999985L246.57534246575344,10.470000000000013L247.67123287671234,15.779999999999994L248.76712328767124,21.99000000000001L249.86301369863014,98.82000000000001L250.95890410958904,39.41999999999999L252.05479452054794,10.019999999999996L253.15068493150682,48.90000000000001L254.24657534246577,30.84L255.34246575342468,23.550000000000004L256.43835616438355,21.720000000000006L257.5342465753425,135.63L258.63013698630135,56.399999999999984L259.7260273972603,29.220000000000013L260.82191780821915,47.46L261.9178082191781,34.91999999999999L263.01369863013696,24.120000000000008L264.1095890410959,22.829999999999984L265.2054794520548,167.4L266.3013698630137,186.27L267.3972602739726,75.9L268.4931506849315,63.239999999999995L269.5890410958904,77.16L270.6849315068493,71.07L271.7808219178082,66.24L272.8767123287671,201.48L273.972602739726,97.19999999999999L275.0684931506849,69.45000000000002L276.16438356164383,103.65L277.26027397260276,79.17L278.35616438356163,65.55000000000001L279.45205479452056,95.55L280.54794520547944,232.71L281.64383561643837,143.34L282.73972602739724,85.50000000000001L283.83561643835617,96.21L284.93150684931504,84.57000000000001L286.027397260274,70.35000000000001L287.1232876712329,63.78L288.2191780821918,195.6L289.3150684931507,100.16999999999999L290.4109589041096,68.18999999999998L291.5068493150685,90.60000000000001L292.6027397260274,79.37999999999998L293.6986301369863,67.29000000000002L294.7945205479452,71.72999999999999L295.8904109589041,195.51L296.986301369863,99.09000000000002L298.0821917808219,68.37L299.17808219178085,92.10000000000001L300.2739726027397,84.00000000000001L301.36986301369865,69.15L302.4657534246575,66.6L303.56164383561645,195.42L304.6575342465753,101.07L305.75342465753425,70.11L306.8493150684931,91.35L307.94520547945206,80.94000000000001L309.041095890411,67.47L310.13698630136986,65.52000000000001L311.2328767123288,194.16L312.32876712328766,100.08L313.4246575342466,67.88999999999999L314.52054794520546,89.97000000000001L315.6164383561644,82.80000000000001L316.71232876712327,67.35000000000001L317.8082191780822,66.05999999999999L318.90410958904107,195.33L320,100.16999999999999L321.09589041095893,68.31L322.1917808219178,91.29L323.28767123287673,81.84000000000002L324.3835616438356,66.42000000000002L325.47945205479454,65.97L326.5753424657534,197.82L327.67123287671234,102.02999999999999L328.7671232876712,71.18999999999998L329.86301369863014,100.56000000000002L330.95890410958907,83.43L332.05479452054794,69.54L333.1506849315069,81.81000000000002L334.24657534246575,194.13L335.3424657534247,110.21999999999998L336.43835616438355,75.92999999999999L337.5342465753425,96.72L338.63013698630135,84.80999999999999L339.7260273972603,79.86L340.8219178082192,72.92999999999999L341.9178082191781,186.18L343.013698630137,109.74000000000001L344.1095890410959,77.75999999999999L345.2054794520548,97.35000000000001L346.3013698630137,87.12L347.3972602739726,77.75999999999999L348.4931506849315,80.7L349.5890410958904,189.21L350.6849315068493,110.49L351.7808219178082,75.9L352.87671232876716,96.72L353.972602739726,86.52L355.06849315068496,71.81999999999998L356.16438356164383,69.75000000000001L357.26027397260276,180.51L358.35616438356163,105.98999999999998L359.45205479452056,81.9L360.54794520547944,73.91999999999999L361.6438356164383,65.61L362.7397260273973,270.57L363.83561643835617,201.17999999999998L364.9315068493151,132.69L366.027397260274,84.14999999999999L367.1232876712329,77.28000000000002L368.2191780821918,88.77000000000001L369.3150684931507,97.02000000000001L370.4109589041096,84.27000000000001L371.50684931506845,82.44000000000001L372.6027397260274,198.66L373.6986301369863,120.06L374.79452054794524,88.62L375.8904109589041,116.21999999999998L376.98630136986304,110.67L378.0821917808219,98.55000000000001L379.17808219178085,85.44000000000001L380.2739726027397,199.65L381.3698630136986,121.74000000000001L382.4657534246575,96.99000000000001L383.5616438356164,129.86999999999998L384.6575342465754,106.5L385.75342465753425,95.96999999999998L386.8493150684932,126.39L387.94520547945206,164.88L389.041095890411,150.27L390.13698630136986,96.50999999999999L391.23287671232873,95.94L392.32876712328766,180.75L393.42465753424653,177.35999999999999L394.52054794520546,105.98999999999998L395.6164383561644,154.92L396.7123287671233,107.13L397.8082191780822,77.73L398.9041095890411,81.96L400,173.55" stroke="#4c78a8" stroke-width="2"/></g><g class="mark-rect role-mark selector003_brush" clip-path="url(#clip2)" role="graphics-symbol" aria-roledescription="rect mark container"><path d="M0,0h0v0h0Z"/></g><g class="mark-group role-title"><g transform="translate(200,-22)"><path class="background" aria-hidden="true" d="M0,0h0v0h0Z" pointer-events="none"/><g><g class="mark-text role-title-text" role="graphics-symbol" aria-roledescription="title" aria-label="Title text 'Number of Flights by Departure Time'" pointer-events="none"><text text-anchor="middle" transform="translate(0,10)" font-family="sans-serif" font-size="13px" font-weight="bold" fill="#000" opacity="1">Number of Flights by Departure Time</text></g></g><path class="foreground" aria-hidden="true" d="" pointer-events="none" display="none"/></g></g></g><path class="foreground" aria-hidden="true" d="" display="none"/></g></g></g><defs><clipPath id="clip1"><rect x="0" y="0" width="400" height="300"/></clipPath><clipPath id="clip2"><rect x="0" y="0" width="400" height="300"/></clipPath></defs></svg>