<svg class="marks" width="790" height="284" viewBox="0 0 790 284" version="1.1" xmlns="http://www.w3.org/2000/svg" xmlns:xlink="http://www.w3.org/1999/xlink"><rect width="790" height="284" style="fill: white;"></rect><defs><linearGradient id="gradient_0" x1="0" x2="0" y1="1" y2="0"><stop offset="0" stop-color="rgb(239, 249, 189)"></stop><stop offset="0.00019888318872348466" stop-color="rgb(239, 249, 189)"></stop><stop offset="0.051648104052889394" stop-color="rgb(229, 245, 184)"></stop><stop offset="0.1030973249170553" stop-color="rgb(218, 241, 180)"></stop><stop offset="0.1545465457812212" stop-color="rgb(203, 234, 181)"></stop><stop offset="0.20599576664538707" stop-color="rgb(187, 228, 181)"></stop><stop offset="0.25744498750955297" stop-color="rgb(165, 220, 183)"></stop><stop offset="0.3088942083737189" stop-color="rgb(144, 212, 185)"></stop><stop offset="0.3603434292378848" stop-color="rgb(122, 203, 188)"></stop><stop offset="0.4117926501020507" stop-color="rgb(101, 195, 190)"></stop><stop offset="0.4632418709662166" stop-color="rgb(82, 186, 193)"></stop><stop offset="0.5146910918303825" stop-color="rgb(65, 177, 194)"></stop><stop offset="0.5661403126945485" stop-color="rgb(52, 165, 193)"></stop><stop offset="0.6175895335587143" stop-color="rgb(42, 153, 191)"></stop><stop offset="0.6690387544228802" stop-color="rgb(36, 139, 186)"></stop><stop offset="0.7204879752870461" stop-color="rgb(33, 124, 181)"></stop><stop offset="0.771937196151212" stop-color="rgb(33, 108, 174)"></stop><stop offset="0.823386417015378" stop-color="rgb(33, 92, 167)"></stop><stop offset="0.8748356378795439" stop-color="rgb(34, 78, 160)"></stop><stop offset="0.9262848587437097" stop-color="rgb(33, 65, 150)"></stop><stop offset="0.9777340796078756" stop-color="rgb(30, 54, 138)"></stop><stop offset="1" stop-color="rgb(28, 49, 133)"></stop></linearGradient></defs><g transform="translate(39,5)"><g class="mark-group role-frame root"><g transform="translate(0,0)"><path class="background" d="M0.5,0.5h620v240h-620Z" style="fill: none; stroke: #ddd;"></path><g><g class="mark-rect role-mark marks"><path d="M0,0h20v20h-20Z" style="fill: rgb(73, 182, 194);"></path><path d="M20,0h20v20h-20Z" style="fill: rgb(51, 165, 193);"></path><path d="M40,0h20v20h-20Z" style="fill: rgb(100, 195, 191);"></path><path d="M60,0h20v20h-20Z" style="fill: rgb(125, 204, 188);"></path><path d="M80,0h20v20h-20Z" style="fill: rgb(88, 189, 192);"></path><path d="M100,0h20v20h-20Z" style="fill: rgb(93, 191, 191);"></path><path d="M120,0h20v20h-20Z" style="fill: rgb(143, 211, 186);"></path><path d="M140,0h20v20h-20Z" style="fill: rgb(160, 218, 184);"></path><path d="M160,0h20v20h-20Z" style="fill: rgb(213, 239, 180);"></path><path d="M180,0h20v20h-20Z" style="fill: rgb(191, 230, 181);"></path><path d="M200,0h20v20h-20Z" style="fill: rgb(169, 221, 183);"></path><path d="M220,0h20v20h-20Z" style="fill: rgb(231, 246, 185);"></path><path d="M240,0h20v20h-20Z" style="fill: rgb(207, 236, 180);"></path><path d="M260,0h20v20h-20Z" style="fill: rgb(210, 237, 180);"></path><path d="M280,0h20v20h-20Z" style="fill: rgb(219, 241, 180);"></path><path d="M300,0h20v20h-20Z" style="fill: rgb(223, 242, 182);"></path><path d="M320,0h20v20h-20Z" style="fill: rgb(86, 188, 192);"></path><path d="M340,0h20v20h-20Z" style="fill: rgb(154, 215, 184);"></path><path d="M360,0h20v20h-20Z" style="fill: rgb(164, 219, 183);"></path><path d="M380,0h20v20h-20Z" style="fill: rgb(200, 233, 181);"></path><path d="M400,0h20v20h-20Z" style="fill: rgb(75, 183, 193);"></path><path d="M420,0h20v20h-20Z" style="fill: rgb(99, 194, 191);"></path><path d="M440,0h20v20h-20Z" style="fill: rgb(166, 220, 183);"></path><path d="M460,0h20v20h-20Z" style="fill: rgb(187, 228, 181);"></path><path d="M480,0h20v20h-20Z" style="fill: rgb(148, 213, 185);"></path><path d="M500,0h20v20h-20Z" style="fill: rgb(204, 235, 180);"></path><path d="M520,0h20v20h-20Z" style="fill: rgb(65, 177, 194);"></path><path d="M540,0h20v20h-20Z" style="fill: rgb(152, 214, 185);"></path><path d="M560,0h20v20h-20Z" style="fill: rgb(166, 220, 183);"></path><path d="M580,0h20v20h-20Z" style="fill: rgb(197, 232, 181);"></path><path d="M600,0h20v20h-20Z" style="fill: rgb(61, 173, 193);"></path><path d="M0,20h20v20h-20Z" style="fill: rgb(41, 149, 190);"></path><path d="M20,20h20v20h-20Z" style="fill: rgb(191, 230, 181);"></path><path d="M40,20h20v20h-20Z" style="fill: rgb(118, 202, 188);"></path><path d="M60,20h20v20h-20Z" style="fill: rgb(77, 184, 193);"></path><path d="M80,20h20v20h-20Z" style="fill: rgb(111, 199, 189);"></path><path d="M100,20h20v20h-20Z" style="fill: rgb(109, 198, 190);"></path><path d="M120,20h20v20h-20Z" style="fill: rgb(179, 225, 182);"></path><path d="M140,20h20v20h-20Z" style="fill: rgb(160, 218, 184);"></path><path d="M160,20h20v20h-20Z" style="fill: rgb(218, 241, 180);"></path><path d="M180,20h20v20h-20Z" style="fill: rgb(136, 208, 186);"></path><path d="M200,20h20v20h-20Z" style="fill: rgb(148, 213, 185);"></path><path d="M220,20h20v20h-20Z" style="fill: rgb(54, 167, 193);"></path><path d="M240,20h20v20h-20Z" style="fill: rgb(51, 164, 193);"></path><path d="M260,20h20v20h-20Z" style="fill: rgb(149, 214, 185);"></path><path d="M280,20h20v20h-20Z" style="fill: rgb(148, 213, 185);"></path><path d="M300,20h20v20h-20Z" style="fill: rgb(166, 220, 183);"></path><path d="M320,20h20v20h-20Z" style="fill: rgb(72, 181, 194);"></path><path d="M340,20h20v20h-20Z" style="fill: rgb(65, 176, 194);"></path><path d="M360,20h20v20h-20Z" style="fill: rgb(160, 218, 184);"></path><path d="M380,20h20v20h-20Z" style="fill: rgb(176, 224, 182);"></path><path d="M400,20h20v20h-20Z" style="fill: rgb(116, 201, 189);"></path><path d="M420,20h20v20h-20Z" style="fill: rgb(37, 140, 187);"></path><path d="M440,20h20v20h-20Z" style="fill: rgb(135, 208, 186);"></path><path d="M460,20h20v20h-20Z" style="fill: rgb(146, 212, 185);"></path><path d="M480,20h20v20h-20Z" style="fill: rgb(152, 215, 185);"></path><path d="M500,20h20v20h-20Z" style="fill: rgb(73, 182, 194);"></path><path d="M520,20h20v20h-20Z" style="fill: rgb(201, 234, 181);"></path><path d="M540,20h20v20h-20Z" style="fill: rgb(206, 236, 180);"></path><path d="M560,20h20v20h-20Z" style="fill: rgb(142, 211, 186);"></path><path d="M0,40h20v20h-20Z" style="fill: rgb(201, 234, 181);"></path><path d="M20,40h20v20h-20Z" style="fill: rgb(174, 223, 182);"></path><path d="M40,40h20v20h-20Z" style="fill: rgb(137, 209, 186);"></path><path d="M60,40h20v20h-20Z" style="fill: rgb(113, 200, 189);"></path><path d="M80,40h20v20h-20Z" style="fill: rgb(163, 219, 184);"></path><path d="M100,40h20v20h-20Z" style="fill: rgb(181, 226, 182);"></path><path d="M120,40h20v20h-20Z" style="fill: rgb(61, 173, 193);"></path><path d="M140,40h20v20h-20Z" style="fill: rgb(33, 117, 178);"></path><path d="M160,40h20v20h-20Z" style="fill: rgb(94, 192, 191);"></path><path d="M180,40h20v20h-20Z" style="fill: rgb(156, 216, 184);"></path><path d="M200,40h20v20h-20Z" style="fill: rgb(208, 236, 180);"></path><path d="M220,40h20v20h-20Z" style="fill: rgb(192, 230, 181);"></path><path d="M240,40h20v20h-20Z" style="fill: rgb(203, 235, 181);"></path><path d="M260,40h20v20h-20Z" style="fill: rgb(169, 221, 183);"></path><path d="M280,40h20v20h-20Z" style="fill: rgb(81, 186, 193);"></path><path d="M300,40h20v20h-20Z" style="fill: rgb(150, 214, 185);"></path><path d="M320,40h20v20h-20Z" style="fill: rgb(178, 225, 182);"></path><path d="M340,40h20v20h-20Z" style="fill: rgb(74, 182, 193);"></path><path d="M360,40h20v20h-20Z" style="fill: rgb(41, 151, 190);"></path><path d="M380,40h20v20h-20Z" style="fill: rgb(120, 202, 188);"></path><path d="M400,40h20v20h-20Z" style="fill: rgb(96, 193, 191);"></path><path d="M420,40h20v20h-20Z" style="fill: rgb(162, 219, 184);"></path><path d="M440,40h20v20h-20Z" style="fill: rgb(201, 234, 181);"></path><path d="M460,40h20v20h-20Z" style="fill: rgb(206, 236, 180);"></path><path d="M480,40h20v20h-20Z" style="fill: rgb(160, 218, 184);"></path><path d="M500,40h20v20h-20Z" style="fill: rgb(206, 236, 180);"></path><path d="M520,40h20v20h-20Z" style="fill: rgb(144, 211, 185);"></path><path d="M540,40h20v20h-20Z" style="fill: rgb(134, 208, 187);"></path><path d="M560,40h20v20h-20Z" style="fill: rgb(190, 229, 181);"></path><path d="M580,40h20v20h-20Z" style="fill: rgb(99, 194, 191);"></path><path d="M600,40h20v20h-20Z" style="fill: rgb(40, 147, 189);"></path><path d="M0,60h20v20h-20Z" style="fill: rgb(106, 197, 190);"></path><path d="M20,60h20v20h-20Z" style="fill: rgb(208, 237, 180);"></path><path d="M40,60h20v20h-20Z" style="fill: rgb(176, 224, 182);"></path><path d="M60,60h20v20h-20Z" style="fill: rgb(33, 131, 184);"></path><path d="M80,60h20v20h-20Z" style="fill: rgb(164, 219, 183);"></path><path d="M100,60h20v20h-20Z" style="fill: rgb(135, 208, 186);"></path><path d="M120,60h20v20h-20Z" style="fill: rgb(197, 232, 181);"></path><path d="M140,60h20v20h-20Z" style="fill: rgb(206, 236, 180);"></path><path d="M160,60h20v20h-20Z" style="fill: rgb(183, 227, 182);"></path><path d="M180,60h20v20h-20Z" style="fill: rgb(68, 180, 194);"></path><path d="M200,60h20v20h-20Z" style="fill: rgb(93, 192, 191);"></path><path d="M220,60h20v20h-20Z" style="fill: rgb(183, 227, 182);"></path><path d="M240,60h20v20h-20Z" style="fill: rgb(196, 232, 181);"></path><path d="M260,60h20v20h-20Z" style="fill: rgb(217, 240, 180);"></path><path d="M280,60h20v20h-20Z" style="fill: rgb(228, 245, 184);"></path><path d="M300,60h20v20h-20Z" style="fill: rgb(222, 242, 181);"></path><path d="M320,60h20v20h-20Z" style="fill: rgb(218, 240, 180);"></path><path d="M340,60h20v20h-20Z" style="fill: rgb(204, 235, 181);"></path><path d="M360,60h20v20h-20Z" style="fill: rgb(215, 240, 180);"></path><path d="M380,60h20v20h-20Z" style="fill: rgb(181, 226, 182);"></path><path d="M400,60h20v20h-20Z" style="fill: rgb(212, 238, 180);"></path><path d="M420,60h20v20h-20Z" style="fill: rgb(229, 245, 185);"></path><path d="M440,60h20v20h-20Z" style="fill: rgb(217, 240, 180);"></path><path d="M460,60h20v20h-20Z" style="fill: rgb(210, 238, 180);"></path><path d="M480,60h20v20h-20Z" style="fill: rgb(136, 209, 186);"></path><path d="M500,60h20v20h-20Z" style="fill: rgb(196, 232, 181);"></path><path d="M520,60h20v20h-20Z" style="fill: rgb(204, 235, 181);"></path><path d="M540,60h20v20h-20Z" style="fill: rgb(110, 199, 189);"></path><path d="M560,60h20v20h-20Z" style="fill: rgb(219, 241, 180);"></path><path d="M580,60h20v20h-20Z" style="fill: rgb(226, 244, 183);"></path><path d="M0,80h20v20h-20Z" style="fill: rgb(208, 237, 180);"></path><path d="M20,80h20v20h-20Z" style="fill: rgb(44, 158, 192);"></path><path d="M40,80h20v20h-20Z" style="fill: rgb(202, 234, 181);"></path><path d="M60,80h20v20h-20Z" style="fill: rgb(210, 237, 180);"></path><path d="M80,80h20v20h-20Z" style="fill: rgb(208, 236, 180);"></path><path d="M100,80h20v20h-20Z" style="fill: rgb(221, 242, 181);"></path><path d="M120,80h20v20h-20Z" style="fill: rgb(191, 230, 181);"></path><path d="M140,80h20v20h-20Z" style="fill: rgb(206, 236, 180);"></path><path d="M160,80h20v20h-20Z" style="fill: rgb(161, 218, 184);"></path><path d="M180,80h20v20h-20Z" style="fill: rgb(222, 242, 181);"></path><path d="M200,80h20v20h-20Z" style="fill: rgb(169, 221, 183);"></path><path d="M220,80h20v20h-20Z" style="fill: rgb(151, 214, 185);"></path><path d="M240,80h20v20h-20Z" style="fill: rgb(220, 241, 180);"></path><path d="M260,80h20v20h-20Z" style="fill: rgb(190, 229, 181);"></path><path d="M280,80h20v20h-20Z" style="fill: rgb(197, 232, 181);"></path><path d="M300,80h20v20h-20Z" style="fill: rgb(133, 208, 187);"></path><path d="M320,80h20v20h-20Z" style="fill: rgb(223, 243, 182);"></path><path d="M340,80h20v20h-20Z" style="fill: rgb(194, 231, 181);"></path><path d="M360,80h20v20h-20Z" style="fill: rgb(197, 232, 181);"></path><path d="M380,80h20v20h-20Z" style="fill: rgb(169, 221, 183);"></path><path d="M400,80h20v20h-20Z" style="fill: rgb(208, 236, 180);"></path><path d="M420,80h20v20h-20Z" style="fill: rgb(136, 208, 186);"></path><path d="M440,80h20v20h-20Z" style="fill: rgb(170, 221, 183);"></path><path d="M460,80h20v20h-20Z" style="fill: rgb(214, 239, 180);"></path><path d="M480,80h20v20h-20Z" style="fill: rgb(236, 248, 188);"></path><path d="M500,80h20v20h-20Z" style="fill: rgb(221, 242, 181);"></path><path d="M520,80h20v20h-20Z" style="fill: rgb(110, 199, 189);"></path><path d="M540,80h20v20h-20Z" style="fill: rgb(216, 240, 180);"></path><path d="M560,80h20v20h-20Z" style="fill: rgb(222, 242, 181);"></path><path d="M580,80h20v20h-20Z" style="fill: rgb(173, 223, 183);"></path><path d="M600,80h20v20h-20Z" style="fill: rgb(150, 214, 185);"></path><path d="M0,100h20v20h-20Z" style="fill: rgb(193, 230, 181);"></path><path d="M20,100h20v20h-20Z" style="fill: rgb(222, 242, 182);"></path><path d="M40,100h20v20h-20Z" style="fill: rgb(163, 219, 184);"></path><path d="M60,100h20v20h-20Z" style="fill: rgb(76, 183, 193);"></path><path d="M80,100h20v20h-20Z" style="fill: rgb(107, 198, 190);"></path><path d="M100,100h20v20h-20Z" style="fill: rgb(101, 195, 190);"></path><path d="M120,100h20v20h-20Z" style="fill: rgb(164, 219, 183);"></path><path d="M140,100h20v20h-20Z" style="fill: rgb(70, 180, 194);"></path><path d="M160,100h20v20h-20Z" style="fill: rgb(93, 191, 191);"></path><path d="M180,100h20v20h-20Z" style="fill: rgb(112, 199, 189);"></path><path d="M200,100h20v20h-20Z" style="fill: rgb(167, 221, 183);"></path><path d="M220,100h20v20h-20Z" style="fill: rgb(164, 219, 183);"></path><path d="M240,100h20v20h-20Z" style="fill: rgb(99, 194, 191);"></path><path d="M260,100h20v20h-20Z" style="fill: rgb(140, 210, 186);"></path><path d="M280,100h20v20h-20Z" style="fill: rgb(89, 189, 192);"></path><path d="M300,100h20v20h-20Z" style="fill: rgb(66, 177, 194);"></path><path d="M320,100h20v20h-20Z" style="fill: rgb(158, 217, 184);"></path><path d="M340,100h20v20h-20Z" style="fill: rgb(173, 223, 183);"></path><path d="M360,100h20v20h-20Z" style="fill: rgb(112, 199, 189);"></path><path d="M380,100h20v20h-20Z" style="fill: rgb(167, 221, 183);"></path><path d="M400,100h20v20h-20Z" style="fill: rgb(161, 218, 184);"></path><path d="M420,100h20v20h-20Z" style="fill: rgb(68, 179, 194);"></path><path d="M440,100h20v20h-20Z" style="fill: rgb(88, 189, 192);"></path><path d="M460,100h20v20h-20Z" style="fill: rgb(171, 222, 183);"></path><path d="M480,100h20v20h-20Z" style="fill: rgb(157, 217, 184);"></path><path d="M500,100h20v20h-20Z" style="fill: rgb(71, 181, 194);"></path><path d="M520,100h20v20h-20Z" style="fill: rgb(92, 191, 191);"></path><path d="M540,100h20v20h-20Z" style="fill: rgb(131, 207, 187);"></path><path d="M560,100h20v20h-20Z" style="fill: rgb(64, 176, 194);"></path><path d="M580,100h20v20h-20Z" style="fill: rgb(180, 225, 182);"></path><path d="M0,120h20v20h-20Z" style="fill: rgb(212, 238, 180);"></path><path d="M20,120h20v20h-20Z" style="fill: rgb(163, 219, 184);"></path><path d="M40,120h20v20h-20Z" style="fill: rgb(198, 233, 181);"></path><path d="M60,120h20v20h-20Z" style="fill: rgb(230, 245, 185);"></path><path d="M80,120h20v20h-20Z" style="fill: rgb(210, 238, 180);"></path><path d="M100,120h20v20h-20Z" style="fill: rgb(78, 184, 193);"></path><path d="M120,120h20v20h-20Z" style="fill: rgb(92, 191, 191);"></path><path d="M140,120h20v20h-20Z" style="fill: rgb(86, 188, 192);"></path><path d="M160,120h20v20h-20Z" style="fill: rgb(124, 204, 188);"></path><path d="M180,120h20v20h-20Z" style="fill: rgb(89, 190, 192);"></path><path d="M200,120h20v20h-20Z" style="fill: rgb(177, 224, 182);"></path><path d="M220,120h20v20h-20Z" style="fill: rgb(160, 218, 184);"></path><path d="M240,120h20v20h-20Z" style="fill: rgb(35, 135, 185);"></path><path d="M260,120h20v20h-20Z" style="fill: rgb(153, 215, 185);"></path><path d="M280,120h20v20h-20Z" style="fill: rgb(195, 231, 181);"></path><path d="M300,120h20v20h-20Z" style="fill: rgb(209, 237, 180);"></path><path d="M320,120h20v20h-20Z" style="fill: rgb(196, 232, 181);"></path><path d="M340,120h20v20h-20Z" style="fill: rgb(171, 222, 183);"></path><path d="M360,120h20v20h-20Z" style="fill: rgb(180, 226, 182);"></path><path d="M380,120h20v20h-20Z" style="fill: rgb(127, 205, 187);"></path><path d="M400,120h20v20h-20Z" style="fill: rgb(166, 220, 183);"></path><path d="M420,120h20v20h-20Z" style="fill: rgb(152, 215, 185);"></path><path d="M440,120h20v20h-20Z" style="fill: rgb(76, 183, 193);"></path><path d="M460,120h20v20h-20Z" style="fill: rgb(75, 183, 193);"></path><path d="M480,120h20v20h-20Z" style="fill: rgb(163, 219, 184);"></path><path d="M500,120h20v20h-20Z" style="fill: rgb(191, 230, 181);"></path><path d="M520,120h20v20h-20Z" style="fill: rgb(52, 165, 193);"></path><path d="M540,120h20v20h-20Z" style="fill: rgb(163, 219, 184);"></path><path d="M560,120h20v20h-20Z" style="fill: rgb(188, 229, 181);"></path><path d="M580,120h20v20h-20Z" style="fill: rgb(181, 226, 182);"></path><path d="M600,120h20v20h-20Z" style="fill: rgb(71, 181, 194);"></path><path d="M0,140h20v20h-20Z" style="fill: rgb(144, 211, 186);"></path><path d="M20,140h20v20h-20Z" style="fill: rgb(88, 189, 192);"></path><path d="M40,140h20v20h-20Z" style="fill: rgb(161, 218, 184);"></path><path d="M60,140h20v20h-20Z" style="fill: rgb(81, 186, 193);"></path><path d="M80,140h20v20h-20Z" style="fill: rgb(134, 208, 187);"></path><path d="M100,140h20v20h-20Z" style="fill: rgb(181, 226, 182);"></path><path d="M120,140h20v20h-20Z" style="fill: rgb(107, 198, 190);"></path><path d="M140,140h20v20h-20Z" style="fill: rgb(145, 212, 185);"></path><path d="M160,140h20v20h-20Z" style="fill: rgb(186, 228, 181);"></path><path d="M180,140h20v20h-20Z" style="fill: rgb(85, 188, 192);"></path><path d="M200,140h20v20h-20Z" style="fill: rgb(80, 185, 193);"></path><path d="M220,140h20v20h-20Z" style="fill: rgb(192, 230, 181);"></path><path d="M240,140h20v20h-20Z" style="fill: rgb(206, 236, 180);"></path><path d="M260,140h20v20h-20Z" style="fill: rgb(137, 209, 186);"></path><path d="M280,140h20v20h-20Z" style="fill: rgb(69, 180, 194);"></path><path d="M300,140h20v20h-20Z" style="fill: rgb(151, 214, 185);"></path><path d="M320,140h20v20h-20Z" style="fill: rgb(194, 231, 181);"></path><path d="M340,140h20v20h-20Z" style="fill: rgb(198, 232, 181);"></path><path d="M360,140h20v20h-20Z" style="fill: rgb(221, 242, 181);"></path><path d="M380,140h20v20h-20Z" style="fill: rgb(186, 228, 181);"></path><path d="M400,140h20v20h-20Z" style="fill: rgb(175, 224, 182);"></path><path d="M420,140h20v20h-20Z" style="fill: rgb(197, 232, 181);"></path><path d="M440,140h20v20h-20Z" style="fill: rgb(213, 238, 180);"></path><path d="M460,140h20v20h-20Z" style="fill: rgb(210, 237, 180);"></path><path d="M480,140h20v20h-20Z" style="fill: rgb(178, 225, 182);"></path><path d="M500,140h20v20h-20Z" style="fill: rgb(179, 225, 182);"></path><path d="M520,140h20v20h-20Z" style="fill: rgb(224, 243, 182);"></path><path d="M540,140h20v20h-20Z" style="fill: rgb(212, 238, 180);"></path><path d="M560,140h20v20h-20Z" style="fill: rgb(192, 230, 181);"></path><path d="M580,140h20v20h-20Z" style="fill: rgb(224, 243, 182);"></path><path d="M600,140h20v20h-20Z" style="fill: rgb(237, 248, 188);"></path><path d="M0,160h20v20h-20Z" style="fill: rgb(232, 246, 186);"></path><path d="M20,160h20v20h-20Z" style="fill: rgb(230, 245, 185);"></path><path d="M40,160h20v20h-20Z" style="fill: rgb(238, 249, 189);"></path><path d="M60,160h20v20h-20Z" style="fill: rgb(214, 239, 180);"></path><path d="M80,160h20v20h-20Z" style="fill: rgb(232, 246, 186);"></path><path d="M100,160h20v20h-20Z" style="fill: rgb(221, 242, 181);"></path><path d="M120,160h20v20h-20Z" style="fill: rgb(224, 243, 182);"></path><path d="M140,160h20v20h-20Z" style="fill: rgb(193, 231, 181);"></path><path d="M160,160h20v20h-20Z" style="fill: rgb(164, 219, 183);"></path><path d="M180,160h20v20h-20Z" style="fill: rgb(234, 247, 187);"></path><path d="M200,160h20v20h-20Z" style="fill: rgb(221, 242, 181);"></path><path d="M220,160h20v20h-20Z" style="fill: rgb(142, 211, 186);"></path><path d="M240,160h20v20h-20Z" style="fill: rgb(196, 232, 181);"></path><path d="M260,160h20v20h-20Z" style="fill: rgb(147, 213, 185);"></path><path d="M280,160h20v20h-20Z" style="fill: rgb(193, 230, 181);"></path><path d="M300,160h20v20h-20Z" style="fill: rgb(230, 245, 185);"></path><path d="M320,160h20v20h-20Z" style="fill: rgb(232, 246, 186);"></path><path d="M340,160h20v20h-20Z" style="fill: rgb(230, 245, 185);"></path><path d="M360,160h20v20h-20Z" style="fill: rgb(225, 243, 183);"></path><path d="M380,160h20v20h-20Z" style="fill: rgb(237, 248, 188);"></path><path d="M400,160h20v20h-20Z" style="fill: rgb(208, 237, 180);"></path><path d="M420,160h20v20h-20Z" style="fill: rgb(226, 244, 183);"></path><path d="M440,160h20v20h-20Z" style="fill: rgb(239, 249, 189);"></path><path d="M460,160h20v20h-20Z" style="fill: rgb(230, 245, 185);"></path><path d="M480,160h20v20h-20Z" style="fill: rgb(212, 238, 180);"></path><path d="M500,160h20v20h-20Z" style="fill: rgb(162, 219, 184);"></path><path d="M520,160h20v20h-20Z" style="fill: rgb(227, 244, 184);"></path><path d="M540,160h20v20h-20Z" style="fill: rgb(207, 236, 180);"></path><path d="M560,160h20v20h-20Z" style="fill: rgb(223, 243, 182);"></path><path d="M580,160h20v20h-20Z" style="fill: rgb(235, 247, 187);"></path><path d="M0,180h20v20h-20Z" style="fill: rgb(237, 248, 188);"></path><path d="M20,180h20v20h-20Z" style="fill: rgb(226, 244, 183);"></path><path d="M40,180h20v20h-20Z" style="fill: rgb(221, 242, 181);"></path><path d="M60,180h20v20h-20Z" style="fill: rgb(233, 247, 186);"></path><path d="M80,180h20v20h-20Z" style="fill: rgb(216, 240, 180);"></path><path d="M100,180h20v20h-20Z" style="fill: rgb(232, 246, 186);"></path><path d="M120,180h20v20h-20Z" style="fill: rgb(227, 244, 183);"></path><path d="M140,180h20v20h-20Z" style="fill: rgb(205, 235, 180);"></path><path d="M160,180h20v20h-20Z" style="fill: rgb(216, 240, 180);"></path><path d="M180,180h20v20h-20Z" style="fill: rgb(218, 241, 180);"></path><path d="M200,180h20v20h-20Z" style="fill: rgb(227, 244, 183);"></path><path d="M220,180h20v20h-20Z" style="fill: rgb(220, 242, 181);"></path><path d="M240,180h20v20h-20Z" style="fill: rgb(225, 243, 183);"></path><path d="M260,180h20v20h-20Z" style="fill: rgb(235, 248, 187);"></path><path d="M280,180h20v20h-20Z" style="fill: rgb(202, 234, 181);"></path><path d="M300,180h20v20h-20Z" style="fill: rgb(201, 234, 181);"></path><path d="M320,180h20v20h-20Z" style="fill: rgb(214, 239, 180);"></path><path d="M340,180h20v20h-20Z" style="fill: rgb(234, 247, 187);"></path><path d="M360,180h20v20h-20Z" style="fill: rgb(222, 242, 181);"></path><path d="M380,180h20v20h-20Z" style="fill: rgb(226, 244, 183);"></path><path d="M400,180h20v20h-20Z" style="fill: rgb(234, 247, 187);"></path><path d="M420,180h20v20h-20Z" style="fill: rgb(210, 237, 180);"></path><path d="M440,180h20v20h-20Z" style="fill: rgb(223, 243, 182);"></path><path d="M460,180h20v20h-20Z" style="fill: rgb(139, 210, 186);"></path><path d="M480,180h20v20h-20Z" style="fill: rgb(207, 236, 180);"></path><path d="M500,180h20v20h-20Z" style="fill: rgb(195, 231, 181);"></path><path d="M520,180h20v20h-20Z" style="fill: rgb(195, 231, 181);"></path><path d="M540,180h20v20h-20Z" style="fill: rgb(196, 232, 181);"></path><path d="M560,180h20v20h-20Z" style="fill: rgb(231, 246, 185);"></path><path d="M580,180h20v20h-20Z" style="fill: rgb(227, 244, 183);"></path><path d="M600,180h20v20h-20Z" style="fill: rgb(228, 245, 184);"></path><path d="M0,200h20v20h-20Z" style="fill: rgb(226, 244, 183);"></path><path d="M20,200h20v20h-20Z" style="fill: rgb(200, 233, 181);"></path><path d="M40,200h20v20h-20Z" style="fill: rgb(226, 244, 183);"></path><path d="M60,200h20v20h-20Z" style="fill: rgb(237, 248, 188);"></path><path d="M80,200h20v20h-20Z" style="fill: rgb(232, 246, 186);"></path><path d="M100,200h20v20h-20Z" style="fill: rgb(177, 224, 182);"></path><path d="M120,200h20v20h-20Z" style="fill: rgb(189, 229, 181);"></path><path d="M140,200h20v20h-20Z" style="fill: rgb(224, 243, 182);"></path><path d="M160,200h20v20h-20Z" style="fill: rgb(196, 232, 181);"></path><path d="M180,200h20v20h-20Z" style="fill: rgb(224, 243, 182);"></path><path d="M200,200h20v20h-20Z" style="fill: rgb(216, 240, 180);"></path><path d="M220,200h20v20h-20Z" style="fill: rgb(212, 238, 180);"></path><path d="M240,200h20v20h-20Z" style="fill: rgb(173, 223, 183);"></path><path d="M260,200h20v20h-20Z" style="fill: rgb(95, 192, 191);"></path><path d="M280,200h20v20h-20Z" style="fill: rgb(215, 240, 180);"></path><path d="M300,200h20v20h-20Z" style="fill: rgb(210, 238, 180);"></path><path d="M320,200h20v20h-20Z" style="fill: rgb(229, 245, 185);"></path><path d="M340,200h20v20h-20Z" style="fill: rgb(236, 248, 188);"></path><path d="M360,200h20v20h-20Z" style="fill: rgb(228, 245, 184);"></path><path d="M380,200h20v20h-20Z" style="fill: rgb(214, 239, 180);"></path><path d="M400,200h20v20h-20Z" style="fill: rgb(198, 233, 181);"></path><path d="M420,200h20v20h-20Z" style="fill: rgb(208, 237, 180);"></path><path d="M440,200h20v20h-20Z" style="fill: rgb(233, 247, 186);"></path><path d="M460,200h20v20h-20Z" style="fill: rgb(228, 245, 184);"></path><path d="M480,200h20v20h-20Z" style="fill: rgb(222, 242, 181);"></path><path d="M500,200h20v20h-20Z" style="fill: rgb(226, 244, 183);"></path><path d="M520,200h20v20h-20Z" style="fill: rgb(237, 248, 188);"></path><path d="M540,200h20v20h-20Z" style="fill: rgb(238, 249, 188);"></path><path d="M560,200h20v20h-20Z" style="fill: rgb(198, 233, 181);"></path><path d="M580,200h20v20h-20Z" style="fill: rgb(35, 77, 159);"></path><path d="M0,220h20v20h-20Z" style="fill: rgb(34, 92, 166);"></path><path d="M20,220h20v20h-20Z" style="fill: rgb(198, 233, 181);"></path><path d="M40,220h20v20h-20Z" style="fill: rgb(216, 240, 180);"></path><path d="M60,220h20v20h-20Z" style="fill: rgb(207, 236, 180);"></path><path d="M80,220h20v20h-20Z" style="fill: rgb(221, 242, 181);"></path><path d="M100,220h20v20h-20Z" style="fill: rgb(226, 244, 183);"></path><path d="M120,220h20v20h-20Z" style="fill: rgb(196, 232, 181);"></path><path d="M140,220h20v20h-20Z" style="fill: rgb(222, 242, 181);"></path><path d="M160,220h20v20h-20Z" style="fill: rgb(193, 231, 181);"></path><path d="M180,220h20v20h-20Z" style="fill: rgb(120, 203, 188);"></path><path d="M200,220h20v20h-20Z" style="fill: rgb(136, 209, 186);"></path><path d="M220,220h20v20h-20Z" style="fill: rgb(184, 227, 181);"></path><path d="M240,220h20v20h-20Z" style="fill: rgb(215, 239, 180);"></path><path d="M260,220h20v20h-20Z" style="fill: rgb(166, 220, 183);"></path><path d="M280,220h20v20h-20Z" style="fill: rgb(77, 184, 193);"></path><path d="M300,220h20v20h-20Z" style="fill: rgb(70, 180, 194);"></path><path d="M320,220h20v20h-20Z" style="fill: rgb(50, 164, 193);"></path><path d="M340,220h20v20h-20Z" style="fill: rgb(39, 145, 188);"></path><path d="M360,220h20v20h-20Z" style="fill: rgb(28, 49, 133);"></path><path d="M380,220h20v20h-20Z" style="fill: rgb(35, 77, 159);"></path><path d="M400,220h20v20h-20Z" style="fill: rgb(28, 49, 133);"></path><path d="M420,220h20v20h-20Z" style="fill: rgb(33, 98, 170);"></path><path d="M440,220h20v20h-20Z" style="fill: rgb(34, 68, 153);"></path><path d="M460,220h20v20h-20Z" style="fill: rgb(33, 92, 167);"></path><path d="M480,220h20v20h-20Z" style="fill: rgb(152, 215, 185);"></path><path d="M500,220h20v20h-20Z" style="fill: rgb(33, 108, 174);"></path><path d="M520,220h20v20h-20Z" style="fill: rgb(35, 73, 157);"></path><path d="M540,220h20v20h-20Z" style="fill: rgb(102, 196, 190);"></path><path d="M560,220h20v20h-20Z" style="fill: rgb(191, 230, 181);"></path><path d="M580,220h20v20h-20Z" style="fill: rgb(157, 216, 184);"></path><path d="M600,220h20v20h-20Z" style="fill: rgb(140, 210, 186);"></path></g><g class="mark-group role-legend"><g transform="translate(638,0)"><path class="background" d="M0,0h108v221h-108Z" style="pointer-events: none; fill: none;"></path><g><g class="mark-group role-legend-entry"><g transform="translate(0,16)"><path class="background" d="M0,0h0v0h0Z" style="pointer-events: none; fill: none;"></path><g><g class="mark-rect role-legend-gradient" style="pointer-events: none;"><path d="M0,0h16v200h-16Z" style="fill: url(#gradient_0); stroke: #ddd; stroke-width: 0; opacity: 1;"></path></g><g class="mark-text role-legend-label" style="pointer-events: none;"><text text-anchor="start" transform="translate(18,202.9602233622553)" style="font-family: sans-serif; font-size: 10px; fill: #000; opacity: 1;">0</text><text text-anchor="start" transform="translate(18,151.5110024980894)" style="font-family: sans-serif; font-size: 10px; fill: #000; opacity: 1;">10</text><text text-anchor="start" transform="translate(18,100.06178163392349)" style="font-family: sans-serif; font-size: 10px; fill: #000; opacity: 1;">20</text><text text-anchor="start" transform="translate(18,48.61256076975759)" style="font-family: sans-serif; font-size: 10px; fill: #000; opacity: 1;">30</text></g></g><path class="foreground" d="" style="pointer-events: none; display: none; fill: none;"></path></g></g><g class="mark-text role-legend-title" style="pointer-events: none;"><text text-anchor="start" transform="translate(0,9)" style="font-family: sans-serif; font-size: 11px; font-weight: bold; fill: #000; opacity: 1;">Average of depdelay</text></g></g><path class="foreground" d="" style="pointer-events: none; display: none; fill: none;"></path></g></g><g class="mark-group role-axis"><g transform="translate(0.5,240.5)"><path class="background" d="M0,0h0v0h0Z" style="pointer-events: none; fill: none;"></path><g><g class="mark-rule role-axis-tick" style="pointer-events: none;"><line transform="translate(10,0)" x2="0" y2="5" style="fill: none; stroke: #888; stroke-width: 1; opacity: 1;"></line><line transform="translate(30,0)" x2="0" y2="5" style="fill: none; stroke: #888; stroke-width: 1; opacity: 1;"></line><line transform="translate(50,0)" x2="0" y2="5" style="fill: none; stroke: #888; stroke-width: 1; opacity: 1;"></line><line transform="translate(70,0)" x2="0" y2="5" style="fill: none; stroke: #888; stroke-width: 1; opacity: 1;"></line><line transform="translate(90,0)" x2="0" y2="5" style="fill: none; stroke: #888; stroke-width: 1; opacity: 1;"></line><line transform="translate(110,0)" x2="0" y2="5" style="fill: none; stroke: #888; stroke-width: 1; opacity: 1;"></line><line transform="translate(130,0)" x2="0" y2="5" style="fill: none; stroke: #888; stroke-width: 1; opacity: 1;"></line><line transform="translate(150,0)" x2="0" y2="5" style="fill: none; stroke: #888; stroke-width: 1; opacity: 1;"></line><line transform="translate(170,0)" x2="0" y2="5" style="fill: none; stroke: #888; stroke-width: 1; opacity: 1;"></line><line transform="translate(190,0)" x2="0" y2="5" style="fill: none; stroke: #888; stroke-width: 1; opacity: 1;"></line><line transform="translate(210,0)" x2="0" y2="5" style="fill: none; stroke: #888; stroke-width: 1; opacity: 1;"></line><line transform="translate(230,0)" x2="0" y2="5" style="fill: none; stroke: #888; stroke-width: 1; opacity: 1;"></line><line transform="translate(250,0)" x2="0" y2="5" style="fill: none; stroke: #888; stroke-width: 1; opacity: 1;"></line><line transform="translate(270,0)" x2="0" y2="5" style="fill: none; stroke: #888; stroke-width: 1; opacity: 1;"></line><line transform="translate(290,0)" x2="0" y2="5" style="fill: none; stroke: #888; stroke-width: 1; opacity: 1;"></line><line transform="translate(310,0)" x2="0" y2="5" style="fill: none; stroke: #888; stroke-width: 1; opacity: 1;"></line><line transform="translate(330,0)" x2="0" y2="5" style="fill: none; stroke: #888; stroke-width: 1; opacity: 1;"></line><line transform="translate(350,0)" x2="0" y2="5" style="fill: none; stroke: #888; stroke-width: 1; opacity: 1;"></line><line transform="translate(370,0)" x2="0" y2="5" style="fill: none; stroke: #888; stroke-width: 1; opacity: 1;"></line><line transform="translate(390,0)" x2="0" y2="5" style="fill: none; stroke: #888; stroke-width: 1; opacity: 1;"></line><line transform="translate(410,0)" x2="0" y2="5" style="fill: none; stroke: #888; stroke-width: 1; opacity: 1;"></line><line transform="translate(430,0)" x2="0" y2="5" style="fill: none; stroke: #888; stroke-width: 1; opacity: 1;"></line><line transform="translate(450,0)" x2="0" y2="5" style="fill: none; stroke: #888; stroke-width: 1; opacity: 1;"></line><line transform="translate(470,0)" x2="0" y2="5" style="fill: none; stroke: #888; stroke-width: 1; opacity: 1;"></line><line transform="translate(490,0)" x2="0" y2="5" style="fill: none; stroke: #888; stroke-width: 1; opacity: 1;"></line><line transform="translate(510,0)" x2="0" y2="5" style="fill: none; stroke: #888; stroke-width: 1; opacity: 1;"></line><line transform="translate(530,0)" x2="0" y2="5" style="fill: none; stroke: #888; stroke-width: 1; opacity: 1;"></line><line transform="translate(550,0)" x2="0" y2="5" style="fill: none; stroke: #888; stroke-width: 1; opacity: 1;"></line><line transform="translate(570,0)" x2="0" y2="5" style="fill: none; stroke: #888; stroke-width: 1; opacity: 1;"></line><line transform="translate(590,0)" x2="0" y2="5" style="fill: none; stroke: #888; stroke-width: 1; opacity: 1;"></line><line transform="translate(610,0)" x2="0" y2="5" style="fill: none; stroke: #888; stroke-width: 1; opacity: 1;"></line></g><g class="mark-text role-axis-label" style="pointer-events: none;"><text text-anchor="end" transform="translate(9.5,7) rotate(270) translate(0,3)" style="font-family: sans-serif; font-size: 10px; fill: #000; opacity: 1;">1</text><text text-anchor="end" transform="translate(29.5,7) rotate(270) translate(0,3)" style="font-family: sans-serif; font-size: 10px; fill: #000; opacity: 1;">2</text><text text-anchor="end" transform="translate(49.5,7) rotate(270) translate(0,3)" style="font-family: sans-serif; font-size: 10px; fill: #000; opacity: 1;">3</text><text text-anchor="end" transform="translate(69.5,7) rotate(270) translate(0,3)" style="font-family: sans-serif; font-size: 10px; fill: #000; opacity: 1;">4</text><text text-anchor="end" transform="translate(89.5,7) rotate(270) translate(0,3)" style="font-family: sans-serif; font-size: 10px; fill: #000; opacity: 1;">5</text><text text-anchor="end" transform="translate(109.5,7) rotate(270) translate(0,3)" style="font-family: sans-serif; font-size: 10px; fill: #000; opacity: 1;">6</text><text text-anchor="end" transform="translate(129.5,7) rotate(270) translate(0,3)" style="font-family: sans-serif; font-size: 10px; fill: #000; opacity: 1;">7</text><text text-anchor="end" transform="translate(149.5,7) rotate(270) translate(0,3)" style="font-family: sans-serif; font-size: 10px; fill: #000; opacity: 1;">8</text><text text-anchor="end" transform="translate(169.5,7) rotate(270) translate(0,3)" style="font-family: sans-serif; font-size: 10px; fill: #000; opacity: 1;">9</text><text text-anchor="end" transform="translate(189.5,7) rotate(270) translate(0,3)" style="font-family: sans-serif; font-size: 10px; fill: #000; opacity: 1;">10</text><text text-anchor="end" transform="translate(209.5,7) rotate(270) translate(0,3)" style="font-family: sans-serif; font-size: 10px; fill: #000; opacity: 1;">11</text><text text-anchor="end" transform="translate(229.5,7) rotate(270) translate(0,3)" style="font-family: sans-serif; font-size: 10px; fill: #000; opacity: 1;">12</text><text text-anchor="end" transform="translate(249.5,7) rotate(270) translate(0,3)" style="font-family: sans-serif; font-size: 10px; fill: #000; opacity: 1;">13</text><text text-anchor="end" transform="translate(269.5,7) rotate(270) translate(0,3)" style="font-family: sans-serif; font-size: 10px; fill: #000; opacity: 1;">14</text><text text-anchor="end" transform="translate(289.5,7) rotate(270) translate(0,3)" style="font-family: sans-serif; font-size: 10px; fill: #000; opacity: 1;">15</text><text text-anchor="end" transform="translate(309.5,7) rotate(270) translate(0,3)" style="font-family: sans-serif; font-size: 10px; fill: #000; opacity: 1;">16</text><text text-anchor="end" transform="translate(329.5,7) rotate(270) translate(0,3)" style="font-family: sans-serif; font-size: 10px; fill: #000; opacity: 1;">17</text><text text-anchor="end" transform="translate(349.5,7) rotate(270) translate(0,3)" style="font-family: sans-serif; font-size: 10px; fill: #000; opacity: 1;">18</text><text text-anchor="end" transform="translate(369.5,7) rotate(270) translate(0,3)" style="font-family: sans-serif; font-size: 10px; fill: #000; opacity: 1;">19</text><text text-anchor="end" transform="translate(389.5,7) rotate(270) translate(0,3)" style="font-family: sans-serif; font-size: 10px; fill: #000; opacity: 1;">20</text><text text-anchor="end" transform="translate(409.5,7) rotate(270) translate(0,3)" style="font-family: sans-serif; font-size: 10px; fill: #000; opacity: 1;">21</text><text text-anchor="end" transform="translate(429.5,7) rotate(270) translate(0,3)" style="font-family: sans-serif; font-size: 10px; fill: #000; opacity: 1;">22</text><text text-anchor="end" transform="translate(449.5,7) rotate(270) translate(0,3)" style="font-family: sans-serif; font-size: 10px; fill: #000; opacity: 1;">23</text><text text-anchor="end" transform="translate(469.5,7) rotate(270) translate(0,3)" style="font-family: sans-serif; font-size: 10px; fill: #000; opacity: 1;">24</text><text text-anchor="end" transform="translate(489.5,7) rotate(270) translate(0,3)" style="font-family: sans-serif; font-size: 10px; fill: #000; opacity: 1;">25</text><text text-anchor="end" transform="translate(509.5,7) rotate(270) translate(0,3)" style="font-family: sans-serif; font-size: 10px; fill: #000; opacity: 1;">26</text><text text-anchor="end" transform="translate(529.5,7) rotate(270) translate(0,3)" style="font-family: sans-serif; font-size: 10px; fill: #000; opacity: 1;">27</text><text text-anchor="end" transform="translate(549.5,7) rotate(270) translate(0,3)" style="font-family: sans-serif; font-size: 10px; fill: #000; opacity: 1;">28</text><text text-anchor="end" transform="translate(569.5,7) rotate(270) translate(0,3)" style="font-family: sans-serif; font-size: 10px; fill: #000; opacity: 1;">29</text><text text-anchor="end" transform="translate(589.5,7) rotate(270) translate(0,3)" style="font-family: sans-serif; font-size: 10px; fill: #000; opacity: 1;">30</text><text text-anchor="end" transform="translate(609.5,7) rotate(270) translate(0,3)" style="font-family: sans-serif; font-size: 10px; fill: #000; opacity: 1;">31</text></g><g class="mark-rule role-axis-domain" style="pointer-events: none;"><line transform="translate(0,0)" x2="620" y2="0" style="fill: none; stroke: #888; stroke-width: 1; opacity: 1;"></line></g><g class="mark-text role-axis-title" style="pointer-events: none;"><text text-anchor="middle" transform="translate(310,31.123046875)" style="font-family: sans-serif; font-size: 11px; font-weight: bold; fill: #000; opacity: 1;">flight_dayofmonth</text></g></g><path class="foreground" d="" style="pointer-events: none; display: none; fill: none;"></path></g></g><g class="mark-group role-axis"><g transform="translate(0.5,0.5)"><path class="background" d="M0,0h0v0h0Z" style="pointer-events: none; fill: none;"></path><g><g class="mark-rule role-axis-tick" style="pointer-events: none;"><line transform="translate(0,10)" x2="-5" y2="0" style="fill: none; stroke: #888; stroke-width: 1; opacity: 1;"></line><line transform="translate(0,30)" x2="-5" y2="0" style="fill: none; stroke: #888; stroke-width: 1; opacity: 1;"></line><line transform="translate(0,50)" x2="-5" y2="0" style="fill: none; stroke: #888; stroke-width: 1; opacity: 1;"></line><line transform="translate(0,70)" x2="-5" y2="0" style="fill: none; stroke: #888; stroke-width: 1; opacity: 1;"></line><line transform="translate(0,90)" x2="-5" y2="0" style="fill: none; stroke: #888; stroke-width: 1; opacity: 1;"></line><line transform="translate(0,110)" x2="-5" y2="0" style="fill: none; stroke: #888; stroke-width: 1; opacity: 1;"></line><line transform="translate(0,130)" x2="-5" y2="0" style="fill: none; stroke: #888; stroke-width: 1; opacity: 1;"></line><line transform="translate(0,150)" x2="-5" y2="0" style="fill: none; stroke: #888; stroke-width: 1; opacity: 1;"></line><line transform="translate(0,170)" x2="-5" y2="0" style="fill: none; stroke: #888; stroke-width: 1; opacity: 1;"></line><line transform="translate(0,190)" x2="-5" y2="0" style="fill: none; stroke: #888; stroke-width: 1; opacity: 1;"></line><line transform="translate(0,210)" x2="-5" y2="0" style="fill: none; stroke: #888; stroke-width: 1; opacity: 1;"></line><line transform="translate(0,230)" x2="-5" y2="0" style="fill: none; stroke: #888; stroke-width: 1; opacity: 1;"></line></g><g class="mark-text role-axis-label" style="pointer-events: none;"><text text-anchor="end" transform="translate(-7,12.5)" style="font-family: sans-serif; font-size: 10px; fill: #000; opacity: 1;">1</text><text text-anchor="end" transform="translate(-7,32.5)" style="font-family: sans-serif; font-size: 10px; fill: #000; opacity: 1;">2</text><text text-anchor="end" transform="translate(-7,52.5)" style="font-family: sans-serif; font-size: 10px; fill: #000; opacity: 1;">3</text><text text-anchor="end" transform="translate(-7,72.5)" style="font-family: sans-serif; font-size: 10px; fill: #000; opacity: 1;">4</text><text text-anchor="end" transform="translate(-7,92.5)" style="font-family: sans-serif; font-size: 10px; fill: #000; opacity: 1;">5</text><text text-anchor="end" transform="translate(-7,112.5)" style="font-family: sans-serif; font-size: 10px; fill: #000; opacity: 1;">6</text><text text-anchor="end" transform="translate(-7,132.5)" style="font-family: sans-serif; font-size: 10px; fill: #000; opacity: 1;">7</text><text text-anchor="end" transform="translate(-7,152.5)" style="font-family: sans-serif; font-size: 10px; fill: #000; opacity: 1;">8</text><text text-anchor="end" transform="translate(-7,172.5)" style="font-family: sans-serif; font-size: 10px; fill: #000; opacity: 1;">9</text><text text-anchor="end" transform="translate(-7,192.5)" style="font-family: sans-serif; font-size: 10px; fill: #000; opacity: 1;">10</text><text text-anchor="end" transform="translate(-7,212.5)" style="font-family: sans-serif; font-size: 10px; fill: #000; opacity: 1;">11</text><text text-anchor="end" transform="translate(-7,232.5)" style="font-family: sans-serif; font-size: 10px; fill: #000; opacity: 1;">12</text></g><g class="mark-rule role-axis-domain" style="pointer-events: none;"><line transform="translate(0,0)" x2="0" y2="240" style="fill: none; stroke: #888; stroke-width: 1; opacity: 1;"></line></g><g class="mark-text role-axis-title" style="pointer-events: none;"><text text-anchor="middle" transform="translate(-22.123046875,120) rotate(-90) translate(0,-2)" style="font-family: sans-serif; font-size: 11px; font-weight: bold; fill: #000; opacity: 1;">flight_month</text></g></g><path class="foreground" d="" style="pointer-events: none; display: none; fill: none;"></path></g></g></g><path class="foreground" d="" style="display: none; fill: none;"></path></g></g></g></svg>