<svg class="marks" width="1328" height="354" viewBox="0 0 1328 354" version="1.1" xmlns="http://www.w3.org/2000/svg" xmlns:xlink="http://www.w3.org/1999/xlink"><rect width="1328" height="354" style="fill: white;"></rect><g transform="translate(58,10)"><g class="mark-group role-frame root"><g transform="translate(0,0)"><path class="background" d="M0.5,0.5h1120v300h-1120Z" style="fill: none; stroke: #ddd;"></path><g><g class="mark-group role-axis"><g transform="translate(0.5,300.5)"><path class="background" d="M0,0h0v0h0Z" style="pointer-events: none; fill: none;"></path><g><g class="mark-rule role-axis-tick" style="pointer-events: none;"><line transform="translate(10,0)" x2="0" y2="5" style="fill: none; stroke: #888; stroke-width: 1; opacity: 1;"></line><line transform="translate(30,0)" x2="0" y2="5" style="fill: none; stroke: #888; stroke-width: 1; opacity: 1;"></line><line transform="translate(50,0)" x2="0" y2="5" style="fill: none; stroke: #888; stroke-width: 1; opacity: 1;"></line><line transform="translate(70,0)" x2="0" y2="5" style="fill: none; stroke: #888; stroke-width: 1; opacity: 1;"></line><line transform="translate(90,0)" x2="0" y2="5" style="fill: none; stroke: #888; stroke-width: 1; opacity: 1;"></line><line transform="translate(110,0)" x2="0" y2="5" style="fill: none; stroke: #888; stroke-width: 1; opacity: 1;"></line><line transform="translate(130,0)" x2="0" y2="5" style="fill: none; stroke: #888; stroke-width: 1; opacity: 1;"></line><line transform="translate(150,0)" x2="0" y2="5" style="fill: none; stroke: #888; stroke-width: 1; opacity: 1;"></line><line transform="translate(170,0)" x2="0" y2="5" style="fill: none; stroke: #888; stroke-width: 1; opacity: 1;"></line><line transform="translate(190,0)" x2="0" y2="5" style="fill: none; stroke: #888; stroke-width: 1; opacity: 1;"></line><line transform="translate(210,0)" x2="0" y2="5" style="fill: none; stroke: #888; stroke-width: 1; opacity: 1;"></line><line transform="translate(230,0)" x2="0" y2="5" style="fill: none; stroke: #888; stroke-width: 1; opacity: 1;"></line><line transform="translate(250,0)" x2="0" y2="5" style="fill: none; stroke: #888; stroke-width: 1; opacity: 1;"></line><line transform="translate(270,0)" x2="0" y2="5" style="fill: none; stroke: #888; stroke-width: 1; opacity: 1;"></line><line transform="translate(290,0)" x2="0" y2="5" style="fill: none; stroke: #888; stroke-width: 1; opacity: 1;"></line><line transform="translate(310,0)" x2="0" y2="5" style="fill: none; stroke: #888; stroke-width: 1; opacity: 1;"></line><line transform="translate(330,0)" x2="0" y2="5" style="fill: none; stroke: #888; stroke-width: 1; opacity: 1;"></line><line transform="translate(350,0)" x2="0" y2="5" style="fill: none; stroke: #888; stroke-width: 1; opacity: 1;"></line><line transform="translate(370,0)" x2="0" y2="5" style="fill: none; stroke: #888; stroke-width: 1; opacity: 1;"></line><line transform="translate(390,0)" x2="0" y2="5" style="fill: none; stroke: #888; stroke-width: 1; opacity: 1;"></line><line transform="translate(410,0)" x2="0" y2="5" style="fill: none; stroke: #888; stroke-width: 1; opacity: 1;"></line><line transform="translate(430,0)" x2="0" y2="5" style="fill: none; stroke: #888; stroke-width: 1; opacity: 1;"></line><line transform="translate(450,0)" x2="0" y2="5" style="fill: none; stroke: #888; stroke-width: 1; opacity: 1;"></line><line transform="translate(470,0)" x2="0" y2="5" style="fill: none; stroke: #888; stroke-width: 1; opacity: 1;"></line><line transform="translate(490,0)" x2="0" y2="5" style="fill: none; stroke: #888; stroke-width: 1; opacity: 1;"></line><line transform="translate(510,0)" x2="0" y2="5" style="fill: none; stroke: #888; stroke-width: 1; opacity: 1;"></line><line transform="translate(530,0)" x2="0" y2="5" style="fill: none; stroke: #888; stroke-width: 1; opacity: 1;"></line><line transform="translate(550,0)" x2="0" y2="5" style="fill: none; stroke: #888; stroke-width: 1; opacity: 1;"></line><line transform="translate(570,0)" x2="0" y2="5" style="fill: none; stroke: #888; stroke-width: 1; opacity: 1;"></line><line transform="translate(590,0)" x2="0" y2="5" style="fill: none; stroke: #888; stroke-width: 1; opacity: 1;"></line><line transform="translate(610,0)" x2="0" y2="5" style="fill: none; stroke: #888; stroke-width: 1; opacity: 1;"></line><line transform="translate(630,0)" x2="0" y2="5" style="fill: none; stroke: #888; stroke-width: 1; opacity: 1;"></line><line transform="translate(650,0)" x2="0" y2="5" style="fill: none; stroke: #888; stroke-width: 1; opacity: 1;"></line><line transform="translate(670,0)" x2="0" y2="5" style="fill: none; stroke: #888; stroke-width: 1; opacity: 1;"></line><line transform="translate(690,0)" x2="0" y2="5" style="fill: none; stroke: #888; stroke-width: 1; opacity: 1;"></line><line transform="translate(710,0)" x2="0" y2="5" style="fill: none; stroke: #888; stroke-width: 1; opacity: 1;"></line><line transform="translate(730,0)" x2="0" y2="5" style="fill: none; stroke: #888; stroke-width: 1; opacity: 1;"></line><line transform="translate(750,0)" x2="0" y2="5" style="fill: none; stroke: #888; stroke-width: 1; opacity: 1;"></line><line transform="translate(770,0)" x2="0" y2="5" style="fill: none; stroke: #888; stroke-width: 1; opacity: 1;"></line><line transform="translate(790,0)" x2="0" y2="5" style="fill: none; stroke: #888; stroke-width: 1; opacity: 1;"></line><line transform="translate(810,0)" x2="0" y2="5" style="fill: none; stroke: #888; stroke-width: 1; opacity: 1;"></line><line transform="translate(830,0)" x2="0" y2="5" style="fill: none; stroke: #888; stroke-width: 1; opacity: 1;"></line><line transform="translate(850,0)" x2="0" y2="5" style="fill: none; stroke: #888; stroke-width: 1; opacity: 1;"></line><line transform="translate(870,0)" x2="0" y2="5" style="fill: none; stroke: #888; stroke-width: 1; opacity: 1;"></line><line transform="translate(890,0)" x2="0" y2="5" style="fill: none; stroke: #888; stroke-width: 1; opacity: 1;"></line><line transform="translate(910,0)" x2="0" y2="5" style="fill: none; stroke: #888; stroke-width: 1; opacity: 1;"></line><line transform="translate(930,0)" x2="0" y2="5" style="fill: none; stroke: #888; stroke-width: 1; opacity: 1;"></line><line transform="translate(950,0)" x2="0" y2="5" style="fill: none; stroke: #888; stroke-width: 1; opacity: 1;"></line><line transform="translate(970,0)" x2="0" y2="5" style="fill: none; stroke: #888; stroke-width: 1; opacity: 1;"></line><line transform="translate(990,0)" x2="0" y2="5" style="fill: none; stroke: #888; stroke-width: 1; opacity: 1;"></line><line transform="translate(1010,0)" x2="0" y2="5" style="fill: none; stroke: #888; stroke-width: 1; opacity: 1;"></line><line transform="translate(1030,0)" x2="0" y2="5" style="fill: none; stroke: #888; stroke-width: 1; opacity: 1;"></line><line transform="translate(1050,0)" x2="0" y2="5" style="fill: none; stroke: #888; stroke-width: 1; opacity: 1;"></line><line transform="translate(1070,0)" x2="0" y2="5" style="fill: none; stroke: #888; stroke-width: 1; opacity: 1;"></line><line transform="translate(1090,0)" x2="0" y2="5" style="fill: none; stroke: #888; stroke-width: 1; opacity: 1;"></line><line transform="translate(1110,0)" x2="0" y2="5" style="fill: none; stroke: #888; stroke-width: 1; opacity: 1;"></line></g><g class="mark-text role-axis-label" style="pointer-events: none;"><text text-anchor="end" transform="translate(10,7) rotate(270) translate(0,3)" style="font-family: sans-serif; font-size: 10px; fill: #000; opacity: 1;">null</text><text text-anchor="end" transform="translate(30,7) rotate(270) translate(0,3)" style="font-family: sans-serif; font-size: 10px; fill: #000; opacity: 1;">AK</text><text text-anchor="end" transform="translate(50,7) rotate(270) translate(0,3)" style="font-family: sans-serif; font-size: 10px; fill: #000; opacity: 1;">AL</text><text text-anchor="end" transform="translate(70,7) rotate(270) translate(0,3)" style="font-family: sans-serif; font-size: 10px; fill: #000; opacity: 1;">AR</text><text text-anchor="end" transform="translate(90,7) rotate(270) translate(0,3)" style="font-family: sans-serif; font-size: 10px; fill: #000; opacity: 1;">AZ</text><text text-anchor="end" transform="translate(110,7) rotate(270) translate(0,3)" style="font-family: sans-serif; font-size: 10px; fill: #000; opacity: 1;">CA</text><text text-anchor="end" transform="translate(130,7) rotate(270) translate(0,3)" style="font-family: sans-serif; font-size: 10px; fill: #000; opacity: 1;">CO</text><text text-anchor="end" transform="translate(150,7) rotate(270) translate(0,3)" style="font-family: sans-serif; font-size: 10px; fill: #000; opacity: 1;">CT</text><text text-anchor="end" transform="translate(170,7) rotate(270) translate(0,3)" style="font-family: sans-serif; font-size: 10px; fill: #000; opacity: 1;">DC</text><text text-anchor="end" transform="translate(190,7) rotate(270) translate(0,3)" style="font-family: sans-serif; font-size: 10px; fill: #000; opacity: 1;">DE</text><text text-anchor="end" transform="translate(210,7) rotate(270) translate(0,3)" style="font-family: sans-serif; font-size: 10px; fill: #000; opacity: 1;">FL</text><text text-anchor="end" transform="translate(230,7) rotate(270) translate(0,3)" style="font-family: sans-serif; font-size: 10px; fill: #000; opacity: 1;">GA</text><text text-anchor="end" transform="translate(250,7) rotate(270) translate(0,3)" style="font-family: sans-serif; font-size: 10px; fill: #000; opacity: 1;">HI</text><text text-anchor="end" transform="translate(270,7) rotate(270) translate(0,3)" style="font-family: sans-serif; font-size: 10px; fill: #000; opacity: 1;">IA</text><text text-anchor="end" transform="translate(290,7) rotate(270) translate(0,3)" style="font-family: sans-serif; font-size: 10px; fill: #000; opacity: 1;">ID</text><text text-anchor="end" transform="translate(310,7) rotate(270) translate(0,3)" style="font-family: sans-serif; font-size: 10px; fill: #000; opacity: 1;">IL</text><text text-anchor="end" transform="translate(330,7) rotate(270) translate(0,3)" style="font-family: sans-serif; font-size: 10px; fill: #000; opacity: 1;">IN</text><text text-anchor="end" transform="translate(350,7) rotate(270) translate(0,3)" style="font-family: sans-serif; font-size: 10px; fill: #000; opacity: 1;">KS</text><text text-anchor="end" transform="translate(370,7) rotate(270) translate(0,3)" style="font-family: sans-serif; font-size: 10px; fill: #000; opacity: 1;">KY</text><text text-anchor="end" transform="translate(390,7) rotate(270) translate(0,3)" style="font-family: sans-serif; font-size: 10px; fill: #000; opacity: 1;">LA</text><text text-anchor="end" transform="translate(410,7) rotate(270) translate(0,3)" style="font-family: sans-serif; font-size: 10px; fill: #000; opacity: 1;">MA</text><text text-anchor="end" transform="translate(430,7) rotate(270) translate(0,3)" style="font-family: sans-serif; font-size: 10px; fill: #000; opacity: 1;">MD</text><text text-anchor="end" transform="translate(450,7) rotate(270) translate(0,3)" style="font-family: sans-serif; font-size: 10px; fill: #000; opacity: 1;">ME</text><text text-anchor="end" transform="translate(470,7) rotate(270) translate(0,3)" style="font-family: sans-serif; font-size: 10px; fill: #000; opacity: 1;">MI</text><text text-anchor="end" transform="translate(490,7) rotate(270) translate(0,3)" style="font-family: sans-serif; font-size: 10px; fill: #000; opacity: 1;">MN</text><text text-anchor="end" transform="translate(510,7) rotate(270) translate(0,3)" style="font-family: sans-serif; font-size: 10px; fill: #000; opacity: 1;">MO</text><text text-anchor="end" transform="translate(530,7) rotate(270) translate(0,3)" style="font-family: sans-serif; font-size: 10px; fill: #000; opacity: 1;">MS</text><text text-anchor="end" transform="translate(550,7) rotate(270) translate(0,3)" style="font-family: sans-serif; font-size: 10px; fill: #000; opacity: 1;">MT</text><text text-anchor="end" transform="translate(570,7) rotate(270) translate(0,3)" style="font-family: sans-serif; font-size: 10px; fill: #000; opacity: 1;">NA</text><text text-anchor="end" transform="translate(590,7) rotate(270) translate(0,3)" style="font-family: sans-serif; font-size: 10px; fill: #000; opacity: 1;">NC</text><text text-anchor="end" transform="translate(610,7) rotate(270) translate(0,3)" style="font-family: sans-serif; font-size: 10px; fill: #000; opacity: 1;">ND</text><text text-anchor="end" transform="translate(630,7) rotate(270) translate(0,3)" style="font-family: sans-serif; font-size: 10px; fill: #000; opacity: 1;">NE</text><text text-anchor="end" transform="translate(650,7) rotate(270) translate(0,3)" style="font-family: sans-serif; font-size: 10px; fill: #000; opacity: 1;">NH</text><text text-anchor="end" transform="translate(670,7) rotate(270) translate(0,3)" style="font-family: sans-serif; font-size: 10px; fill: #000; opacity: 1;">NJ</text><text text-anchor="end" transform="translate(690,7) rotate(270) translate(0,3)" style="font-family: sans-serif; font-size: 10px; fill: #000; opacity: 1;">NM</text><text text-anchor="end" transform="translate(710,7) rotate(270) translate(0,3)" style="font-family: sans-serif; font-size: 10px; fill: #000; opacity: 1;">NV</text><text text-anchor="end" transform="translate(730,7) rotate(270) translate(0,3)" style="font-family: sans-serif; font-size: 10px; fill: #000; opacity: 1;">NY</text><text text-anchor="end" transform="translate(750,7) rotate(270) translate(0,3)" style="font-family: sans-serif; font-size: 10px; fill: #000; opacity: 1;">OH</text><text text-anchor="end" transform="translate(770,7) rotate(270) translate(0,3)" style="font-family: sans-serif; font-size: 10px; fill: #000; opacity: 1;">OK</text><text text-anchor="end" transform="translate(790,7) rotate(270) translate(0,3)" style="font-family: sans-serif; font-size: 10px; fill: #000; opacity: 1;">OR</text><text text-anchor="end" transform="translate(810,7) rotate(270) translate(0,3)" style="font-family: sans-serif; font-size: 10px; fill: #000; opacity: 1;">PA</text><text text-anchor="end" transform="translate(830,7) rotate(270) translate(0,3)" style="font-family: sans-serif; font-size: 10px; fill: #000; opacity: 1;">PR</text><text text-anchor="end" transform="translate(850,7) rotate(270) translate(0,3)" style="font-family: sans-serif; font-size: 10px; fill: #000; opacity: 1;">RI</text><text text-anchor="end" transform="translate(870,7) rotate(270) translate(0,3)" style="font-family: sans-serif; font-size: 10px; fill: #000; opacity: 1;">SC</text><text text-anchor="end" transform="translate(890,7) rotate(270) translate(0,3)" style="font-family: sans-serif; font-size: 10px; fill: #000; opacity: 1;">SD</text><text text-anchor="end" transform="translate(910,7) rotate(270) translate(0,3)" style="font-family: sans-serif; font-size: 10px; fill: #000; opacity: 1;">TN</text><text text-anchor="end" transform="translate(930,7) rotate(270) translate(0,3)" style="font-family: sans-serif; font-size: 10px; fill: #000; opacity: 1;">TX</text><text text-anchor="end" transform="translate(950,7) rotate(270) translate(0,3)" style="font-family: sans-serif; font-size: 10px; fill: #000; opacity: 1;">UT</text><text text-anchor="end" transform="translate(970,7) rotate(270) translate(0,3)" style="font-family: sans-serif; font-size: 10px; fill: #000; opacity: 1;">VA</text><text text-anchor="end" transform="translate(990,7) rotate(270) translate(0,3)" style="font-family: sans-serif; font-size: 10px; fill: #000; opacity: 1;">VI</text><text text-anchor="end" transform="translate(1010,7) rotate(270) translate(0,3)" style="font-family: sans-serif; font-size: 10px; fill: #000; opacity: 1;">VT</text><text text-anchor="end" transform="translate(1030,7) rotate(270) translate(0,3)" style="font-family: sans-serif; font-size: 10px; fill: #000; opacity: 1;">WA</text><text text-anchor="end" transform="translate(1050,7) rotate(270) translate(0,3)" style="font-family: sans-serif; font-size: 10px; fill: #000; opacity: 1;">WI</text><text text-anchor="end" transform="translate(1070,7) rotate(270) translate(0,3)" style="font-family: sans-serif; font-size: 10px; fill: #000; opacity: 1;">WV</text><text text-anchor="end" transform="translate(1090,7) rotate(270) translate(0,3)" style="font-family: sans-serif; font-size: 10px; fill: #000; opacity: 1;">WY</text><text text-anchor="end" transform="translate(1110,7) rotate(270) translate(0,3)" style="font-family: sans-serif; font-size: 10px; fill: #000; opacity: 1;">ZZ</text></g><g class="mark-rule role-axis-domain" style="pointer-events: none;"><line transform="translate(0,0)" x2="1120" y2="0" style="fill: none; stroke: #888; stroke-width: 1; opacity: 1;"></line></g><g class="mark-text role-axis-title" style="pointer-events: none;"><text text-anchor="middle" transform="translate(560,36.1083984375)" style="font-family: sans-serif; font-size: 11px; font-weight: bold; fill: #000; opacity: 1;">contributor_state, origin_state</text></g></g><path class="foreground" d="" style="pointer-events: none; display: none; fill: none;"></path></g></g><g class="mark-group role-axis"><g transform="translate(0.5,0.5)"><path class="background" d="M0,0h0v0h0Z" style="pointer-events: none; fill: none;"></path><g><g class="mark-rule role-axis-tick" style="pointer-events: none;"><line transform="translate(0,300)" x2="-5" y2="0" style="fill: none; stroke: #888; stroke-width: 1; opacity: 1;"></line><line transform="translate(0,263)" x2="-5" y2="0" style="fill: none; stroke: #888; stroke-width: 1; opacity: 1;"></line><line transform="translate(0,225)" x2="-5" y2="0" style="fill: none; stroke: #888; stroke-width: 1; opacity: 1;"></line><line transform="translate(0,188)" x2="-5" y2="0" style="fill: none; stroke: #888; stroke-width: 1; opacity: 1;"></line><line transform="translate(0,150)" x2="-5" y2="0" style="fill: none; stroke: #888; stroke-width: 1; opacity: 1;"></line><line transform="translate(0,113)" x2="-5" y2="0" style="fill: none; stroke: #888; stroke-width: 1; opacity: 1;"></line><line transform="translate(0,75)" x2="-5" y2="0" style="fill: none; stroke: #888; stroke-width: 1; opacity: 1;"></line><line transform="translate(0,38)" x2="-5" y2="0" style="fill: none; stroke: #888; stroke-width: 1; opacity: 1;"></line><line transform="translate(0,0)" x2="-5" y2="0" style="fill: none; stroke: #888; stroke-width: 1; opacity: 1;"></line></g><g class="mark-text role-axis-label" style="pointer-events: none;"><text text-anchor="end" transform="translate(-7,303)" style="font-family: sans-serif; font-size: 10px; fill: #000; opacity: 1;">0</text><text text-anchor="end" transform="translate(-7,265.5)" style="font-family: sans-serif; font-size: 10px; fill: #000; opacity: 1;">2,000</text><text text-anchor="end" transform="translate(-7,228)" style="font-family: sans-serif; font-size: 10px; fill: #000; opacity: 1;">4,000</text><text text-anchor="end" transform="translate(-7,190.5)" style="font-family: sans-serif; font-size: 10px; fill: #000; opacity: 1;">6,000</text><text text-anchor="end" transform="translate(-7,153)" style="font-family: sans-serif; font-size: 10px; fill: #000; opacity: 1;">8,000</text><text text-anchor="end" transform="translate(-7,115.5)" style="font-family: sans-serif; font-size: 10px; fill: #000; opacity: 1;">10,000</text><text text-anchor="end" transform="translate(-7,78)" style="font-family: sans-serif; font-size: 10px; fill: #000; opacity: 1;">12,000</text><text text-anchor="end" transform="translate(-7,40.5)" style="font-family: sans-serif; font-size: 10px; fill: #000; opacity: 1;">14,000</text><text text-anchor="end" transform="translate(-7,3)" style="font-family: sans-serif; font-size: 10px; fill: #000; opacity: 1;">16,000</text></g><g class="mark-rule role-axis-domain" style="pointer-events: none;"><line transform="translate(0,300)" x2="0" y2="-300" style="fill: none; stroke: #888; stroke-width: 1; opacity: 1;"></line></g><g class="mark-text role-axis-title" style="pointer-events: none;"><text text-anchor="middle" transform="translate(-41.5859375,150) rotate(-90) translate(0,-2)" style="font-family: sans-serif; font-size: 11px; font-weight: bold; fill: #000; opacity: 1;">Mean of amount</text></g></g><path class="foreground" d="" style="pointer-events: none; display: none; fill: none;"></path></g></g><g class="mark-group role-axis"><g transform="translate(1120.5,0.5)"><path class="background" d="M0,0h0v0h0Z" style="pointer-events: none; fill: none;"></path><g><g class="mark-rule role-axis-tick" style="pointer-events: none;"><line transform="translate(0,300)" x2="5" y2="0" style="fill: none; stroke: #888; stroke-width: 1; opacity: 1;"></line><line transform="translate(0,270)" x2="5" y2="0" style="fill: none; stroke: #888; stroke-width: 1; opacity: 1;"></line><line transform="translate(0,240)" x2="5" y2="0" style="fill: none; stroke: #888; stroke-width: 1; opacity: 1;"></line><line transform="translate(0,210)" x2="5" y2="0" style="fill: none; stroke: #888; stroke-width: 1; opacity: 1;"></line><line transform="translate(0,180)" x2="5" y2="0" style="fill: none; stroke: #888; stroke-width: 1; opacity: 1;"></line><line transform="translate(0,150)" x2="5" y2="0" style="fill: none; stroke: #888; stroke-width: 1; opacity: 1;"></line><line transform="translate(0,120)" x2="5" y2="0" style="fill: none; stroke: #888; stroke-width: 1; opacity: 1;"></line><line transform="translate(0,90)" x2="5" y2="0" style="fill: none; stroke: #888; stroke-width: 1; opacity: 1;"></line><line transform="translate(0,60)" x2="5" y2="0" style="fill: none; stroke: #888; stroke-width: 1; opacity: 1;"></line><line transform="translate(0,30)" x2="5" y2="0" style="fill: none; stroke: #888; stroke-width: 1; opacity: 1;"></line><line transform="translate(0,0)" x2="5" y2="0" style="fill: none; stroke: #888; stroke-width: 1; opacity: 1;"></line></g><g class="mark-text role-axis-label" style="pointer-events: none;"><text text-anchor="start" transform="translate(7,303)" style="font-family: sans-serif; font-size: 10px; fill: #000; opacity: 1;">0</text><text text-anchor="start" transform="translate(7,273)" style="font-family: sans-serif; font-size: 10px; fill: #000; opacity: 1;">2</text><text text-anchor="start" transform="translate(7,243)" style="font-family: sans-serif; font-size: 10px; fill: #000; opacity: 1;">4</text><text text-anchor="start" transform="translate(7,213)" style="font-family: sans-serif; font-size: 10px; fill: #000; opacity: 1;">6</text><text text-anchor="start" transform="translate(7,183)" style="font-family: sans-serif; font-size: 10px; fill: #000; opacity: 1;">8</text><text text-anchor="start" transform="translate(7,153)" style="font-family: sans-serif; font-size: 10px; fill: #000; opacity: 1;">10</text><text text-anchor="start" transform="translate(7,123)" style="font-family: sans-serif; font-size: 10px; fill: #000; opacity: 1;">12</text><text text-anchor="start" transform="translate(7,93.00000000000001)" style="font-family: sans-serif; font-size: 10px; fill: #000; opacity: 1;">14</text><text text-anchor="start" transform="translate(7,62.999999999999986)" style="font-family: sans-serif; font-size: 10px; fill: #000; opacity: 1;">16</text><text text-anchor="start" transform="translate(7,32.99999999999999)" style="font-family: sans-serif; font-size: 10px; fill: #000; opacity: 1;">18</text><text text-anchor="start" transform="translate(7,3)" style="font-family: sans-serif; font-size: 10px; fill: #000; opacity: 1;">20</text></g><g class="mark-rule role-axis-domain" style="pointer-events: none;"><line transform="translate(0,300)" x2="0" y2="-300" style="fill: none; stroke: #888; stroke-width: 1; opacity: 1;"></line></g><g class="mark-text role-axis-title" style="pointer-events: none;"><text text-anchor="middle" transform="translate(22.123046875,150) rotate(90) translate(0,-2)" style="font-family: sans-serif; font-size: 11px; font-weight: bold; fill: #000; opacity: 1;">Mean of depdelay</text></g></g><path class="foreground" d="" style="pointer-events: none; display: none; fill: none;"></path></g></g><g class="mark-symbol role-mark layer_0_marks"><path transform="translate(710,77.09309505988023)" d="M1.5255961994688632,0A1.5255961994688632,1.5255961994688632,0,1,1,-1.5255961994688632,0A1.5255961994688632,1.5255961994688632,0,1,1,1.5255961994688632,0" style="fill: green; stroke-width: 2; opacity: 0.7;"></path><path transform="translate(590,142.12004925613192)" d="M2.4034972524572646,0A2.4034972524572646,2.4034972524572646,0,1,1,-2.4034972524572646,0A2.4034972524572646,2.4034972524572646,0,1,1,2.4034972524572646,0" style="fill: green; stroke-width: 2; opacity: 0.7;"></path><path transform="translate(910,148.08409815299117)" d="M2.176455772485619,0A2.176455772485619,2.176455772485619,0,1,1,-2.176455772485619,0A2.176455772485619,2.176455772485619,0,1,1,2.176455772485619,0" style="fill: green; stroke-width: 2; opacity: 0.7;"></path><path transform="translate(310,207.22691640180665)" d="M3.726350419016987,0A3.726350419016987,3.726350419016987,0,1,1,-3.726350419016987,0A3.726350419016987,3.726350419016987,0,1,1,3.726350419016987,0" style="fill: green; stroke-width: 2; opacity: 0.7;"></path><path transform="translate(870,164.94076704545455)" d="M1.3812282800364255,0A1.3812282800364255,1.3812282800364255,0,1,1,-1.3812282800364255,0A1.3812282800364255,1.3812282800364255,0,1,1,1.3812282800364255,0" style="fill: green; stroke-width: 2; opacity: 0.7;"></path><path transform="translate(390,169.43673469387755)" d="M1.7851832079112806,0A1.7851832079112806,1.7851832079112806,0,1,1,-1.7851832079112806,0A1.7851832079112806,1.7851832079112806,0,1,1,1.7851832079112806,0" style="fill: green; stroke-width: 2; opacity: 0.7;"></path><path transform="translate(290,182.4026056851312)" d="M0.8925916039556403,0A0.8925916039556403,0.8925916039556403,0,1,1,-0.8925916039556403,0A0.8925916039556403,0.8925916039556403,0,1,1,0.8925916039556403,0" style="fill: green; stroke-width: 2; opacity: 0.7;"></path><path transform="translate(1110,268.75)" d="M0.04819541645736493,0A0.04819541645736493,0.04819541645736493,0,1,1,-0.04819541645736493,0A0.04819541645736493,0.04819541645736493,0,1,1,0.04819541645736493,0" style="fill: green; stroke-width: 2; opacity: 0.7;"></path><path transform="translate(270,115.71602652259334)" d="M1.9851987870713859,0A1.9851987870713859,1.9851987870713859,0,1,1,-1.9851987870713859,0A1.9851987870713859,1.9851987870713859,0,1,1,1.9851987870713859,0" style="fill: green; stroke-width: 2; opacity: 0.7;"></path><path transform="translate(690,97.10424871996848)" d="M1.4020918357082939,0A1.4020918357082939,1.4020918357082939,0,1,1,-1.4020918357082939,0A1.4020918357082939,1.4020918357082939,0,1,1,1.4020918357082939,0" style="fill: green; stroke-width: 2; opacity: 0.7;"></path><path transform="translate(250,235.94106231778426)" d="M1.0306760056403776,0A1.0306760056403776,1.0306760056403776,0,1,1,-1.0306760056403776,0A1.0306760056403776,1.0306760056403776,0,1,1,1.0306760056403776,0" style="fill: green; stroke-width: 2; opacity: 0.7;"></path><path transform="translate(230,195.37929945449326)" d="M2.8443463251507306,0A2.8443463251507306,2.8443463251507306,0,1,1,-2.8443463251507306,0A2.8443463251507306,2.8443463251507306,0,1,1,2.8443463251507306,0" style="fill: green; stroke-width: 2; opacity: 0.7;"></path><path transform="translate(990,287.5)" d="M0.06815861159822495,0A0.06815861159822495,0.06815861159822495,0,1,1,-0.06815861159822495,0A0.06815861159822495,0.06815861159822495,0,1,1,0.06815861159822495,0" style="fill: green; stroke-width: 2; opacity: 0.7;"></path><path transform="translate(830,232.03125)" d="M0.07870278550765264,0A0.07870278550765264,0.07870278550765264,0,1,1,-0.07870278550765264,0A0.07870278550765264,0.07870278550765264,0,1,1,0.07870278550765264,0" style="fill: green; stroke-width: 2; opacity: 0.7;"></path><path transform="translate(10,95.52772817460317)" d="M0.5409922079890376,0A0.5409922079890376,0.5409922079890376,0,1,1,-0.5409922079890376,0A0.5409922079890376,0.5409922079890376,0,1,1,0.5409922079890376,0" style="fill: green; stroke-width: 2; opacity: 0.7;"></path><path transform="translate(490,121.217816874028)" d="M2.23126214036044,0A2.23126214036044,2.23126214036044,0,1,1,-2.23126214036044,0A2.23126214036044,2.23126214036044,0,1,1,2.23126214036044,0" style="fill: green; stroke-width: 2; opacity: 0.7;"></path><path transform="translate(410,231.86948246606335)" d="M2.6162018143796275,0A2.6162018143796275,2.6162018143796275,0,1,1,-2.6162018143796275,0A2.6162018143796275,2.6162018143796275,0,1,1,2.6162018143796275,0" style="fill: green; stroke-width: 2; opacity: 0.7;"></path><path transform="translate(1070,152.9691431322208)" d="M1.0983198600534054,0A1.0983198600534054,1.0983198600534054,0,1,1,-1.0983198600534054,0A1.0983198600534054,1.0983198600534054,0,1,1,1.0983198600534054,0" style="fill: green; stroke-width: 2; opacity: 0.7;"></path><path transform="translate(650,88.05006773843928)" d="M1.4639564346474243,0A1.4639564346474243,1.4639564346474243,0,1,1,-1.4639564346474243,0A1.4639564346474243,1.4639564346474243,0,1,1,1.4639564346474243,0" style="fill: green; stroke-width: 2; opacity: 0.7;"></path><path transform="translate(770,227.09937633506254)" d="M1.592880995229891,0A1.592880995229891,1.592880995229891,0,1,1,-1.592880995229891,0A1.592880995229891,1.592880995229891,0,1,1,1.592880995229891,0" style="fill: green; stroke-width: 2; opacity: 0.7;"></path><path transform="translate(1090,223.12481129917657)" d="M0.9199308664380228,0A0.9199308664380228,0.9199308664380228,0,1,1,-0.9199308664380228,0A0.9199308664380228,0.9199308664380228,0,1,1,0.9199308664380228,0" style="fill: green; stroke-width: 2; opacity: 0.7;"></path><path transform="translate(850,218.21601348263252)" d="M1.3015737129192833,0A1.3015737129192833,1.3015737129192833,0,1,1,-1.3015737129192833,0A1.3015737129192833,1.3015737129192833,0,1,1,1.3015737129192833,0" style="fill: green; stroke-width: 2; opacity: 0.7;"></path><path transform="translate(630,83.98014658505154)" d="M1.3425689471975364,0A1.3425689471975364,1.3425689471975364,0,1,1,-1.3425689471975364,0A1.3425689471975364,1.3425689471975364,0,1,1,1.3425689471975364,0" style="fill: green; stroke-width: 2; opacity: 0.7;"></path><path transform="translate(810,153.4888212876914)" d="M3.40304237368467,0A3.40304237368467,3.40304237368467,0,1,1,-3.40304237368467,0A3.40304237368467,3.40304237368467,0,1,1,3.40304237368467,0" style="fill: green; stroke-width: 2; opacity: 0.7;"></path><path transform="translate(930,231.70651561960918)" d="M4.968493197954674,0A4.968493197954674,4.968493197954674,0,1,1,-4.968493197954674,0A4.968493197954674,4.968493197954674,0,1,1,4.968493197954674,0" style="fill: green; stroke-width: 2; opacity: 0.7;"></path><path transform="translate(970,180.65869146554343)" d="M5.532195645036855,0A5.532195645036855,5.532195645036855,0,1,1,-5.532195645036855,0A5.532195645036855,5.532195645036855,0,1,1,5.532195645036855,0" style="fill: green; stroke-width: 2; opacity: 0.7;"></path><path transform="translate(1050,137.29048230156297)" d="M2.2478568193650177,0A2.2478568193650177,2.2478568193650177,0,1,1,-2.2478568193650177,0A2.2478568193650177,2.2478568193650177,0,1,1,2.2478568193650177,0" style="fill: green; stroke-width: 2; opacity: 0.7;"></path><path transform="translate(530,235.44446106621075)" d="M1.5782312573303672,0A1.5782312573303672,1.5782312573303672,0,1,1,-1.5782312573303672,0A1.5782312573303672,1.5782312573303672,0,1,1,1.5782312573303672,0" style="fill: green; stroke-width: 2; opacity: 0.7;"></path><path transform="translate(730,199.08677457118804)" d="M4.6982497789859465,0A4.6982497789859465,4.6982497789859465,0,1,1,-4.6982497789859465,0A4.6982497789859465,4.6982497789859465,0,1,1,4.6982497789859465,0" style="fill: green; stroke-width: 2; opacity: 0.7;"></path><path transform="translate(470,152.60759979928633)" d="M2.946102931991233,0A2.946102931991233,2.946102931991233,0,1,1,-2.946102931991233,0A2.946102931991233,2.946102931991233,0,1,1,2.946102931991233,0" style="fill: green; stroke-width: 2; opacity: 0.7;"></path><path transform="translate(30,187.19149352861035)" d="M0.7538642351122536,0A0.7538642351122536,0.7538642351122536,0,1,1,-0.7538642351122536,0A0.7538642351122536,0.7538642351122536,0,1,1,0.7538642351122536,0" style="fill: green; stroke-width: 2; opacity: 0.7;"></path><path transform="translate(510,20.250543305206193)" d="M2.2052585101721616,0A2.2052585101721616,2.2052585101721616,0,1,1,-2.2052585101721616,0A2.2052585101721616,2.2052585101721616,0,1,1,2.2052585101721616,0" style="fill: green; stroke-width: 2; opacity: 0.7;"></path><path transform="translate(170,23.677713201986904)" d="M9.5,0A9.5,9.5,0,1,1,-9.5,0A9.5,9.5,0,1,1,9.5,0" style="fill: green; stroke-width: 2; opacity: 0.7;"></path><path transform="translate(70,59.50215371621624)" d="M1.6583705949873293,0A1.6583705949873293,1.6583705949873293,0,1,1,-1.6583705949873293,0A1.6583705949873293,1.6583705949873293,0,1,1,1.6583705949873293,0" style="fill: green; stroke-width: 2; opacity: 0.7;"></path><path transform="translate(190,208.42756497948017)" d="M1.303060037159322,0A1.303060037159322,1.303060037159322,0,1,1,-1.303060037159322,0A1.303060037159322,1.303060037159322,0,1,1,1.303060037159322,0" style="fill: green; stroke-width: 2; opacity: 0.7;"></path><path transform="translate(130,142.1573707200847)" d="M2.0945146149763385,0A2.0945146149763385,2.0945146149763385,0,1,1,-2.0945146149763385,0A2.0945146149763385,2.0945146149763385,0,1,1,2.0945146149763385,0" style="fill: green; stroke-width: 2; opacity: 0.7;"></path><path transform="translate(150,236.47771817641058)" d="M2.1344276686083936,0A2.1344276686083936,2.1344276686083936,0,1,1,-2.1344276686083936,0A2.1344276686083936,2.1344276686083936,0,1,1,2.1344276686083936,0" style="fill: green; stroke-width: 2; opacity: 0.7;"></path><path transform="translate(790,86.77452676864247)" d="M1.4229215494900473,0A1.4229215494900473,1.4229215494900473,0,1,1,-1.4229215494900473,0A1.4229215494900473,1.4229215494900473,0,1,1,1.4229215494900473,0" style="fill: green; stroke-width: 2; opacity: 0.7;"></path><path transform="translate(210,150.07515539874814)" d="M3.655022096696773,0A3.655022096696773,3.655022096696773,0,1,1,-3.655022096696773,0A3.655022096696773,3.655022096696773,0,1,1,3.655022096696773,0" style="fill: green; stroke-width: 2; opacity: 0.7;"></path><path transform="translate(50,221.58209491746308)" d="M2.110900554578214,0A2.110900554578214,2.110900554578214,0,1,1,-2.110900554578214,0A2.110900554578214,2.110900554578214,0,1,1,2.110900554578214,0" style="fill: green; stroke-width: 2; opacity: 0.7;"></path><path transform="translate(350,230.7103713099631)" d="M1.4485375422498676,0A1.4485375422498676,1.4485375422498676,0,1,1,-1.4485375422498676,0A1.4485375422498676,1.4485375422498676,0,1,1,1.4485375422498676,0" style="fill: green; stroke-width: 2; opacity: 0.7;"></path><path transform="translate(670,209.6696531708996)" d="M3.1813842713272296,0A3.1813842713272296,3.1813842713272296,0,1,1,-3.1813842713272296,0A3.1813842713272296,3.1813842713272296,0,1,1,3.1813842713272296,0" style="fill: green; stroke-width: 2; opacity: 0.7;"></path><path transform="translate(950,180.25950278810407)" d="M1.0204841229021224,0A1.0204841229021224,1.0204841229021224,0,1,1,-1.0204841229021224,0A1.0204841229021224,1.0204841229021224,0,1,1,1.0204841229021224,0" style="fill: green; stroke-width: 2; opacity: 0.7;"></path><path transform="translate(330,191.8868204059442)" d="M2.066978494345358,0A2.066978494345358,2.066978494345358,0,1,1,-2.066978494345358,0A2.066978494345358,2.066978494345358,0,1,1,2.066978494345358,0" style="fill: green; stroke-width: 2; opacity: 0.7;"></path><path transform="translate(370,182.36975941692467)" d="M2.121693391754038,0A2.121693391754038,2.121693391754038,0,1,1,-2.121693391754038,0A2.121693391754038,2.121693391754038,0,1,1,2.121693391754038,0" style="fill: green; stroke-width: 2; opacity: 0.7;"></path><path transform="translate(450,137.66783203124996)" d="M1.1130254666146304,0A1.1130254666146304,1.1130254666146304,0,1,1,-1.1130254666146304,0A1.1130254666146304,1.1130254666146304,0,1,1,1.1130254666146304,0" style="fill: green; stroke-width: 2; opacity: 0.7;"></path><path transform="translate(430,225.7793785243238)" d="M2.846251173417435,0A2.846251173417435,2.846251173417435,0,1,1,-2.846251173417435,0A2.846251173417435,2.846251173417435,0,1,1,2.846251173417435,0" style="fill: green; stroke-width: 2; opacity: 0.7;"></path><path transform="translate(610,150.40482698094283)" d="M0.8786030148283401,0A0.8786030148283401,0.8786030148283401,0,1,1,-0.8786030148283401,0A0.8786030148283401,0.8786030148283401,0,1,1,0.8786030148283401,0" style="fill: green; stroke-width: 2; opacity: 0.7;"></path><path transform="translate(110,217.82948584146465)" d="M5.54868592048075,0A5.54868592048075,5.54868592048075,0,1,1,-5.54868592048075,0A5.54868592048075,5.54868592048075,0,1,1,5.54868592048075,0" style="fill: green; stroke-width: 2; opacity: 0.7;"></path><path transform="translate(1030,94.8779346153846)" d="M1.942819348829329,0A1.942819348829329,1.942819348829329,0,1,1,-1.942819348829329,0A1.942819348829329,1.942819348829329,0,1,1,1.942819348829329,0" style="fill: green; stroke-width: 2; opacity: 0.7;"></path><path transform="translate(90,188.7145892476934)" d="M1.8090944193175402,0A1.8090944193175402,1.8090944193175402,0,1,1,-1.8090944193175402,0A1.8090944193175402,1.8090944193175402,0,1,1,1.8090944193175402,0" style="fill: green; stroke-width: 2; opacity: 0.7;"></path><path transform="translate(550,61.49543031226198)" d="M1.0082714571526161,0A1.0082714571526161,1.0082714571526161,0,1,1,-1.0082714571526161,0A1.0082714571526161,1.0082714571526161,0,1,1,1.0082714571526161,0" style="fill: green; stroke-width: 2; opacity: 0.7;"></path><path transform="translate(1010,179.9989942528736)" d="M0.8990738358386351,0A0.8990738358386351,0.8990738358386351,0,1,1,-0.8990738358386351,0A0.8990738358386351,0.8990738358386351,0,1,1,0.8990738358386351,0" style="fill: green; stroke-width: 2; opacity: 0.7;"></path><path transform="translate(750,131.56565743088012)" d="M3.1262694098204804,0A3.1262694098204804,3.1262694098204804,0,1,1,-3.1262694098204804,0A3.1262694098204804,3.1262694098204804,0,1,1,3.1262694098204804,0" style="fill: green; stroke-width: 2; opacity: 0.7;"></path><path transform="translate(890,70.63863268608412)" d="M1.198119053981817,0A1.198119053981817,1.198119053981817,0,1,1,-1.198119053981817,0A1.198119053981817,1.198119053981817,0,1,1,1.198119053981817,0" style="fill: green; stroke-width: 2; opacity: 0.7;"></path></g><g class="mark-symbol role-mark layer_1_marks"><path transform="translate(670,25.720452715397702)" d="M-3.895101779134923,-3.895101779134923h7.790203558269846v7.790203558269846h-7.790203558269846Z" style="fill: firebrick; stroke-width: 2; opacity: 0.7;"></path><path transform="translate(1050,151.51963421194193)" d="M-2.8698859563229244,-2.8698859563229244h5.739771912645849v5.739771912645849h-5.739771912645849Z" style="fill: firebrick; stroke-width: 2; opacity: 0.7;"></path><path transform="translate(870,148.89385474860336)" d="M-2.1576756411841527,-2.1576756411841527h4.315351282368305v4.315351282368305h-4.315351282368305Z" style="fill: firebrick; stroke-width: 2; opacity: 0.7;"></path><path transform="translate(1070,170.75819672131146)" d="M-0.6412440193009235,-0.6412440193009235h1.282488038601847v1.282488038601847h-1.282488038601847Z" style="fill: firebrick; stroke-width: 2; opacity: 0.7;"></path><path transform="translate(610,221.0251998223801)" d="M-1.0023607921450874,-1.0023607921450874h2.004721584290175v2.004721584290175h-2.004721584290175Z" style="fill: firebrick; stroke-width: 2; opacity: 0.7;"></path><path transform="translate(830,137.64475016880488)" d="M-1.6190322099532877,-1.6190322099532877h3.2380644199065753v3.2380644199065753h-3.2380644199065753Z" style="fill: firebrick; stroke-width: 2; opacity: 0.7;"></path><path transform="translate(990,154.08444444444444)" d="M-0.610734597607526,-0.610734597607526h1.221469195215052v1.221469195215052h-1.221469195215052Z" style="fill: firebrick; stroke-width: 2; opacity: 0.7;"></path><path transform="translate(30,180.73421347614897)" d="M-2.117456564554124,-2.117456564554124h4.234913129108248v4.234913129108248h-4.234913129108248Z" style="fill: firebrick; stroke-width: 2; opacity: 0.7;"></path><path transform="translate(930,142.73596751428832)" d="M-9.04590242581529,-9.04590242581529h18.09180485163058v18.09180485163058h-18.09180485163058Z" style="fill: firebrick; stroke-width: 2; opacity: 0.7;"></path><path transform="translate(350,167.92349525979276)" d="M-1.2400548412172443,-1.2400548412172443h2.4801096824344886v2.4801096824344886h-2.4801096824344886Z" style="fill: firebrick; stroke-width: 2; opacity: 0.7;"></path><path transform="translate(970,153.8780780722139)" d="M-4.802164789244625,-4.802164789244625h9.60432957848925v9.60432957848925h-9.60432957848925Z" style="fill: firebrick; stroke-width: 2; opacity: 0.7;"></path><path transform="translate(330,171.41452940270673)" d="M-2.5638023850276945,-2.5638023850276945h5.127604770055389v5.127604770055389h-5.127604770055389Z" style="fill: firebrick; stroke-width: 2; opacity: 0.7;"></path><path transform="translate(1010,121.39985326485692)" d="M-0.8756021108684723,-0.8756021108684723h1.7512042217369446v1.7512042217369446h-1.7512042217369446Z" style="fill: firebrick; stroke-width: 2; opacity: 0.7;"></path><path transform="translate(730,126.27969165636355)" d="M-6.021921313771185,-6.021921313771185h12.04384262754237v12.04384262754237h-12.04384262754237Z" style="fill: firebrick; stroke-width: 2; opacity: 0.7;"></path><path transform="translate(270,158.67585818795723)" d="M-1.7447550146809048,-1.7447550146809048h3.4895100293618095v3.4895100293618095h-3.4895100293618095Z" style="fill: firebrick; stroke-width: 2; opacity: 0.7;"></path><path transform="translate(810,124.40091186584755)" d="M-4.164825522332927,-4.164825522332927h8.329651044665853v8.329651044665853h-8.329651044665853Z" style="fill: firebrick; stroke-width: 2; opacity: 0.7;"></path><path transform="translate(450,110.96956567684666)" d="M-1.034387649623537,-1.034387649623537h2.068775299247074v2.068775299247074h-2.068775299247074Z" style="fill: firebrick; stroke-width: 2; opacity: 0.7;"></path><path transform="translate(90,182.67890048136613)" d="M-5.036974477659707,-5.036974477659707h10.073948955319414v10.073948955319414h-10.073948955319414Z" style="fill: firebrick; stroke-width: 2; opacity: 0.7;"></path><path transform="translate(490,188.69613131705566)" d="M-3.855264808874232,-3.855264808874232h7.710529617748464v7.710529617748464h-7.710529617748464Z" style="fill: firebrick; stroke-width: 2; opacity: 0.7;"></path><path transform="translate(850,144.8235666199792)" d="M-1.5695705111408935,-1.5695705111408935h3.139141022281787v3.139141022281787h-3.139141022281787Z" style="fill: firebrick; stroke-width: 2; opacity: 0.7;"></path><path transform="translate(230,127.86315840943277)" d="M-6.906163814742669,-6.906163814742669h13.812327629485338v13.812327629485338h-13.812327629485338Z" style="fill: firebrick; stroke-width: 2; opacity: 0.7;"></path><path transform="translate(590,156.45680936097767)" d="M-4.814888249937086,-4.814888249937086h9.629776499874172v9.629776499874172h-9.629776499874172Z" style="fill: firebrick; stroke-width: 2; opacity: 0.7;"></path><path transform="translate(530,185.0566401002955)" d="M-1.5796144747532377,-1.5796144747532377h3.1592289495064754v3.1592289495064754h-3.1592289495064754Z" style="fill: firebrick; stroke-width: 2; opacity: 0.7;"></path><path transform="translate(410,154.83366460926874)" d="M-3.599376051940653,-3.599376051940653h7.198752103881306v7.198752103881306h-7.198752103881306Z" style="fill: firebrick; stroke-width: 2; opacity: 0.7;"></path><path transform="translate(210,140.73322715164)" d="M-7.149245988844981,-7.149245988844981h14.298491977689961v14.298491977689961h-14.298491977689961Z" style="fill: firebrick; stroke-width: 2; opacity: 0.7;"></path><path transform="translate(710,149.2821760755904)" d="M-4.66388204457077,-4.66388204457077h9.32776408914154v9.32776408914154h-9.32776408914154Z" style="fill: firebrick; stroke-width: 2; opacity: 0.7;"></path><path transform="translate(570,200.54763447828904)" d="M-0.7229186318883798,-0.7229186318883798h1.4458372637767596v1.4458372637767596h-1.4458372637767596Z" style="fill: firebrick; stroke-width: 2; opacity: 0.7;"></path><path transform="translate(1090,227.44167634329145)" d="M-1.0283920717208097,-1.0283920717208097h2.0567841434416194v2.0567841434416194h-2.0567841434416194Z" style="fill: firebrick; stroke-width: 2; opacity: 0.7;"></path><path transform="translate(110,171.48735968885387)" d="M-9.5,-9.5h19v19h-19Z" style="fill: firebrick; stroke-width: 2; opacity: 0.7;"></path><path transform="translate(890,202.2976701410178)" d="M-1.045857229024278,-1.045857229024278h2.091714458048556v2.091714458048556h-2.091714458048556Z" style="fill: firebrick; stroke-width: 2; opacity: 0.7;"></path><path transform="translate(370,158.87524376095382)" d="M-3.6849438153361045,-3.6849438153361045h7.369887630672209v7.369887630672209h-7.369887630672209Z" style="fill: firebrick; stroke-width: 2; opacity: 0.7;"></path><path transform="translate(250,269.72705294101485)" d="M-3.4722953991501813,-3.4722953991501813h6.9445907983003625v6.9445907983003625h-6.9445907983003625Z" style="fill: firebrick; stroke-width: 2; opacity: 0.7;"></path><path transform="translate(550,277.8218018914883)" d="M-1.4898299663451262,-1.4898299663451262h2.9796599326902524v2.9796599326902524h-2.9796599326902524Z" style="fill: firebrick; stroke-width: 2; opacity: 0.7;"></path><path transform="translate(1030,179.07174983767007)" d="M-3.737482042542998,-3.737482042542998h7.474964085085996v7.474964085085996h-7.474964085085996Z" style="fill: firebrick; stroke-width: 2; opacity: 0.7;"></path><path transform="translate(950,224.12357010030428)" d="M-3.9571690833792306,-3.9571690833792306h7.914338166758461v7.914338166758461h-7.914338166758461Z" style="fill: firebrick; stroke-width: 2; opacity: 0.7;"></path><path transform="translate(690,188.3730785806637)" d="M-2.146742133876103,-2.146742133876103h4.293484267752206v4.293484267752206h-4.293484267752206Z" style="fill: firebrick; stroke-width: 2; opacity: 0.7;"></path><path transform="translate(70,139.5317082111437)" d="M-1.9196028644482694,-1.9196028644482694h3.839205728896539v3.839205728896539h-3.839205728896539Z" style="fill: firebrick; stroke-width: 2; opacity: 0.7;"></path><path transform="translate(510,155.3469264950935)" d="M-3.8036629944124236,-3.8036629944124236h7.607325988824847v7.607325988824847h-7.607325988824847Z" style="fill: firebrick; stroke-width: 2; opacity: 0.7;"></path><path transform="translate(310,59.43772255618944)" d="M-7.1050117326808016,-7.1050117326808016h14.210023465361603v14.210023465361603h-14.210023465361603Z" style="fill: firebrick; stroke-width: 2; opacity: 0.7;"></path><path transform="translate(650,142.7488928981466)" d="M-1.4263268640448477,-1.4263268640448477h2.8526537280896953v2.8526537280896953h-2.8526537280896953Z" style="fill: firebrick; stroke-width: 2; opacity: 0.7;"></path><path transform="translate(150,186.09831295250632)" d="M-1.795304031304708,-1.795304031304708h3.590608062609416v3.590608062609416h-3.590608062609416Z" style="fill: firebrick; stroke-width: 2; opacity: 0.7;"></path><path transform="translate(50,173.8930494316797)" d="M-2.245396191546626,-2.245396191546626h4.490792383093252v4.490792383093252h-4.490792383093252Z" style="fill: firebrick; stroke-width: 2; opacity: 0.7;"></path><path transform="translate(910,168.119918699187)" d="M-4.174170358557923,-4.174170358557923h8.348340717115846v8.348340717115846h-8.348340717115846Z" style="fill: firebrick; stroke-width: 2; opacity: 0.7;"></path><path transform="translate(290,235.30628674130378)" d="M-1.7229139440268522,-1.7229139440268522h3.4458278880537043v3.4458278880537043h-3.4458278880537043Z" style="fill: firebrick; stroke-width: 2; opacity: 0.7;"></path><path transform="translate(390,168.74977074035579)" d="M-2.7116021033631124,-2.7116021033631124h5.423204206726225v5.423204206726225h-5.423204206726225Z" style="fill: firebrick; stroke-width: 2; opacity: 0.7;"></path><path transform="translate(770,182.99234724381202)" d="M-2.362123746616916,-2.362123746616916h4.724247493233832v4.724247493233832h-4.724247493233832Z" style="fill: firebrick; stroke-width: 2; opacity: 0.7;"></path><path transform="translate(630,165.26304185604778)" d="M-1.8133498750875745,-1.8133498750875745h3.626699750175149v3.626699750175149h-3.626699750175149Z" style="fill: firebrick; stroke-width: 2; opacity: 0.7;"></path><path transform="translate(790,195.17947283691234)" d="M-2.849870772329723,-2.849870772329723h5.699741544659446v5.699741544659446h-5.699741544659446Z" style="fill: firebrick; stroke-width: 2; opacity: 0.7;"></path><path transform="translate(430,147.9481694895524)" d="M-3.375000592320713,-3.375000592320713h6.750001184641426v6.750001184641426h-6.750001184641426Z" style="fill: firebrick; stroke-width: 2; opacity: 0.7;"></path><path transform="translate(750,164.00012152144853)" d="M-3.716706060933636,-3.716706060933636h7.433412121867272v7.433412121867272h-7.433412121867272Z" style="fill: firebrick; stroke-width: 2; opacity: 0.7;"></path><path transform="translate(130,155.09980937114136)" d="M-5.54426282846707,-5.54426282846707h11.08852565693414v11.08852565693414h-11.08852565693414Z" style="fill: firebrick; stroke-width: 2; opacity: 0.7;"></path><path transform="translate(470,165.60737102217936)" d="M-4.715075978361084,-4.715075978361084h9.430151956722169v9.430151956722169h-9.430151956722169Z" style="fill: firebrick; stroke-width: 2; opacity: 0.7;"></path></g><g class="mark-group role-legend"><g transform="translate(1172,0)"><path class="background" d="M0,0h93v110h-93Z" style="pointer-events: none; fill: none;"></path><g><g class="mark-group role-legend-entry"><g transform="translate(0,16)"><path class="background" d="M0,0h0v0h0Z" style="pointer-events: none; fill: none;"></path><g><g class="mark-group role-scope"><g transform="translate(0,0)"><path class="background" d="M0,0h60.1474609375v10.435139275382632h-60.1474609375Z" style="pointer-events: none; fill: none; opacity: 1;"></path><g><g class="mark-symbol role-legend-symbol" style="pointer-events: none;"><path transform="translate(10,5)" d="M3.935139275382632,0A3.935139275382632,3.935139275382632,0,1,1,-3.935139275382632,0A3.935139275382632,3.935139275382632,0,1,1,3.935139275382632,0" style="fill: green; stroke: none; stroke-width: 1.5; opacity: 0.7;"></path></g><g class="mark-text role-legend-label" style="pointer-events: none;"><text text-anchor="start" transform="translate(24,8)" style="font-family: sans-serif; font-size: 10px; fill: #000; opacity: 1;">20,000</text></g></g><path class="foreground" d="" style="pointer-events: none; display: none; fill: none;"></path></g><g transform="translate(0,14)"><path class="background" d="M0,0h60.1474609375v13.56512733307315h-60.1474609375Z" style="pointer-events: none; fill: none; opacity: 1;"></path><g><g class="mark-symbol role-legend-symbol" style="pointer-events: none;"><path transform="translate(10,6.5)" d="M5.565127333073152,0A5.565127333073152,5.565127333073152,0,1,1,-5.565127333073152,0A5.565127333073152,5.565127333073152,0,1,1,5.565127333073152,0" style="fill: green; stroke: none; stroke-width: 1.5; opacity: 0.7;"></path></g><g class="mark-text role-legend-label" style="pointer-events: none;"><text text-anchor="start" transform="translate(24,9.5)" style="font-family: sans-serif; font-size: 10px; fill: #000; opacity: 1;">40,000</text></g></g><path class="foreground" d="" style="pointer-events: none; display: none; fill: none;"></path></g><g transform="translate(0,31)"><path class="background" d="M0,0h60.1474609375v16.315861159822497h-60.1474609375Z" style="pointer-events: none; fill: none; opacity: 1;"></path><g><g class="mark-symbol role-legend-symbol" style="pointer-events: none;"><path transform="translate(10,8)" d="M6.815861159822495,0A6.815861159822495,6.815861159822495,0,1,1,-6.815861159822495,0A6.815861159822495,6.815861159822495,0,1,1,6.815861159822495,0" style="fill: green; stroke: none; stroke-width: 1.5; opacity: 0.7;"></path></g><g class="mark-text role-legend-label" style="pointer-events: none;"><text text-anchor="start" transform="translate(24,11)" style="font-family: sans-serif; font-size: 10px; fill: #000; opacity: 1;">60,000</text></g></g><path class="foreground" d="" style="pointer-events: none; display: none; fill: none;"></path></g><g transform="translate(0,51)"><path class="background" d="M0,0h60.1474609375v18.370278550765264h-60.1474609375Z" style="pointer-events: none; fill: none; opacity: 1;"></path><g><g class="mark-symbol role-legend-symbol" style="pointer-events: none;"><path transform="translate(10,9)" d="M7.870278550765264,0A7.870278550765264,7.870278550765264,0,1,1,-7.870278550765264,0A7.870278550765264,7.870278550765264,0,1,1,7.870278550765264,0" style="fill: green; stroke: none; stroke-width: 1.5; opacity: 0.7;"></path></g><g class="mark-text role-legend-label" style="pointer-events: none;"><text text-anchor="start" transform="translate(24,12)" style="font-family: sans-serif; font-size: 10px; fill: #000; opacity: 1;">80,000</text></g></g><path class="foreground" d="" style="pointer-events: none; display: none; fill: none;"></path></g><g transform="translate(0,73)"><path class="background" d="M0,0h60.1474609375v20.29923892068483h-60.1474609375Z" style="pointer-events: none; fill: none; opacity: 1;"></path><g><g class="mark-symbol role-legend-symbol" style="pointer-events: none;"><path transform="translate(10,10)" d="M8.799238920684829,0A8.799238920684829,8.799238920684829,0,1,1,-8.799238920684829,0A8.799238920684829,8.799238920684829,0,1,1,8.799238920684829,0" style="fill: green; stroke: none; stroke-width: 1.5; opacity: 0.7;"></path></g><g class="mark-text role-legend-label" style="pointer-events: none;"><text text-anchor="start" transform="translate(24,13)" style="font-family: sans-serif; font-size: 10px; fill: #000; opacity: 1;">100,000</text></g></g><path class="foreground" d="" style="pointer-events: none; display: none; fill: none;"></path></g></g></g><path class="foreground" d="" style="pointer-events: none; display: none; fill: none;"></path></g></g><g class="mark-text role-legend-title" style="pointer-events: none;"><text text-anchor="start" transform="translate(0,9)" style="font-family: sans-serif; font-size: 11px; font-weight: bold; fill: #000; opacity: 1;">Count of Records</text></g></g><path class="foreground" d="" style="pointer-events: none; display: none; fill: none;"></path></g></g><g class="mark-group role-legend"><g transform="translate(1172,118)"><path class="background" d="M0,0h93v94h-93Z" style="pointer-events: none; fill: none;"></path><g><g class="mark-group role-legend-entry"><g transform="translate(0,16)"><path class="background" d="M0,0h0v0h0Z" style="pointer-events: none; fill: none;"></path><g><g class="mark-group role-scope"><g transform="translate(0,0)"><path class="background" d="M0,0h61.1474609375v11.678619514171018h-61.1474609375Z" style="pointer-events: none; fill: none; opacity: 1;"></path><g><g class="mark-symbol role-legend-symbol" style="pointer-events: none;"><path transform="translate(10.5,5.5)" d="M-4.678619514171018,-4.678619514171018h9.357239028342036v9.357239028342036h-9.357239028342036Z" style="fill: firebrick; stroke: none; stroke-width: 1.5; opacity: 0.7;"></path></g><g class="mark-text role-legend-label" style="pointer-events: none;"><text text-anchor="start" transform="translate(25,8.5)" style="font-family: sans-serif; font-size: 10px; fill: #000; opacity: 1;">200,000</text></g></g><path class="foreground" d="" style="pointer-events: none; display: none; fill: none;"></path></g><g transform="translate(0,15)"><path class="background" d="M0,0h61.1474609375v15.616567170124075h-61.1474609375Z" style="pointer-events: none; fill: none; opacity: 1;"></path><g><g class="mark-symbol role-legend-symbol" style="pointer-events: none;"><path transform="translate(10.5,7.5)" d="M-6.616567170124075,-6.616567170124075h13.23313434024815v13.23313434024815h-13.23313434024815Z" style="fill: firebrick; stroke: none; stroke-width: 1.5; opacity: 0.7;"></path></g><g class="mark-text role-legend-label" style="pointer-events: none;"><text text-anchor="start" transform="translate(25,10.5)" style="font-family: sans-serif; font-size: 10px; fill: #000; opacity: 1;">400,000</text></g></g><path class="foreground" d="" style="pointer-events: none; display: none; fill: none;"></path></g><g transform="translate(0,34)"><path class="background" d="M0,0h61.1474609375v18.603606707827424h-61.1474609375Z" style="pointer-events: none; fill: none; opacity: 1;"></path><g><g class="mark-symbol role-legend-symbol" style="pointer-events: none;"><path transform="translate(10.5,9)" d="M-8.10360670782742,-8.10360670782742h16.20721341565484v16.20721341565484h-16.20721341565484Z" style="fill: firebrick; stroke: none; stroke-width: 1.5; opacity: 0.7;"></path></g><g class="mark-text role-legend-label" style="pointer-events: none;"><text text-anchor="start" transform="translate(25,12)" style="font-family: sans-serif; font-size: 10px; fill: #000; opacity: 1;">600,000</text></g></g><path class="foreground" d="" style="pointer-events: none; display: none; fill: none;"></path></g><g transform="translate(0,56)"><path class="background" d="M0,0h61.1474609375v21.357239028342036h-61.1474609375Z" style="pointer-events: none; fill: none; opacity: 1;"></path><g><g class="mark-symbol role-legend-symbol" style="pointer-events: none;"><path transform="translate(10.5,10.5)" d="M-9.357239028342036,-9.357239028342036h18.714478056684072v18.714478056684072h-18.714478056684072Z" style="fill: firebrick; stroke: none; stroke-width: 1.5; opacity: 0.7;"></path></g><g class="mark-text role-legend-label" style="pointer-events: none;"><text text-anchor="start" transform="translate(25,13.5)" style="font-family: sans-serif; font-size: 10px; fill: #000; opacity: 1;">800,000</text></g></g><path class="foreground" d="" style="pointer-events: none; display: none; fill: none;"></path></g></g></g><path class="foreground" d="" style="pointer-events: none; display: none; fill: none;"></path></g></g><g class="mark-text role-legend-title" style="pointer-events: none;"><text text-anchor="start" transform="translate(0,9)" style="font-family: sans-serif; font-size: 11px; font-weight: bold; fill: #000; opacity: 1;">Count of Records</text></g></g><path class="foreground" d="" style="pointer-events: none; display: none; fill: none;"></path></g></g></g><path class="foreground" d="" style="display: none; fill: none;"></path></g></g></g></svg>