<svg class="marks" width="1328" height="254" viewBox="0 0 1328 254" version="1.1" xmlns="http://www.w3.org/2000/svg" xmlns:xlink="http://www.w3.org/1999/xlink"><g transform="translate(58,10)"><g class="mark-group role-frame root"><g transform="translate(0,0)"><path class="background" d="M0.5,0.5h1120v200h-1120Z" style="fill: none; stroke: #ddd;"></path><g><g class="mark-symbol role-mark layer_0_marks"><path transform="translate(710,51.395396706586816)" d="M1.5255961994688632,0A1.5255961994688632,1.5255961994688632,0,1,1,-1.5255961994688632,0A1.5255961994688632,1.5255961994688632,0,1,1,1.5255961994688632,0" style="fill: green; stroke-width: 2; opacity: 0.7;"></path><path transform="translate(590,94.74669950408794)" d="M2.4034972524572646,0A2.4034972524572646,2.4034972524572646,0,1,1,-2.4034972524572646,0A2.4034972524572646,2.4034972524572646,0,1,1,2.4034972524572646,0" style="fill: green; stroke-width: 2; opacity: 0.7;"></path><path transform="translate(910,98.72273210199411)" d="M2.176455772485619,0A2.176455772485619,2.176455772485619,0,1,1,-2.176455772485619,0A2.176455772485619,2.176455772485619,0,1,1,2.176455772485619,0" style="fill: green; stroke-width: 2; opacity: 0.7;"></path><path transform="translate(310,138.1512776012044)" d="M3.726350419016987,0A3.726350419016987,3.726350419016987,0,1,1,-3.726350419016987,0A3.726350419016987,3.726350419016987,0,1,1,3.726350419016987,0" style="fill: green; stroke-width: 2; opacity: 0.7;"></path><path transform="translate(870,109.96051136363636)" d="M1.3812282800364255,0A1.3812282800364255,1.3812282800364255,0,1,1,-1.3812282800364255,0A1.3812282800364255,1.3812282800364255,0,1,1,1.3812282800364255,0" style="fill: green; stroke-width: 2; opacity: 0.7;"></path><path transform="translate(390,112.95782312925171)" d="M1.7851832079112806,0A1.7851832079112806,1.7851832079112806,0,1,1,-1.7851832079112806,0A1.7851832079112806,1.7851832079112806,0,1,1,1.7851832079112806,0" style="fill: green; stroke-width: 2; opacity: 0.7;"></path><path transform="translate(290,121.60173712342079)" d="M0.8925916039556403,0A0.8925916039556403,0.8925916039556403,0,1,1,-0.8925916039556403,0A0.8925916039556403,0.8925916039556403,0,1,1,0.8925916039556403,0" style="fill: green; stroke-width: 2; opacity: 0.7;"></path><path transform="translate(1110,179.16666666666669)" d="M0.04819541645736493,0A0.04819541645736493,0.04819541645736493,0,1,1,-0.04819541645736493,0A0.04819541645736493,0.04819541645736493,0,1,1,0.04819541645736493,0" style="fill: green; stroke-width: 2; opacity: 0.7;"></path><path transform="translate(270,77.1440176817289)" d="M1.9851987870713859,0A1.9851987870713859,1.9851987870713859,0,1,1,-1.9851987870713859,0A1.9851987870713859,1.9851987870713859,0,1,1,1.9851987870713859,0" style="fill: green; stroke-width: 2; opacity: 0.7;"></path><path transform="translate(690,64.73616581331231)" d="M1.4020918357082939,0A1.4020918357082939,1.4020918357082939,0,1,1,-1.4020918357082939,0A1.4020918357082939,1.4020918357082939,0,1,1,1.4020918357082939,0" style="fill: green; stroke-width: 2; opacity: 0.7;"></path><path transform="translate(810,102.32588085846092)" d="M3.40304237368467,0A3.40304237368467,3.40304237368467,0,1,1,-3.40304237368467,0A3.40304237368467,3.40304237368467,0,1,1,3.40304237368467,0" style="fill: green; stroke-width: 2; opacity: 0.7;"></path><path transform="translate(930,154.47101041307278)" d="M4.968493197954674,0A4.968493197954674,4.968493197954674,0,1,1,-4.968493197954674,0A4.968493197954674,4.968493197954674,0,1,1,4.968493197954674,0" style="fill: green; stroke-width: 2; opacity: 0.7;"></path><path transform="translate(250,157.29404154518951)" d="M1.0306760056403776,0A1.0306760056403776,1.0306760056403776,0,1,1,-1.0306760056403776,0A1.0306760056403776,1.0306760056403776,0,1,1,1.0306760056403776,0" style="fill: green; stroke-width: 2; opacity: 0.7;"></path><path transform="translate(970,120.43912764369563)" d="M5.532195645036855,0A5.532195645036855,5.532195645036855,0,1,1,-5.532195645036855,0A5.532195645036855,5.532195645036855,0,1,1,5.532195645036855,0" style="fill: green; stroke-width: 2; opacity: 0.7;"></path><path transform="translate(230,130.2528663029955)" d="M2.8443463251507306,0A2.8443463251507306,2.8443463251507306,0,1,1,-2.8443463251507306,0A2.8443463251507306,2.8443463251507306,0,1,1,2.8443463251507306,0" style="fill: green; stroke-width: 2; opacity: 0.7;"></path><path transform="translate(990,191.66666666666669)" d="M0.06815861159822495,0A0.06815861159822495,0.06815861159822495,0,1,1,-0.06815861159822495,0A0.06815861159822495,0.06815861159822495,0,1,1,0.06815861159822495,0" style="fill: green; stroke-width: 2; opacity: 0.7;"></path><path transform="translate(830,154.6875)" d="M0.07870278550765264,0A0.07870278550765264,0.07870278550765264,0,1,1,-0.07870278550765264,0A0.07870278550765264,0.07870278550765264,0,1,1,0.07870278550765264,0" style="fill: green; stroke-width: 2; opacity: 0.7;"></path><path transform="translate(10,63.68515211640211)" d="M0.5409922079890376,0A0.5409922079890376,0.5409922079890376,0,1,1,-0.5409922079890376,0A0.5409922079890376,0.5409922079890376,0,1,1,0.5409922079890376,0" style="fill: green; stroke-width: 2; opacity: 0.7;"></path><path transform="translate(1050,91.52698820104199)" d="M2.2478568193650177,0A2.2478568193650177,2.2478568193650177,0,1,1,-2.2478568193650177,0A2.2478568193650177,2.2478568193650177,0,1,1,2.2478568193650177,0" style="fill: green; stroke-width: 2; opacity: 0.7;"></path><path transform="translate(490,80.81187791601867)" d="M2.23126214036044,0A2.23126214036044,2.23126214036044,0,1,1,-2.23126214036044,0A2.23126214036044,2.23126214036044,0,1,1,2.23126214036044,0" style="fill: green; stroke-width: 2; opacity: 0.7;"></path><path transform="translate(530,156.9629740441405)" d="M1.5782312573303672,0A1.5782312573303672,1.5782312573303672,0,1,1,-1.5782312573303672,0A1.5782312573303672,1.5782312573303672,0,1,1,1.5782312573303672,0" style="fill: green; stroke-width: 2; opacity: 0.7;"></path><path transform="translate(730,132.72451638079204)" d="M4.6982497789859465,0A4.6982497789859465,4.6982497789859465,0,1,1,-4.6982497789859465,0A4.6982497789859465,4.6982497789859465,0,1,1,4.6982497789859465,0" style="fill: green; stroke-width: 2; opacity: 0.7;"></path><path transform="translate(470,101.73839986619089)" d="M2.946102931991233,0A2.946102931991233,2.946102931991233,0,1,1,-2.946102931991233,0A2.946102931991233,2.946102931991233,0,1,1,2.946102931991233,0" style="fill: green; stroke-width: 2; opacity: 0.7;"></path><path transform="translate(30,124.79432901907357)" d="M0.7538642351122536,0A0.7538642351122536,0.7538642351122536,0,1,1,-0.7538642351122536,0A0.7538642351122536,0.7538642351122536,0,1,1,0.7538642351122536,0" style="fill: green; stroke-width: 2; opacity: 0.7;"></path><path transform="translate(410,154.57965497737555)" d="M2.6162018143796275,0A2.6162018143796275,2.6162018143796275,0,1,1,-2.6162018143796275,0A2.6162018143796275,2.6162018143796275,0,1,1,2.6162018143796275,0" style="fill: green; stroke-width: 2; opacity: 0.7;"></path><path transform="translate(1070,101.97942875481387)" d="M1.0983198600534054,0A1.0983198600534054,1.0983198600534054,0,1,1,-1.0983198600534054,0A1.0983198600534054,1.0983198600534054,0,1,1,1.0983198600534054,0" style="fill: green; stroke-width: 2; opacity: 0.7;"></path><path transform="translate(510,13.500362203470795)" d="M2.2052585101721616,0A2.2052585101721616,2.2052585101721616,0,1,1,-2.2052585101721616,0A2.2052585101721616,2.2052585101721616,0,1,1,2.2052585101721616,0" style="fill: green; stroke-width: 2; opacity: 0.7;"></path><path transform="translate(650,58.700045158959526)" d="M1.4639564346474243,0A1.4639564346474243,1.4639564346474243,0,1,1,-1.4639564346474243,0A1.4639564346474243,1.4639564346474243,0,1,1,1.4639564346474243,0" style="fill: green; stroke-width: 2; opacity: 0.7;"></path><path transform="translate(770,151.39958422337503)" d="M1.592880995229891,0A1.592880995229891,1.592880995229891,0,1,1,-1.592880995229891,0A1.592880995229891,1.592880995229891,0,1,1,1.592880995229891,0" style="fill: green; stroke-width: 2; opacity: 0.7;"></path><path transform="translate(1090,148.74987419945106)" d="M0.9199308664380228,0A0.9199308664380228,0.9199308664380228,0,1,1,-0.9199308664380228,0A0.9199308664380228,0.9199308664380228,0,1,1,0.9199308664380228,0" style="fill: green; stroke-width: 2; opacity: 0.7;"></path><path transform="translate(850,145.47734232175503)" d="M1.3015737129192833,0A1.3015737129192833,1.3015737129192833,0,1,1,-1.3015737129192833,0A1.3015737129192833,1.3015737129192833,0,1,1,1.3015737129192833,0" style="fill: green; stroke-width: 2; opacity: 0.7;"></path><path transform="translate(170,15.785142134657937)" d="M9.5,0A9.5,9.5,0,1,1,-9.5,0A9.5,9.5,0,1,1,9.5,0" style="fill: green; stroke-width: 2; opacity: 0.7;"></path><path transform="translate(630,55.98676439003436)" d="M1.3425689471975364,0A1.3425689471975364,1.3425689471975364,0,1,1,-1.3425689471975364,0A1.3425689471975364,1.3425689471975364,0,1,1,1.3425689471975364,0" style="fill: green; stroke-width: 2; opacity: 0.7;"></path><path transform="translate(70,39.6681024774775)" d="M1.6583705949873293,0A1.6583705949873293,1.6583705949873293,0,1,1,-1.6583705949873293,0A1.6583705949873293,1.6583705949873293,0,1,1,1.6583705949873293,0" style="fill: green; stroke-width: 2; opacity: 0.7;"></path><path transform="translate(190,138.9517099863201)" d="M1.303060037159322,0A1.303060037159322,1.303060037159322,0,1,1,-1.303060037159322,0A1.303060037159322,1.303060037159322,0,1,1,1.303060037159322,0" style="fill: green; stroke-width: 2; opacity: 0.7;"></path><path transform="translate(130,94.77158048005647)" d="M2.0945146149763385,0A2.0945146149763385,2.0945146149763385,0,1,1,-2.0945146149763385,0A2.0945146149763385,2.0945146149763385,0,1,1,2.0945146149763385,0" style="fill: green; stroke-width: 2; opacity: 0.7;"></path><path transform="translate(150,157.65181211760705)" d="M2.1344276686083936,0A2.1344276686083936,2.1344276686083936,0,1,1,-2.1344276686083936,0A2.1344276686083936,2.1344276686083936,0,1,1,2.1344276686083936,0" style="fill: green; stroke-width: 2; opacity: 0.7;"></path><path transform="translate(790,57.84968451242831)" d="M1.4229215494900473,0A1.4229215494900473,1.4229215494900473,0,1,1,-1.4229215494900473,0A1.4229215494900473,1.4229215494900473,0,1,1,1.4229215494900473,0" style="fill: green; stroke-width: 2; opacity: 0.7;"></path><path transform="translate(210,100.05010359916542)" d="M3.655022096696773,0A3.655022096696773,3.655022096696773,0,1,1,-3.655022096696773,0A3.655022096696773,3.655022096696773,0,1,1,3.655022096696773,0" style="fill: green; stroke-width: 2; opacity: 0.7;"></path><path transform="translate(50,147.72139661164206)" d="M2.110900554578214,0A2.110900554578214,2.110900554578214,0,1,1,-2.110900554578214,0A2.110900554578214,2.110900554578214,0,1,1,2.110900554578214,0" style="fill: green; stroke-width: 2; opacity: 0.7;"></path><path transform="translate(350,153.80691420664206)" d="M1.4485375422498676,0A1.4485375422498676,1.4485375422498676,0,1,1,-1.4485375422498676,0A1.4485375422498676,1.4485375422498676,0,1,1,1.4485375422498676,0" style="fill: green; stroke-width: 2; opacity: 0.7;"></path><path transform="translate(670,139.77976878059974)" d="M3.1813842713272296,0A3.1813842713272296,3.1813842713272296,0,1,1,-3.1813842713272296,0A3.1813842713272296,3.1813842713272296,0,1,1,3.1813842713272296,0" style="fill: green; stroke-width: 2; opacity: 0.7;"></path><path transform="translate(950,120.17300185873606)" d="M1.0204841229021224,0A1.0204841229021224,1.0204841229021224,0,1,1,-1.0204841229021224,0A1.0204841229021224,1.0204841229021224,0,1,1,1.0204841229021224,0" style="fill: green; stroke-width: 2; opacity: 0.7;"></path><path transform="translate(330,127.92454693729613)" d="M2.066978494345358,0A2.066978494345358,2.066978494345358,0,1,1,-2.066978494345358,0A2.066978494345358,2.066978494345358,0,1,1,2.066978494345358,0" style="fill: green; stroke-width: 2; opacity: 0.7;"></path><path transform="translate(370,121.57983961128312)" d="M2.121693391754038,0A2.121693391754038,2.121693391754038,0,1,1,-2.121693391754038,0A2.121693391754038,2.121693391754038,0,1,1,2.121693391754038,0" style="fill: green; stroke-width: 2; opacity: 0.7;"></path><path transform="translate(450,91.77855468749998)" d="M1.1130254666146304,0A1.1130254666146304,1.1130254666146304,0,1,1,-1.1130254666146304,0A1.1130254666146304,1.1130254666146304,0,1,1,1.1130254666146304,0" style="fill: green; stroke-width: 2; opacity: 0.7;"></path><path transform="translate(430,150.51958568288254)" d="M2.846251173417435,0A2.846251173417435,2.846251173417435,0,1,1,-2.846251173417435,0A2.846251173417435,2.846251173417435,0,1,1,2.846251173417435,0" style="fill: green; stroke-width: 2; opacity: 0.7;"></path><path transform="translate(610,100.2698846539619)" d="M0.8786030148283401,0A0.8786030148283401,0.8786030148283401,0,1,1,-0.8786030148283401,0A0.8786030148283401,0.8786030148283401,0,1,1,0.8786030148283401,0" style="fill: green; stroke-width: 2; opacity: 0.7;"></path><path transform="translate(110,145.2196572276431)" d="M5.54868592048075,0A5.54868592048075,5.54868592048075,0,1,1,-5.54868592048075,0A5.54868592048075,5.54868592048075,0,1,1,5.54868592048075,0" style="fill: green; stroke-width: 2; opacity: 0.7;"></path><path transform="translate(1030,63.251956410256405)" d="M1.942819348829329,0A1.942819348829329,1.942819348829329,0,1,1,-1.942819348829329,0A1.942819348829329,1.942819348829329,0,1,1,1.942819348829329,0" style="fill: green; stroke-width: 2; opacity: 0.7;"></path><path transform="translate(90,125.80972616512894)" d="M1.8090944193175402,0A1.8090944193175402,1.8090944193175402,0,1,1,-1.8090944193175402,0A1.8090944193175402,1.8090944193175402,0,1,1,1.8090944193175402,0" style="fill: green; stroke-width: 2; opacity: 0.7;"></path><path transform="translate(550,40.996953541507985)" d="M1.0082714571526161,0A1.0082714571526161,1.0082714571526161,0,1,1,-1.0082714571526161,0A1.0082714571526161,1.0082714571526161,0,1,1,1.0082714571526161,0" style="fill: green; stroke-width: 2; opacity: 0.7;"></path><path transform="translate(1010,119.99932950191572)" d="M0.8990738358386351,0A0.8990738358386351,0.8990738358386351,0,1,1,-0.8990738358386351,0A0.8990738358386351,0.8990738358386351,0,1,1,0.8990738358386351,0" style="fill: green; stroke-width: 2; opacity: 0.7;"></path><path transform="translate(750,87.71043828725342)" d="M3.1262694098204804,0A3.1262694098204804,3.1262694098204804,0,1,1,-3.1262694098204804,0A3.1262694098204804,3.1262694098204804,0,1,1,3.1262694098204804,0" style="fill: green; stroke-width: 2; opacity: 0.7;"></path><path transform="translate(890,47.09242179072275)" d="M1.198119053981817,0A1.198119053981817,1.198119053981817,0,1,1,-1.198119053981817,0A1.198119053981817,1.198119053981817,0,1,1,1.198119053981817,0" style="fill: green; stroke-width: 2; opacity: 0.7;"></path></g><g class="mark-symbol role-mark layer_1_marks"><path transform="translate(670,17.1469684769318)" d="M-3.895101779134923,-3.895101779134923h7.790203558269846v7.790203558269846h-7.790203558269846Z" style="fill: firebrick; stroke-width: 2; opacity: 0.7;"></path><path transform="translate(1050,101.01308947462795)" d="M-2.8698859563229244,-2.8698859563229244h5.739771912645849v5.739771912645849h-5.739771912645849Z" style="fill: firebrick; stroke-width: 2; opacity: 0.7;"></path><path transform="translate(870,99.26256983240225)" d="M-2.1576756411841527,-2.1576756411841527h4.315351282368305v4.315351282368305h-4.315351282368305Z" style="fill: firebrick; stroke-width: 2; opacity: 0.7;"></path><path transform="translate(1070,113.83879781420765)" d="M-0.6412440193009235,-0.6412440193009235h1.282488038601847v1.282488038601847h-1.282488038601847Z" style="fill: firebrick; stroke-width: 2; opacity: 0.7;"></path><path transform="translate(610,147.35013321492008)" d="M-1.0023607921450874,-1.0023607921450874h2.004721584290175v2.004721584290175h-2.004721584290175Z" style="fill: firebrick; stroke-width: 2; opacity: 0.7;"></path><path transform="translate(830,91.76316677920325)" d="M-1.6190322099532877,-1.6190322099532877h3.2380644199065753v3.2380644199065753h-3.2380644199065753Z" style="fill: firebrick; stroke-width: 2; opacity: 0.7;"></path><path transform="translate(930,95.15731167619221)" d="M-9.04590242581529,-9.04590242581529h18.09180485163058v18.09180485163058h-18.09180485163058Z" style="fill: firebrick; stroke-width: 2; opacity: 0.7;"></path><path transform="translate(990,102.72296296296297)" d="M-0.610734597607526,-0.610734597607526h1.221469195215052v1.221469195215052h-1.221469195215052Z" style="fill: firebrick; stroke-width: 2; opacity: 0.7;"></path><path transform="translate(30,120.48947565076598)" d="M-2.117456564554124,-2.117456564554124h4.234913129108248v4.234913129108248h-4.234913129108248Z" style="fill: firebrick; stroke-width: 2; opacity: 0.7;"></path><path transform="translate(970,102.58538538147593)" d="M-4.802164789244625,-4.802164789244625h9.60432957848925v9.60432957848925h-9.60432957848925Z" style="fill: firebrick; stroke-width: 2; opacity: 0.7;"></path><path transform="translate(330,114.27635293513782)" d="M-2.5638023850276945,-2.5638023850276945h5.127604770055389v5.127604770055389h-5.127604770055389Z" style="fill: firebrick; stroke-width: 2; opacity: 0.7;"></path><path transform="translate(350,111.94899683986183)" d="M-1.2400548412172443,-1.2400548412172443h2.4801096824344886v2.4801096824344886h-2.4801096824344886Z" style="fill: firebrick; stroke-width: 2; opacity: 0.7;"></path><path transform="translate(730,84.18646110424237)" d="M-6.021921313771185,-6.021921313771185h12.04384262754237v12.04384262754237h-12.04384262754237Z" style="fill: firebrick; stroke-width: 2; opacity: 0.7;"></path><path transform="translate(810,82.93394124389837)" d="M-4.164825522332927,-4.164825522332927h8.329651044665853v8.329651044665853h-8.329651044665853Z" style="fill: firebrick; stroke-width: 2; opacity: 0.7;"></path><path transform="translate(1010,80.9332355099046)" d="M-0.8756021108684723,-0.8756021108684723h1.7512042217369446v1.7512042217369446h-1.7512042217369446Z" style="fill: firebrick; stroke-width: 2; opacity: 0.7;"></path><path transform="translate(270,105.78390545863816)" d="M-1.7447550146809048,-1.7447550146809048h3.4895100293618095v3.4895100293618095h-3.4895100293618095Z" style="fill: firebrick; stroke-width: 2; opacity: 0.7;"></path><path transform="translate(90,121.78593365424408)" d="M-5.036974477659707,-5.036974477659707h10.073948955319414v10.073948955319414h-10.073948955319414Z" style="fill: firebrick; stroke-width: 2; opacity: 0.7;"></path><path transform="translate(450,73.97971045123111)" d="M-1.034387649623537,-1.034387649623537h2.068775299247074v2.068775299247074h-2.068775299247074Z" style="fill: firebrick; stroke-width: 2; opacity: 0.7;"></path><path transform="translate(850,96.54904441331946)" d="M-1.5695705111408935,-1.5695705111408935h3.139141022281787v3.139141022281787h-3.139141022281787Z" style="fill: firebrick; stroke-width: 2; opacity: 0.7;"></path><path transform="translate(590,104.30453957398511)" d="M-4.814888249937086,-4.814888249937086h9.629776499874172v9.629776499874172h-9.629776499874172Z" style="fill: firebrick; stroke-width: 2; opacity: 0.7;"></path><path transform="translate(530,123.37109340019701)" d="M-1.5796144747532377,-1.5796144747532377h3.1592289495064754v3.1592289495064754h-3.1592289495064754Z" style="fill: firebrick; stroke-width: 2; opacity: 0.7;"></path><path transform="translate(490,125.79742087803712)" d="M-3.855264808874232,-3.855264808874232h7.710529617748464v7.710529617748464h-7.710529617748464Z" style="fill: firebrick; stroke-width: 2; opacity: 0.7;"></path><path transform="translate(230,85.2421056062885)" d="M-6.906163814742669,-6.906163814742669h13.812327629485338v13.812327629485338h-13.812327629485338Z" style="fill: firebrick; stroke-width: 2; opacity: 0.7;"></path><path transform="translate(210,93.82215143442667)" d="M-7.149245988844981,-7.149245988844981h14.298491977689961v14.298491977689961h-14.298491977689961Z" style="fill: firebrick; stroke-width: 2; opacity: 0.7;"></path><path transform="translate(410,103.22244307284582)" d="M-3.599376051940653,-3.599376051940653h7.198752103881306v7.198752103881306h-7.198752103881306Z" style="fill: firebrick; stroke-width: 2; opacity: 0.7;"></path><path transform="translate(710,99.52145071706026)" d="M-4.66388204457077,-4.66388204457077h9.32776408914154v9.32776408914154h-9.32776408914154Z" style="fill: firebrick; stroke-width: 2; opacity: 0.7;"></path><path transform="translate(570,133.69842298552604)" d="M-0.7229186318883798,-0.7229186318883798h1.4458372637767596v1.4458372637767596h-1.4458372637767596Z" style="fill: firebrick; stroke-width: 2; opacity: 0.7;"></path><path transform="translate(110,114.32490645923592)" d="M-9.5,-9.5h19v19h-19Z" style="fill: firebrick; stroke-width: 2; opacity: 0.7;"></path><path transform="translate(1090,151.62778422886097)" d="M-1.0283920717208097,-1.0283920717208097h2.0567841434416194v2.0567841434416194h-2.0567841434416194Z" style="fill: firebrick; stroke-width: 2; opacity: 0.7;"></path><path transform="translate(370,105.9168291739692)" d="M-3.6849438153361045,-3.6849438153361045h7.369887630672209v7.369887630672209h-7.369887630672209Z" style="fill: firebrick; stroke-width: 2; opacity: 0.7;"></path><path transform="translate(1030,119.38116655844671)" d="M-3.737482042542998,-3.737482042542998h7.474964085085996v7.474964085085996h-7.474964085085996Z" style="fill: firebrick; stroke-width: 2; opacity: 0.7;"></path><path transform="translate(890,134.8651134273452)" d="M-1.045857229024278,-1.045857229024278h2.091714458048556v2.091714458048556h-2.091714458048556Z" style="fill: firebrick; stroke-width: 2; opacity: 0.7;"></path><path transform="translate(250,179.81803529400992)" d="M-3.4722953991501813,-3.4722953991501813h6.9445907983003625v6.9445907983003625h-6.9445907983003625Z" style="fill: firebrick; stroke-width: 2; opacity: 0.7;"></path><path transform="translate(950,149.41571340020286)" d="M-3.9571690833792306,-3.9571690833792306h7.914338166758461v7.914338166758461h-7.914338166758461Z" style="fill: firebrick; stroke-width: 2; opacity: 0.7;"></path><path transform="translate(550,185.21453459432553)" d="M-1.4898299663451262,-1.4898299663451262h2.9796599326902524v2.9796599326902524h-2.9796599326902524Z" style="fill: firebrick; stroke-width: 2; opacity: 0.7;"></path><path transform="translate(690,125.58205238710913)" d="M-2.146742133876103,-2.146742133876103h4.293484267752206v4.293484267752206h-4.293484267752206Z" style="fill: firebrick; stroke-width: 2; opacity: 0.7;"></path><path transform="translate(70,93.02113880742912)" d="M-1.9196028644482694,-1.9196028644482694h3.839205728896539v3.839205728896539h-3.839205728896539Z" style="fill: firebrick; stroke-width: 2; opacity: 0.7;"></path><path transform="translate(510,103.56461766339567)" d="M-3.8036629944124236,-3.8036629944124236h7.607325988824847v7.607325988824847h-7.607325988824847Z" style="fill: firebrick; stroke-width: 2; opacity: 0.7;"></path><path transform="translate(310,39.625148370792964)" d="M-7.1050117326808016,-7.1050117326808016h14.210023465361603v14.210023465361603h-14.210023465361603Z" style="fill: firebrick; stroke-width: 2; opacity: 0.7;"></path><path transform="translate(650,95.16592859876441)" d="M-1.4263268640448477,-1.4263268640448477h2.8526537280896953v2.8526537280896953h-2.8526537280896953Z" style="fill: firebrick; stroke-width: 2; opacity: 0.7;"></path><path transform="translate(150,124.06554196833754)" d="M-1.795304031304708,-1.795304031304708h3.590608062609416v3.590608062609416h-3.590608062609416Z" style="fill: firebrick; stroke-width: 2; opacity: 0.7;"></path><path transform="translate(50,115.9286996211198)" d="M-2.245396191546626,-2.245396191546626h4.490792383093252v4.490792383093252h-4.490792383093252Z" style="fill: firebrick; stroke-width: 2; opacity: 0.7;"></path><path transform="translate(910,112.07994579945799)" d="M-4.174170358557923,-4.174170358557923h8.348340717115846v8.348340717115846h-8.348340717115846Z" style="fill: firebrick; stroke-width: 2; opacity: 0.7;"></path><path transform="translate(290,156.87085782753584)" d="M-1.7229139440268522,-1.7229139440268522h3.4458278880537043v3.4458278880537043h-3.4458278880537043Z" style="fill: firebrick; stroke-width: 2; opacity: 0.7;"></path><path transform="translate(390,112.4998471602372)" d="M-2.7116021033631124,-2.7116021033631124h5.423204206726225v5.423204206726225h-5.423204206726225Z" style="fill: firebrick; stroke-width: 2; opacity: 0.7;"></path><path transform="translate(770,121.99489816254135)" d="M-2.362123746616916,-2.362123746616916h4.724247493233832v4.724247493233832h-4.724247493233832Z" style="fill: firebrick; stroke-width: 2; opacity: 0.7;"></path><path transform="translate(630,110.17536123736518)" d="M-1.8133498750875745,-1.8133498750875745h3.626699750175149v3.626699750175149h-3.626699750175149Z" style="fill: firebrick; stroke-width: 2; opacity: 0.7;"></path><path transform="translate(790,130.11964855794156)" d="M-2.849870772329723,-2.849870772329723h5.699741544659446v5.699741544659446h-5.699741544659446Z" style="fill: firebrick; stroke-width: 2; opacity: 0.7;"></path><path transform="translate(430,98.63211299303494)" d="M-3.375000592320713,-3.375000592320713h6.750001184641426v6.750001184641426h-6.750001184641426Z" style="fill: firebrick; stroke-width: 2; opacity: 0.7;"></path><path transform="translate(750,109.33341434763236)" d="M-3.716706060933636,-3.716706060933636h7.433412121867272v7.433412121867272h-7.433412121867272Z" style="fill: firebrick; stroke-width: 2; opacity: 0.7;"></path><path transform="translate(130,103.39987291409425)" d="M-5.54426282846707,-5.54426282846707h11.08852565693414v11.08852565693414h-11.08852565693414Z" style="fill: firebrick; stroke-width: 2; opacity: 0.7;"></path><path transform="translate(470,110.40491401478624)" d="M-4.715075978361084,-4.715075978361084h9.430151956722169v9.430151956722169h-9.430151956722169Z" style="fill: firebrick; stroke-width: 2; opacity: 0.7;"></path></g><g class="mark-group role-legend"><g transform="translate(1172,0)"><path class="background" d="M0,0h93v110h-93Z" style="pointer-events: none; fill: none;"></path><g><g class="mark-group role-legend-entry"><g transform="translate(0,16)"><path class="background" d="M0,0h0v0h0Z" style="pointer-events: none; fill: none;"></path><g><g class="mark-group role-scope"><g transform="translate(0,0)"><path class="background" d="M0,0h60.1474609375v10.435139275382632h-60.1474609375Z" style="pointer-events: none; fill: none; opacity: 1;"></path><g><g class="mark-symbol role-legend-symbol" style="pointer-events: none;"><path transform="translate(10,5)" d="M3.935139275382632,0A3.935139275382632,3.935139275382632,0,1,1,-3.935139275382632,0A3.935139275382632,3.935139275382632,0,1,1,3.935139275382632,0" style="fill: green; stroke: none; stroke-width: 1.5; opacity: 0.7;"></path></g><g class="mark-text role-legend-label" style="pointer-events: none;"><text text-anchor="start" transform="translate(24,8)" style="font-family: sans-serif; font-size: 10px; fill: #000; opacity: 1;">20,000</text></g></g><path class="foreground" d="" style="pointer-events: none; display: none; fill: none;"></path></g><g transform="translate(0,14)"><path class="background" d="M0,0h60.1474609375v13.56512733307315h-60.1474609375Z" style="pointer-events: none; fill: none; opacity: 1;"></path><g><g class="mark-symbol role-legend-symbol" style="pointer-events: none;"><path transform="translate(10,6.5)" d="M5.565127333073152,0A5.565127333073152,5.565127333073152,0,1,1,-5.565127333073152,0A5.565127333073152,5.565127333073152,0,1,1,5.565127333073152,0" style="fill: green; stroke: none; stroke-width: 1.5; opacity: 0.7;"></path></g><g class="mark-text role-legend-label" style="pointer-events: none;"><text text-anchor="start" transform="translate(24,9.5)" style="font-family: sans-serif; font-size: 10px; fill: #000; opacity: 1;">40,000</text></g></g><path class="foreground" d="" style="pointer-events: none; display: none; fill: none;"></path></g><g transform="translate(0,31)"><path class="background" d="M0,0h60.1474609375v16.315861159822497h-60.1474609375Z" style="pointer-events: none; fill: none; opacity: 1;"></path><g><g class="mark-symbol role-legend-symbol" style="pointer-events: none;"><path transform="translate(10,8)" d="M6.815861159822495,0A6.815861159822495,6.815861159822495,0,1,1,-6.815861159822495,0A6.815861159822495,6.815861159822495,0,1,1,6.815861159822495,0" style="fill: green; stroke: none; stroke-width: 1.5; opacity: 0.7;"></path></g><g class="mark-text role-legend-label" style="pointer-events: none;"><text text-anchor="start" transform="translate(24,11)" style="font-family: sans-serif; font-size: 10px; fill: #000; opacity: 1;">60,000</text></g></g><path class="foreground" d="" style="pointer-events: none; display: none; fill: none;"></path></g><g transform="translate(0,51)"><path class="background" d="M0,0h60.1474609375v18.370278550765264h-60.1474609375Z" style="pointer-events: none; fill: none; opacity: 1;"></path><g><g class="mark-symbol role-legend-symbol" style="pointer-events: none;"><path transform="translate(10,9)" d="M7.870278550765264,0A7.870278550765264,7.870278550765264,0,1,1,-7.870278550765264,0A7.870278550765264,7.870278550765264,0,1,1,7.870278550765264,0" style="fill: green; stroke: none; stroke-width: 1.5; opacity: 0.7;"></path></g><g class="mark-text role-legend-label" style="pointer-events: none;"><text text-anchor="start" transform="translate(24,12)" style="font-family: sans-serif; font-size: 10px; fill: #000; opacity: 1;">80,000</text></g></g><path class="foreground" d="" style="pointer-events: none; display: none; fill: none;"></path></g><g transform="translate(0,73)"><path class="background" d="M0,0h60.1474609375v20.29923892068483h-60.1474609375Z" style="pointer-events: none; fill: none; opacity: 1;"></path><g><g class="mark-symbol role-legend-symbol" style="pointer-events: none;"><path transform="translate(10,10)" d="M8.799238920684829,0A8.799238920684829,8.799238920684829,0,1,1,-8.799238920684829,0A8.799238920684829,8.799238920684829,0,1,1,8.799238920684829,0" style="fill: green; stroke: none; stroke-width: 1.5; opacity: 0.7;"></path></g><g class="mark-text role-legend-label" style="pointer-events: none;"><text text-anchor="start" transform="translate(24,13)" style="font-family: sans-serif; font-size: 10px; fill: #000; opacity: 1;">100,000</text></g></g><path class="foreground" d="" style="pointer-events: none; display: none; fill: none;"></path></g></g></g><path class="foreground" d="" style="pointer-events: none; display: none; fill: none;"></path></g></g><g class="mark-text role-legend-title" style="pointer-events: none;"><text text-anchor="start" transform="translate(0,9)" style="font-family: sans-serif; font-size: 11px; font-weight: bold; fill: #000; opacity: 1;">Count of Records</text></g></g><path class="foreground" d="" style="pointer-events: none; display: none; fill: none;"></path></g></g><g class="mark-group role-legend"><g transform="translate(1172,118)"><path class="background" d="M0,0h93v94h-93Z" style="pointer-events: none; fill: none;"></path><g><g class="mark-group role-legend-entry"><g transform="translate(0,16)"><path class="background" d="M0,0h0v0h0Z" style="pointer-events: none; fill: none;"></path><g><g class="mark-group role-scope"><g transform="translate(0,0)"><path class="background" d="M0,0h61.1474609375v11.678619514171018h-61.1474609375Z" style="pointer-events: none; fill: none; opacity: 1;"></path><g><g class="mark-symbol role-legend-symbol" style="pointer-events: none;"><path transform="translate(10.5,5.5)" d="M-4.678619514171018,-4.678619514171018h9.357239028342036v9.357239028342036h-9.357239028342036Z" style="fill: firebrick; stroke: none; stroke-width: 1.5; opacity: 0.7;"></path></g><g class="mark-text role-legend-label" style="pointer-events: none;"><text text-anchor="start" transform="translate(25,8.5)" style="font-family: sans-serif; font-size: 10px; fill: #000; opacity: 1;">200,000</text></g></g><path class="foreground" d="" style="pointer-events: none; display: none; fill: none;"></path></g><g transform="translate(0,15)"><path class="background" d="M0,0h61.1474609375v15.616567170124075h-61.1474609375Z" style="pointer-events: none; fill: none; opacity: 1;"></path><g><g class="mark-symbol role-legend-symbol" style="pointer-events: none;"><path transform="translate(10.5,7.5)" d="M-6.616567170124075,-6.616567170124075h13.23313434024815v13.23313434024815h-13.23313434024815Z" style="fill: firebrick; stroke: none; stroke-width: 1.5; opacity: 0.7;"></path></g><g class="mark-text role-legend-label" style="pointer-events: none;"><text text-anchor="start" transform="translate(25,10.5)" style="font-family: sans-serif; font-size: 10px; fill: #000; opacity: 1;">400,000</text></g></g><path class="foreground" d="" style="pointer-events: none; display: none; fill: none;"></path></g><g transform="translate(0,34)"><path class="background" d="M0,0h61.1474609375v18.603606707827424h-61.1474609375Z" style="pointer-events: none; fill: none; opacity: 1;"></path><g><g class="mark-symbol role-legend-symbol" style="pointer-events: none;"><path transform="translate(10.5,9)" d="M-8.10360670782742,-8.10360670782742h16.20721341565484v16.20721341565484h-16.20721341565484Z" style="fill: firebrick; stroke: none; stroke-width: 1.5; opacity: 0.7;"></path></g><g class="mark-text role-legend-label" style="pointer-events: none;"><text text-anchor="start" transform="translate(25,12)" style="font-family: sans-serif; font-size: 10px; fill: #000; opacity: 1;">600,000</text></g></g><path class="foreground" d="" style="pointer-events: none; display: none; fill: none;"></path></g><g transform="translate(0,56)"><path class="background" d="M0,0h61.1474609375v21.357239028342036h-61.1474609375Z" style="pointer-events: none; fill: none; opacity: 1;"></path><g><g class="mark-symbol role-legend-symbol" style="pointer-events: none;"><path transform="translate(10.5,10.5)" d="M-9.357239028342036,-9.357239028342036h18.714478056684072v18.714478056684072h-18.714478056684072Z" style="fill: firebrick; stroke: none; stroke-width: 1.5; opacity: 0.7;"></path></g><g class="mark-text role-legend-label" style="pointer-events: none;"><text text-anchor="start" transform="translate(25,13.5)" style="font-family: sans-serif; font-size: 10px; fill: #000; opacity: 1;">800,000</text></g></g><path class="foreground" d="" style="pointer-events: none; display: none; fill: none;"></path></g></g></g><path class="foreground" d="" style="pointer-events: none; display: none; fill: none;"></path></g></g><g class="mark-text role-legend-title" style="pointer-events: none;"><text text-anchor="start" transform="translate(0,9)" style="font-family: sans-serif; font-size: 11px; font-weight: bold; fill: #000; opacity: 1;">Count of Records</text></g></g><path class="foreground" d="" style="pointer-events: none; display: none; fill: none;"></path></g></g><g class="mark-group role-axis"><g transform="translate(0.5,200.5)"><path class="background" d="M0,0h0v0h0Z" style="pointer-events: none; fill: none;"></path><g><g class="mark-rule role-axis-tick" style="pointer-events: none;"><line transform="translate(10,0)" x2="0" y2="5" style="fill: none; stroke: #888; stroke-width: 1; opacity: 1;"></line><line transform="translate(30,0)" x2="0" y2="5" style="fill: none; stroke: #888; stroke-width: 1; opacity: 1;"></line><line transform="translate(50,0)" x2="0" y2="5" style="fill: none; stroke: #888; stroke-width: 1; opacity: 1;"></line><line transform="translate(70,0)" x2="0" y2="5" style="fill: none; stroke: #888; stroke-width: 1; opacity: 1;"></line><line transform="translate(90,0)" x2="0" y2="5" style="fill: none; stroke: #888; stroke-width: 1; opacity: 1;"></line><line transform="translate(110,0)" x2="0" y2="5" style="fill: none; stroke: #888; stroke-width: 1; opacity: 1;"></line><line transform="translate(130,0)" x2="0" y2="5" style="fill: none; stroke: #888; stroke-width: 1; opacity: 1;"></line><line transform="translate(150,0)" x2="0" y2="5" style="fill: none; stroke: #888; stroke-width: 1; opacity: 1;"></line><line transform="translate(170,0)" x2="0" y2="5" style="fill: none; stroke: #888; stroke-width: 1; opacity: 1;"></line><line transform="translate(190,0)" x2="0" y2="5" style="fill: none; stroke: #888; stroke-width: 1; opacity: 1;"></line><line transform="translate(210,0)" x2="0" y2="5" style="fill: none; stroke: #888; stroke-width: 1; opacity: 1;"></line><line transform="translate(230,0)" x2="0" y2="5" style="fill: none; stroke: #888; stroke-width: 1; opacity: 1;"></line><line transform="translate(250,0)" x2="0" y2="5" style="fill: none; stroke: #888; stroke-width: 1; opacity: 1;"></line><line transform="translate(270,0)" x2="0" y2="5" style="fill: none; stroke: #888; stroke-width: 1; opacity: 1;"></line><line transform="translate(290,0)" x2="0" y2="5" style="fill: none; stroke: #888; stroke-width: 1; opacity: 1;"></line><line transform="translate(310,0)" x2="0" y2="5" style="fill: none; stroke: #888; stroke-width: 1; opacity: 1;"></line><line transform="translate(330,0)" x2="0" y2="5" style="fill: none; stroke: #888; stroke-width: 1; opacity: 1;"></line><line transform="translate(350,0)" x2="0" y2="5" style="fill: none; stroke: #888; stroke-width: 1; opacity: 1;"></line><line transform="translate(370,0)" x2="0" y2="5" style="fill: none; stroke: #888; stroke-width: 1; opacity: 1;"></line><line transform="translate(390,0)" x2="0" y2="5" style="fill: none; stroke: #888; stroke-width: 1; opacity: 1;"></line><line transform="translate(410,0)" x2="0" y2="5" style="fill: none; stroke: #888; stroke-width: 1; opacity: 1;"></line><line transform="translate(430,0)" x2="0" y2="5" style="fill: none; stroke: #888; stroke-width: 1; opacity: 1;"></line><line transform="translate(450,0)" x2="0" y2="5" style="fill: none; stroke: #888; stroke-width: 1; opacity: 1;"></line><line transform="translate(470,0)" x2="0" y2="5" style="fill: none; stroke: #888; stroke-width: 1; opacity: 1;"></line><line transform="translate(490,0)" x2="0" y2="5" style="fill: none; stroke: #888; stroke-width: 1; opacity: 1;"></line><line transform="translate(510,0)" x2="0" y2="5" style="fill: none; stroke: #888; stroke-width: 1; opacity: 1;"></line><line transform="translate(530,0)" x2="0" y2="5" style="fill: none; stroke: #888; stroke-width: 1; opacity: 1;"></line><line transform="translate(550,0)" x2="0" y2="5" style="fill: none; stroke: #888; stroke-width: 1; opacity: 1;"></line><line transform="translate(570,0)" x2="0" y2="5" style="fill: none; stroke: #888; stroke-width: 1; opacity: 1;"></line><line transform="translate(590,0)" x2="0" y2="5" style="fill: none; stroke: #888; stroke-width: 1; opacity: 1;"></line><line transform="translate(610,0)" x2="0" y2="5" style="fill: none; stroke: #888; stroke-width: 1; opacity: 1;"></line><line transform="translate(630,0)" x2="0" y2="5" style="fill: none; stroke: #888; stroke-width: 1; opacity: 1;"></line><line transform="translate(650,0)" x2="0" y2="5" style="fill: none; stroke: #888; stroke-width: 1; opacity: 1;"></line><line transform="translate(670,0)" x2="0" y2="5" style="fill: none; stroke: #888; stroke-width: 1; opacity: 1;"></line><line transform="translate(690,0)" x2="0" y2="5" style="fill: none; stroke: #888; stroke-width: 1; opacity: 1;"></line><line transform="translate(710,0)" x2="0" y2="5" style="fill: none; stroke: #888; stroke-width: 1; opacity: 1;"></line><line transform="translate(730,0)" x2="0" y2="5" style="fill: none; stroke: #888; stroke-width: 1; opacity: 1;"></line><line transform="translate(750,0)" x2="0" y2="5" style="fill: none; stroke: #888; stroke-width: 1; opacity: 1;"></line><line transform="translate(770,0)" x2="0" y2="5" style="fill: none; stroke: #888; stroke-width: 1; opacity: 1;"></line><line transform="translate(790,0)" x2="0" y2="5" style="fill: none; stroke: #888; stroke-width: 1; opacity: 1;"></line><line transform="translate(810,0)" x2="0" y2="5" style="fill: none; stroke: #888; stroke-width: 1; opacity: 1;"></line><line transform="translate(830,0)" x2="0" y2="5" style="fill: none; stroke: #888; stroke-width: 1; opacity: 1;"></line><line transform="translate(850,0)" x2="0" y2="5" style="fill: none; stroke: #888; stroke-width: 1; opacity: 1;"></line><line transform="translate(870,0)" x2="0" y2="5" style="fill: none; stroke: #888; stroke-width: 1; opacity: 1;"></line><line transform="translate(890,0)" x2="0" y2="5" style="fill: none; stroke: #888; stroke-width: 1; opacity: 1;"></line><line transform="translate(910,0)" x2="0" y2="5" style="fill: none; stroke: #888; stroke-width: 1; opacity: 1;"></line><line transform="translate(930,0)" x2="0" y2="5" style="fill: none; stroke: #888; stroke-width: 1; opacity: 1;"></line><line transform="translate(950,0)" x2="0" y2="5" style="fill: none; stroke: #888; stroke-width: 1; opacity: 1;"></line><line transform="translate(970,0)" x2="0" y2="5" style="fill: none; stroke: #888; stroke-width: 1; opacity: 1;"></line><line transform="translate(990,0)" x2="0" y2="5" style="fill: none; stroke: #888; stroke-width: 1; opacity: 1;"></line><line transform="translate(1010,0)" x2="0" y2="5" style="fill: none; stroke: #888; stroke-width: 1; opacity: 1;"></line><line transform="translate(1030,0)" x2="0" y2="5" style="fill: none; stroke: #888; stroke-width: 1; opacity: 1;"></line><line transform="translate(1050,0)" x2="0" y2="5" style="fill: none; stroke: #888; stroke-width: 1; opacity: 1;"></line><line transform="translate(1070,0)" x2="0" y2="5" style="fill: none; stroke: #888; stroke-width: 1; opacity: 1;"></line><line transform="translate(1090,0)" x2="0" y2="5" style="fill: none; stroke: #888; stroke-width: 1; opacity: 1;"></line><line transform="translate(1110,0)" x2="0" y2="5" style="fill: none; stroke: #888; stroke-width: 1; opacity: 1;"></line></g><g class="mark-text role-axis-label" style="pointer-events: none;"><text text-anchor="end" transform="translate(10,7) rotate(270) translate(0,3)" style="font-family: sans-serif; font-size: 10px; fill: #000; opacity: 1;">null</text><text text-anchor="end" transform="translate(30,7) rotate(270) translate(0,3)" style="font-family: sans-serif; font-size: 10px; fill: #000; opacity: 1;">AK</text><text text-anchor="end" transform="translate(50,7) rotate(270) translate(0,3)" style="font-family: sans-serif; font-size: 10px; fill: #000; opacity: 1;">AL</text><text text-anchor="end" transform="translate(70,7) rotate(270) translate(0,3)" style="font-family: sans-serif; font-size: 10px; fill: #000; opacity: 1;">AR</text><text text-anchor="end" transform="translate(90,7) rotate(270) translate(0,3)" style="font-family: sans-serif; font-size: 10px; fill: #000; opacity: 1;">AZ</text><text text-anchor="end" transform="translate(110,7) rotate(270) translate(0,3)" style="font-family: sans-serif; font-size: 10px; fill: #000; opacity: 1;">CA</text><text text-anchor="end" transform="translate(130,7) rotate(270) translate(0,3)" style="font-family: sans-serif; font-size: 10px; fill: #000; opacity: 1;">CO</text><text text-anchor="end" transform="translate(150,7) rotate(270) translate(0,3)" style="font-family: sans-serif; font-size: 10px; fill: #000; opacity: 1;">CT</text><text text-anchor="end" transform="translate(170,7) rotate(270) translate(0,3)" style="font-family: sans-serif; font-size: 10px; fill: #000; opacity: 1;">DC</text><text text-anchor="end" transform="translate(190,7) rotate(270) translate(0,3)" style="font-family: sans-serif; font-size: 10px; fill: #000; opacity: 1;">DE</text><text text-anchor="end" transform="translate(210,7) rotate(270) translate(0,3)" style="font-family: sans-serif; font-size: 10px; fill: #000; opacity: 1;">FL</text><text text-anchor="end" transform="translate(230,7) rotate(270) translate(0,3)" style="font-family: sans-serif; font-size: 10px; fill: #000; opacity: 1;">GA</text><text text-anchor="end" transform="translate(250,7) rotate(270) translate(0,3)" style="font-family: sans-serif; font-size: 10px; fill: #000; opacity: 1;">HI</text><text text-anchor="end" transform="translate(270,7) rotate(270) translate(0,3)" style="font-family: sans-serif; font-size: 10px; fill: #000; opacity: 1;">IA</text><text text-anchor="end" transform="translate(290,7) rotate(270) translate(0,3)" style="font-family: sans-serif; font-size: 10px; fill: #000; opacity: 1;">ID</text><text text-anchor="end" transform="translate(310,7) rotate(270) translate(0,3)" style="font-family: sans-serif; font-size: 10px; fill: #000; opacity: 1;">IL</text><text text-anchor="end" transform="translate(330,7) rotate(270) translate(0,3)" style="font-family: sans-serif; font-size: 10px; fill: #000; opacity: 1;">IN</text><text text-anchor="end" transform="translate(350,7) rotate(270) translate(0,3)" style="font-family: sans-serif; font-size: 10px; fill: #000; opacity: 1;">KS</text><text text-anchor="end" transform="translate(370,7) rotate(270) translate(0,3)" style="font-family: sans-serif; font-size: 10px; fill: #000; opacity: 1;">KY</text><text text-anchor="end" transform="translate(390,7) rotate(270) translate(0,3)" style="font-family: sans-serif; font-size: 10px; fill: #000; opacity: 1;">LA</text><text text-anchor="end" transform="translate(410,7) rotate(270) translate(0,3)" style="font-family: sans-serif; font-size: 10px; fill: #000; opacity: 1;">MA</text><text text-anchor="end" transform="translate(430,7) rotate(270) translate(0,3)" style="font-family: sans-serif; font-size: 10px; fill: #000; opacity: 1;">MD</text><text text-anchor="end" transform="translate(450,7) rotate(270) translate(0,3)" style="font-family: sans-serif; font-size: 10px; fill: #000; opacity: 1;">ME</text><text text-anchor="end" transform="translate(470,7) rotate(270) translate(0,3)" style="font-family: sans-serif; font-size: 10px; fill: #000; opacity: 1;">MI</text><text text-anchor="end" transform="translate(490,7) rotate(270) translate(0,3)" style="font-family: sans-serif; font-size: 10px; fill: #000; opacity: 1;">MN</text><text text-anchor="end" transform="translate(510,7) rotate(270) translate(0,3)" style="font-family: sans-serif; font-size: 10px; fill: #000; opacity: 1;">MO</text><text text-anchor="end" transform="translate(530,7) rotate(270) translate(0,3)" style="font-family: sans-serif; font-size: 10px; fill: #000; opacity: 1;">MS</text><text text-anchor="end" transform="translate(550,7) rotate(270) translate(0,3)" style="font-family: sans-serif; font-size: 10px; fill: #000; opacity: 1;">MT</text><text text-anchor="end" transform="translate(570,7) rotate(270) translate(0,3)" style="font-family: sans-serif; font-size: 10px; fill: #000; opacity: 1;">NA</text><text text-anchor="end" transform="translate(590,7) rotate(270) translate(0,3)" style="font-family: sans-serif; font-size: 10px; fill: #000; opacity: 1;">NC</text><text text-anchor="end" transform="translate(610,7) rotate(270) translate(0,3)" style="font-family: sans-serif; font-size: 10px; fill: #000; opacity: 1;">ND</text><text text-anchor="end" transform="translate(630,7) rotate(270) translate(0,3)" style="font-family: sans-serif; font-size: 10px; fill: #000; opacity: 1;">NE</text><text text-anchor="end" transform="translate(650,7) rotate(270) translate(0,3)" style="font-family: sans-serif; font-size: 10px; fill: #000; opacity: 1;">NH</text><text text-anchor="end" transform="translate(670,7) rotate(270) translate(0,3)" style="font-family: sans-serif; font-size: 10px; fill: #000; opacity: 1;">NJ</text><text text-anchor="end" transform="translate(690,7) rotate(270) translate(0,3)" style="font-family: sans-serif; font-size: 10px; fill: #000; opacity: 1;">NM</text><text text-anchor="end" transform="translate(710,7) rotate(270) translate(0,3)" style="font-family: sans-serif; font-size: 10px; fill: #000; opacity: 1;">NV</text><text text-anchor="end" transform="translate(730,7) rotate(270) translate(0,3)" style="font-family: sans-serif; font-size: 10px; fill: #000; opacity: 1;">NY</text><text text-anchor="end" transform="translate(750,7) rotate(270) translate(0,3)" style="font-family: sans-serif; font-size: 10px; fill: #000; opacity: 1;">OH</text><text text-anchor="end" transform="translate(770,7) rotate(270) translate(0,3)" style="font-family: sans-serif; font-size: 10px; fill: #000; opacity: 1;">OK</text><text text-anchor="end" transform="translate(790,7) rotate(270) translate(0,3)" style="font-family: sans-serif; font-size: 10px; fill: #000; opacity: 1;">OR</text><text text-anchor="end" transform="translate(810,7) rotate(270) translate(0,3)" style="font-family: sans-serif; font-size: 10px; fill: #000; opacity: 1;">PA</text><text text-anchor="end" transform="translate(830,7) rotate(270) translate(0,3)" style="font-family: sans-serif; font-size: 10px; fill: #000; opacity: 1;">PR</text><text text-anchor="end" transform="translate(850,7) rotate(270) translate(0,3)" style="font-family: sans-serif; font-size: 10px; fill: #000; opacity: 1;">RI</text><text text-anchor="end" transform="translate(870,7) rotate(270) translate(0,3)" style="font-family: sans-serif; font-size: 10px; fill: #000; opacity: 1;">SC</text><text text-anchor="end" transform="translate(890,7) rotate(270) translate(0,3)" style="font-family: sans-serif; font-size: 10px; fill: #000; opacity: 1;">SD</text><text text-anchor="end" transform="translate(910,7) rotate(270) translate(0,3)" style="font-family: sans-serif; font-size: 10px; fill: #000; opacity: 1;">TN</text><text text-anchor="end" transform="translate(930,7) rotate(270) translate(0,3)" style="font-family: sans-serif; font-size: 10px; fill: #000; opacity: 1;">TX</text><text text-anchor="end" transform="translate(950,7) rotate(270) translate(0,3)" style="font-family: sans-serif; font-size: 10px; fill: #000; opacity: 1;">UT</text><text text-anchor="end" transform="translate(970,7) rotate(270) translate(0,3)" style="font-family: sans-serif; font-size: 10px; fill: #000; opacity: 1;">VA</text><text text-anchor="end" transform="translate(990,7) rotate(270) translate(0,3)" style="font-family: sans-serif; font-size: 10px; fill: #000; opacity: 1;">VI</text><text text-anchor="end" transform="translate(1010,7) rotate(270) translate(0,3)" style="font-family: sans-serif; font-size: 10px; fill: #000; opacity: 1;">VT</text><text text-anchor="end" transform="translate(1030,7) rotate(270) translate(0,3)" style="font-family: sans-serif; font-size: 10px; fill: #000; opacity: 1;">WA</text><text text-anchor="end" transform="translate(1050,7) rotate(270) translate(0,3)" style="font-family: sans-serif; font-size: 10px; fill: #000; opacity: 1;">WI</text><text text-anchor="end" transform="translate(1070,7) rotate(270) translate(0,3)" style="font-family: sans-serif; font-size: 10px; fill: #000; opacity: 1;">WV</text><text text-anchor="end" transform="translate(1090,7) rotate(270) translate(0,3)" style="font-family: sans-serif; font-size: 10px; fill: #000; opacity: 1;">WY</text><text text-anchor="end" transform="translate(1110,7) rotate(270) translate(0,3)" style="font-family: sans-serif; font-size: 10px; fill: #000; opacity: 1;">ZZ</text></g><g class="mark-rule role-axis-domain" style="pointer-events: none;"><line transform="translate(0,0)" x2="1120" y2="0" style="fill: none; stroke: #888; stroke-width: 1; opacity: 1;"></line></g><g class="mark-text role-axis-title" style="pointer-events: none;"><text text-anchor="middle" transform="translate(560,36.1083984375)" style="font-family: sans-serif; font-size: 11px; font-weight: bold; fill: #000; opacity: 1;">contributor_state, origin_state</text></g></g><path class="foreground" d="" style="pointer-events: none; display: none; fill: none;"></path></g></g><g class="mark-group role-axis"><g transform="translate(0.5,0.5)"><path class="background" d="M0,0h0v0h0Z" style="pointer-events: none; fill: none;"></path><g><g class="mark-rule role-axis-tick" style="pointer-events: none;"><line transform="translate(0,200)" x2="-5" y2="0" style="fill: none; stroke: #888; stroke-width: 1; opacity: 1;"></line><line transform="translate(0,138)" x2="-5" y2="0" style="fill: none; stroke: #888; stroke-width: 1; opacity: 1;"></line><line transform="translate(0,75)" x2="-5" y2="0" style="fill: none; stroke: #888; stroke-width: 1; opacity: 1;"></line><line transform="translate(0,13)" x2="-5" y2="0" style="fill: none; stroke: #888; stroke-width: 1; opacity: 1;"></line></g><g class="mark-text role-axis-label" style="pointer-events: none;"><text text-anchor="end" transform="translate(-7,203)" style="font-family: sans-serif; font-size: 10px; fill: #000; opacity: 1;">0</text><text text-anchor="end" transform="translate(-7,140.5)" style="font-family: sans-serif; font-size: 10px; fill: #000; opacity: 1;">5,000</text><text text-anchor="end" transform="translate(-7,78)" style="font-family: sans-serif; font-size: 10px; fill: #000; opacity: 1;">10,000</text><text text-anchor="end" transform="translate(-7,15.5)" style="font-family: sans-serif; font-size: 10px; fill: #000; opacity: 1;">15,000</text></g><g class="mark-rule role-axis-domain" style="pointer-events: none;"><line transform="translate(0,200)" x2="0" y2="-200" style="fill: none; stroke: #888; stroke-width: 1; opacity: 1;"></line></g><g class="mark-text role-axis-title" style="pointer-events: none;"><text text-anchor="middle" transform="translate(-41.5859375,100) rotate(-90) translate(0,-2)" style="font-family: sans-serif; font-size: 11px; font-weight: bold; fill: #000; opacity: 1;">Mean of amount</text></g></g><path class="foreground" d="" style="pointer-events: none; display: none; fill: none;"></path></g></g><g class="mark-group role-axis"><g transform="translate(1120.5,0.5)"><path class="background" d="M0,0h0v0h0Z" style="pointer-events: none; fill: none;"></path><g><g class="mark-rule role-axis-tick" style="pointer-events: none;"><line transform="translate(0,200)" x2="5" y2="0" style="fill: none; stroke: #888; stroke-width: 1; opacity: 1;"></line><line transform="translate(0,150)" x2="5" y2="0" style="fill: none; stroke: #888; stroke-width: 1; opacity: 1;"></line><line transform="translate(0,100)" x2="5" y2="0" style="fill: none; stroke: #888; stroke-width: 1; opacity: 1;"></line><line transform="translate(0,50)" x2="5" y2="0" style="fill: none; stroke: #888; stroke-width: 1; opacity: 1;"></line><line transform="translate(0,0)" x2="5" y2="0" style="fill: none; stroke: #888; stroke-width: 1; opacity: 1;"></line></g><g class="mark-text role-axis-label" style="pointer-events: none;"><text text-anchor="start" transform="translate(7,203)" style="font-family: sans-serif; font-size: 10px; fill: #000; opacity: 1;">0</text><text text-anchor="start" transform="translate(7,153)" style="font-family: sans-serif; font-size: 10px; fill: #000; opacity: 1;">5</text><text text-anchor="start" transform="translate(7,103)" style="font-family: sans-serif; font-size: 10px; fill: #000; opacity: 1;">10</text><text text-anchor="start" transform="translate(7,53)" style="font-family: sans-serif; font-size: 10px; fill: #000; opacity: 1;">15</text><text text-anchor="start" transform="translate(7,3)" style="font-family: sans-serif; font-size: 10px; fill: #000; opacity: 1;">20</text></g><g class="mark-rule role-axis-domain" style="pointer-events: none;"><line transform="translate(0,200)" x2="0" y2="-200" style="fill: none; stroke: #888; stroke-width: 1; opacity: 1;"></line></g><g class="mark-text role-axis-title" style="pointer-events: none;"><text text-anchor="middle" transform="translate(22.123046875,100) rotate(90) translate(0,-2)" style="font-family: sans-serif; font-size: 11px; font-weight: bold; fill: #000; opacity: 1;">Mean of depdelay</text></g></g><path class="foreground" d="" style="pointer-events: none; display: none; fill: none;"></path></g></g></g><path class="foreground" d="" style="display: none; fill: none;"></path></g></g></g></svg>